<svg width="150" height="44" viewBox="0 0 150 44" fill="none" xmlns="http://www.w3.org/2000/svg">
<g clip-path="url(#clip0)">
<path fill-rule="evenodd" clip-rule="evenodd" d="M149.158 18.123C150.22 19.6434 150.327 22.0397 149.199 23.8968C148.192 25.5554 142.166 31.9201 140.205 33.9654C138.505 35.7419 136.21 37.5209 133.952 37.5209H86.6667C80.2762 37.5209 79.8906 35.3542 79.8906 30.4556V10.5844C79.8906 5.58136 81.3672 4.13525 85.7312 4.13525H133.952C136.21 4.13525 138.22 5.28803 140.528 7.63525C142.488 9.62705 148.342 16.9533 149.158 18.123Z" fill="#33CCCC"/>
<path fill-rule="evenodd" clip-rule="evenodd" d="M149.158 18.123C150.22 19.6434 150.327 22.0397 149.199 23.8968C148.192 25.5554 142.166 31.9201 140.205 33.9654C138.505 35.7419 136.21 37.5209 133.952 37.5209H86.6667C80.2762 37.5209 79.8906 35.3542 79.8906 30.4556V10.5844C79.8906 5.58136 81.3672 4.13525 85.7312 4.13525H133.952C136.21 4.13525 138.22 5.28803 140.528 7.63525C142.488 9.62705 148.342 16.9533 149.158 18.123Z" fill="#33CCCC"/>
<path fill-rule="evenodd" clip-rule="evenodd" d="M90.6079 11.8188V11.688C90.6079 11.0491 90.5543 10.4175 89.5075 10.4175H85.5558C84.6374 10.4175 84.5793 10.9255 84.5793 11.7146V16.9662C86.5029 14.2155 88.6358 12.9374 90.6079 11.8188ZM117.118 30.7946V30.5126H117.121V17.8731C117.121 12.5725 114.791 9.92254 110.13 9.9231C108.839 9.91095 107.569 10.258 106.464 10.9255C105.354 11.5941 104.289 12.528 103.266 13.7273C102.764 12.424 102.006 11.4642 100.993 10.8478C99.9798 10.2314 98.667 9.92319 97.0547 9.9231C95.1886 9.9231 93.019 10.5768 91.4812 11.8418C91.1372 12.1864 84.5785 17.3488 84.5785 22.6507V30.7428C84.5785 31.0001 84.4543 31.9765 85.5483 31.9765H89.6624C90.9412 31.9765 90.8164 31.139 90.8164 30.7946V17.7068C91.5108 16.7857 92.9297 14.5109 95.2343 14.5109C96.1188 14.5109 96.7558 14.8102 97.1453 15.4089C97.5347 16.0076 97.7303 17.0115 97.7319 18.4205V28.6426H97.7271V30.7431C97.7271 31.0004 97.6029 31.9768 98.6966 31.9768H102.758C104.038 31.9768 103.913 31.1393 103.913 30.7949V30.5129H103.918V17.7074C104.662 16.7863 106.144 14.5114 108.334 14.5114C109.235 14.5114 109.885 14.8108 110.284 15.4095C110.683 16.0082 110.882 17.012 110.881 18.421V28.6432H110.877V30.7436C110.877 31.001 110.754 31.9774 111.848 31.9774H115.963C117.243 31.9768 117.118 31.139 117.118 30.7946ZM139.775 25.6557C138.312 29.5911 134.808 31.7904 130.467 31.7904C124.178 31.7904 120.024 27.505 120.024 21.0777C120.024 14.7278 124.336 10.1252 130.271 10.1252C136.142 10.1252 140.079 14.2138 140.329 20.7999C140.361 21.6414 140.115 22.3849 139.064 22.3849H125.719C125.799 25.9165 127.501 27.8215 130.507 27.8215C132.34 27.8215 133.426 27.0311 134.372 25.4821C134.783 24.8081 135.626 24.8456 135.626 24.8456H139.064C139.625 24.8451 139.874 25.3935 139.775 25.6553V25.6557ZM130.271 14.2113C127.776 14.2113 126.036 15.957 125.719 18.8155H134.661C134.424 16.3152 133.078 14.2113 130.271 14.2113Z" fill="white"/>
<path fill-rule="evenodd" clip-rule="evenodd" d="M24.5614 4.31689C24.0328 3.47454 23.3471 2.74178 22.5417 2.15856C21.7363 1.59268 20.8518 1.14899 19.9167 0.84189C18.8781 0.503587 17.8053 0.280715 16.7179 0.177306C15.4739 0.0549719 14.2246 -0.00413113 12.9747 0.000224198H2.02051C1.03551 0.000224198 0.00300987 0.64717 0.00300987 1.86717V19.6297C1.39065 22.5901 4.09371 25.7331 7.1669 27.2351V23.7124C7.1669 21.8535 8.56676 21.4382 9.14579 21.4382H12.3847C16.8461 21.4382 20.2512 20.5012 22.6001 18.6275C24.949 16.7564 26.1233 13.9771 26.1233 10.2895C26.13 9.22403 26.0064 8.16171 25.7554 7.12619C25.5058 6.13338 25.1029 5.18556 24.5614 4.31689ZM18.1781 13.4392C17.7999 14.0957 17.2357 14.6254 16.5569 14.9618C15.8213 15.3128 15.0265 15.5233 14.2136 15.5826C13.3283 15.6615 12.4141 15.7011 11.4709 15.7012H8.39301C7.6401 15.7012 7.1669 15.0883 7.1669 14.1842V6.92203C7.1669 6.10758 7.69788 5.76592 8.33454 5.76592H11.4709C12.4926 5.76592 13.4507 5.7954 14.3453 5.85439C15.1504 5.89111 15.9411 6.08201 16.6744 6.41675C17.3281 6.72789 17.869 7.23418 18.2228 7.86578C18.5956 8.51532 18.7819 9.43199 18.7822 10.6158C18.7822 11.8177 18.5808 12.7589 18.1781 13.4392ZM7.1669 28.3831C3.7869 27.0325 1.52093 25.4214 0.00300987 23.8242V32.3992C0.00300987 32.3992 -0.121991 33.7976 1.23912 33.7976H6.01815C7.32913 33.7976 7.16746 32.3992 7.16746 32.3992V28.3831H7.1669ZM74.8951 9.34453H70.6061C69.7345 9.34453 69.1601 9.71092 68.8144 10.6695C68.4688 11.6281 63.9226 24.2896 63.9226 24.2896C63.9226 24.2896 59.5739 11.8897 59.2317 10.9295C58.8894 9.96939 58.3275 9.34453 57.315 9.34453H53.374C51.9838 9.34453 51.9837 10.4366 52.1561 10.8697C52.296 11.2197 57.6929 26.0122 59.7485 31.6475C60.2332 32.9781 60.4246 33.3783 60.4396 33.8712C60.4546 34.3642 59.9535 35.399 59.6072 35.9929C59.4482 36.2639 59.2656 36.5205 59.0615 36.7596C63.0913 35.5531 67.7358 31.175 70.1376 26.4321C72.5126 19.8222 75.6446 11.0906 75.7804 10.644C75.9989 9.9205 75.9967 9.34453 74.8951 9.34453ZM55.9564 38.0174C55.584 38.0108 55.2124 37.984 54.8431 37.9369C54.391 37.8771 53.545 37.9615 53.545 38.7024V42.014C53.545 43.2779 54.1493 43.3622 54.4819 43.4371C55.4828 43.6457 56.5035 43.7443 57.5258 43.7312C58.8808 43.7312 60.0597 43.4847 61.0628 42.9918C62.0756 42.4905 62.9781 41.7919 63.7171 40.9369C64.5319 39.985 65.2206 38.9318 65.7658 37.8036C66.3646 36.5914 66.9393 35.256 67.4901 33.7974C67.4901 33.7974 67.7262 33.1382 68.1151 32.0583C66.9321 33.2526 61.356 38.5403 55.9564 38.0174ZM49.5154 13.2758C49.2826 12.7223 48.9647 12.2086 48.5732 11.7534C48.1831 11.3165 47.7365 10.9335 47.2453 10.6145C46.7151 10.2699 46.1528 9.97771 45.5661 9.74217C44.9669 9.50821 44.3508 9.32061 43.7231 9.18106C43.0093 9.02475 42.2851 8.921 41.5564 8.87064C40.7693 8.81203 39.8846 8.78249 38.9022 8.78203C32.4047 8.78203 28.705 10.8356 27.8029 14.9428C27.5096 16.2172 28.7703 16.2921 28.7703 16.2921H32.7674C33.8108 16.2921 33.766 15.9558 34.2724 15.0122C34.4547 14.4987 34.7829 14.0496 35.2168 13.7198C35.9839 13.1289 37.1336 12.8334 38.6661 12.8333C40.1406 12.8333 41.2117 13.1188 41.8797 13.6898C42.5476 14.2608 42.9407 15.1282 43.059 16.2921C43.059 17.6417 42.6381 18.5421 41.0067 18.5421C37.0293 18.3976 32.7553 18.8476 30.3481 20.2278C27.9408 21.6079 26.58 24.3061 26.58 27.2037C26.58 28.3857 26.7913 29.4205 27.214 30.3085C27.6236 31.1789 28.2292 31.9429 28.9832 32.5404C29.7833 33.1644 30.7004 33.6219 31.6803 33.8858C32.794 34.1912 33.9447 34.3408 35.0996 34.3303C36.8294 34.3303 38.3578 34.1133 39.6846 33.6794C41.0111 33.2464 43.0639 31.8183 43.3253 31.61V32.3712C43.3253 33.1255 43.5549 33.7983 44.455 33.7983H49.1031C50.0439 33.7983 50.2531 33.1255 50.2531 32.2976V17.9781C50.2612 17.0879 50.2022 16.1985 50.0765 15.3172C49.9768 14.6157 49.7882 13.9297 49.5154 13.2758ZM43.1772 27.3155C43.1772 27.3155 41.9769 29.8087 37.6933 29.8087C36.5147 29.8087 35.5567 29.5428 34.819 29.0108C34.0813 28.4789 33.7126 27.6508 33.7132 26.5269C33.7132 25.0672 34.3128 24.0368 35.5122 23.4358C36.7104 22.8353 39.1094 22.4922 40.9071 22.5343C42.7047 22.5764 43.1772 23.7124 43.1772 24.4967V27.3161V27.3155Z" fill="#333333"/>
</g>
<defs>
<clipPath id="clip0">
<rect width="150" height="43.75" fill="white"/>
</clipPath>
</defs>
</svg>
