<svg width="60" height="60" viewBox="0 0 60 60" fill="none" xmlns="http://www.w3.org/2000/svg">
<rect x="48" y="14" width="9" height="7" fill="#F7D917"/>
<rect x="48" y="29" width="9" height="18" fill="#F7D917"/>
<path d="M57.1875 28.125H53.4375V22.5H57.1875C57.3204 22.5 57.4518 22.4717 57.5729 22.417C57.6941 22.3623 57.8022 22.2825 57.8901 22.1829C57.9781 22.0832 58.0438 21.966 58.083 21.839C58.1222 21.712 58.134 21.5781 58.1175 21.4462L57.18 13.9463C57.1517 13.7196 57.0415 13.511 56.8703 13.3598C56.699 13.2086 56.4785 13.1251 56.25 13.125H48.75C48.5215 13.1251 48.301 13.2086 48.1297 13.3598C47.9585 13.511 47.8483 13.7196 47.82 13.9463L46.8825 21.4462C46.866 21.5781 46.8778 21.712 46.917 21.839C46.9562 21.966 47.0219 22.0832 47.1099 22.1829C47.1978 22.2825 47.3059 22.3623 47.4271 22.417C47.5482 22.4717 47.6796 22.5 47.8125 22.5H51.5625V28.125H47.8125C47.5639 28.125 47.3254 28.2238 47.1496 28.3996C46.9738 28.5754 46.875 28.8139 46.875 29.0625V47.8125C46.875 48.0611 46.9738 48.2996 47.1496 48.4754C47.3254 48.6512 47.5639 48.75 47.8125 48.75H57.1875C57.4361 48.75 57.6746 48.6512 57.8504 48.4754C58.0262 48.2996 58.125 48.0611 58.125 47.8125V29.0625C58.125 28.8139 58.0262 28.5754 57.8504 28.3996C57.6746 28.2238 57.4361 28.125 57.1875 28.125ZM49.5778 15H55.4222L56.1253 20.625H48.8747L49.5778 15ZM56.25 30V37.5H48.75V30H56.25ZM48.75 46.875V39.375H56.25V46.875H48.75Z" fill="#4B4B4B"/>
<path d="M49.6875 32.8125H51.5625V34.6875H49.6875V32.8125Z" fill="#4B4B4B"/>
<path d="M49.6875 42.1875H51.5625V44.0625H49.6875V42.1875Z" fill="#4B4B4B"/>
<path d="M41.25 28.2188V15.9375C41.2485 14.6948 40.7542 13.5033 39.8754 12.6246C38.9967 11.7458 37.8052 11.2515 36.5625 11.25H10.3125C9.06975 11.2515 7.87834 11.7458 6.99958 12.6246C6.12083 13.5033 5.62649 14.6948 5.625 15.9375V28.2188C4.56695 28.4363 3.61626 29.012 2.93317 29.8488C2.25008 30.6856 1.87636 31.7323 1.875 32.8125V40.3125C1.875 41.0584 2.17132 41.7738 2.69876 42.3012C3.22621 42.8287 3.94158 43.125 4.6875 43.125H5.625V45.9375C5.625 46.6834 5.92132 47.3988 6.44876 47.9262C6.97621 48.4537 7.69158 48.75 8.4375 48.75H14.0625C14.8084 48.75 15.5238 48.4537 16.0512 47.9262C16.5787 47.3988 16.875 46.6834 16.875 45.9375V43.125H30V45.9375C30 46.6834 30.2963 47.3988 30.8238 47.9262C31.3512 48.4537 32.0666 48.75 32.8125 48.75H38.4375C39.1834 48.75 39.8988 48.4537 40.4262 47.9262C40.9537 47.3988 41.25 46.6834 41.25 45.9375V43.125H42.1875C42.9334 43.125 43.6488 42.8287 44.1762 42.3012C44.7037 41.7738 45 41.0584 45 40.3125V32.8125C44.9986 31.7323 44.6249 30.6856 43.9418 29.8488C43.2587 29.012 42.3081 28.4363 41.25 28.2188V28.2188ZM10.3125 13.125H36.5625C37.3084 13.125 38.0238 13.4213 38.5512 13.9488C39.0787 14.4762 39.375 15.1916 39.375 15.9375V28.125H37.3275C37.4385 27.8248 37.4969 27.5076 37.5 27.1875V23.4375C37.5 22.6916 37.2037 21.9762 36.6762 21.4488C36.1488 20.9213 35.4334 20.625 34.6875 20.625H27.1875C26.4416 20.625 25.7262 20.9213 25.1988 21.4488C24.6713 21.9762 24.375 22.6916 24.375 23.4375V27.1875C24.3781 27.5076 24.4365 27.8248 24.5475 28.125H22.3275C22.4385 27.8248 22.4969 27.5076 22.5 27.1875V23.4375C22.5 22.6916 22.2037 21.9762 21.6762 21.4488C21.1488 20.9213 20.4334 20.625 19.6875 20.625H12.1875C11.4416 20.625 10.7262 20.9213 10.1988 21.4488C9.67132 21.9762 9.375 22.6916 9.375 23.4375V27.1875C9.37811 27.5076 9.43646 27.8248 9.5475 28.125H7.5V15.9375C7.5 15.1916 7.79632 14.4762 8.32376 13.9488C8.85121 13.4213 9.56658 13.125 10.3125 13.125V13.125ZM26.25 27.1875V23.4375C26.25 23.1889 26.3488 22.9504 26.5246 22.7746C26.7004 22.5988 26.9389 22.5 27.1875 22.5H34.6875C34.9361 22.5 35.1746 22.5988 35.3504 22.7746C35.5262 22.9504 35.625 23.1889 35.625 23.4375V27.1875C35.625 27.4361 35.5262 27.6746 35.3504 27.8504C35.1746 28.0262 34.9361 28.125 34.6875 28.125H27.1875C26.9389 28.125 26.7004 28.0262 26.5246 27.8504C26.3488 27.6746 26.25 27.4361 26.25 27.1875ZM11.25 27.1875V23.4375C11.25 23.1889 11.3488 22.9504 11.5246 22.7746C11.7004 22.5988 11.9389 22.5 12.1875 22.5H19.6875C19.9361 22.5 20.1746 22.5988 20.3504 22.7746C20.5262 22.9504 20.625 23.1889 20.625 23.4375V27.1875C20.625 27.4361 20.5262 27.6746 20.3504 27.8504C20.1746 28.0262 19.9361 28.125 19.6875 28.125H12.1875C11.9389 28.125 11.7004 28.0262 11.5246 27.8504C11.3488 27.6746 11.25 27.4361 11.25 27.1875ZM6.5625 30H40.3125C41.0584 30 41.7738 30.2963 42.3012 30.8238C42.8287 31.3512 43.125 32.0666 43.125 32.8125V37.5H3.75V32.8125C3.75 32.0666 4.04632 31.3512 4.57376 30.8238C5.10121 30.2963 5.81658 30 6.5625 30V30ZM15 45.9375C15 46.1861 14.9012 46.4246 14.7254 46.6004C14.5496 46.7762 14.3111 46.875 14.0625 46.875H8.4375C8.18886 46.875 7.9504 46.7762 7.77459 46.6004C7.59877 46.4246 7.5 46.1861 7.5 45.9375V43.125H15V45.9375ZM39.375 45.9375C39.375 46.1861 39.2762 46.4246 39.1004 46.6004C38.9246 46.7762 38.6861 46.875 38.4375 46.875H32.8125C32.5639 46.875 32.3254 46.7762 32.1496 46.6004C31.9738 46.4246 31.875 46.1861 31.875 45.9375V43.125H39.375V45.9375ZM42.1875 41.25H4.6875C4.43886 41.25 4.2004 41.1512 4.02459 40.9754C3.84877 40.7996 3.75 40.5611 3.75 40.3125V39.375H43.125V40.3125C43.125 40.5611 43.0262 40.7996 42.8504 40.9754C42.6746 41.1512 42.4361 41.25 42.1875 41.25Z" fill="#4B4B4B"/>
</svg>
