<svg width="60" height="55" viewBox="0 0 60 55" fill="none" xmlns="http://www.w3.org/2000/svg">
<rect x="24" y="15" width="35" height="6" fill="#F7D917"/>
<rect x="1" y="24" width="18" height="6" fill="#F7D917"/>
<path d="M59 14.2085H25C24.4477 14.2085 24 14.6189 24 15.1252V20.6252C24 21.1314 24.4477 21.5418 25 21.5418H27V49.0418H29V35.2918H55V49.0418H57V21.5418H59C59.5523 21.5418 60 21.1314 60 20.6252V15.1252C60 14.6189 59.5523 14.2085 59 14.2085ZM55 33.4585H29V21.5418H55V33.4585ZM58 19.7085H26V16.0418H58V19.7085Z" fill="#4B4B4B"/>
<path d="M17 22.4585H10V8.7085C10 7.18969 8.65688 5.9585 7 5.9585H1C0.44775 5.9585 0 6.36893 0 6.87516V30.7085C0 31.2147 0.44775 31.6252 1 31.6252H2V49.0418H4V45.3752H16V49.0418H18V31.6252H19C19.5523 31.6252 20 31.2147 20 30.7085V25.2085C20 23.6897 18.6569 22.4585 17 22.4585ZM2 7.79183H7C7.55225 7.79183 8 8.20227 8 8.7085V22.4585H2V7.79183ZM16 43.5418H4V31.6252H16V43.5418ZM18 29.7918H2V24.2918H17C17.5523 24.2918 18 24.7023 18 25.2085V29.7918Z" fill="#4B4B4B"/>
</svg>
