<svg width="60" height="60" viewBox="0 0 60 60" fill="none" xmlns="http://www.w3.org/2000/svg">
<rect x="6" y="12" width="47" height="8" fill="#F7D917"/>
<rect x="6" y="23" width="47" height="8" fill="#F7D917"/>
<rect x="6" y="35" width="47" height="8" fill="#F7D917"/>
<path d="M59.1211 7.51514H0.878906C0.393516 7.51514 0 7.90865 0 8.39404C0 8.87943 0.393516 9.27295 0.878906 9.27295H1.87875V51.606C1.87875 52.0914 2.27227 52.4849 2.75766 52.4849C3.24305 52.4849 3.63656 52.0914 3.63656 51.606V47.8439C4.70355 47.513 7.43285 46.8485 12.1515 46.8485C15.1534 46.8485 17.3761 47.2549 19.7293 47.6853C22.4004 48.1737 25.4277 48.7273 30 48.7273C34.5723 48.7273 37.5996 48.1737 40.2707 47.6853C42.6239 47.2549 44.8466 46.8485 47.8485 46.8485C52.5681 46.8485 55.2969 47.513 56.3634 47.8439V51.606C56.3634 52.0914 56.757 52.4849 57.2423 52.4849C57.7277 52.4849 58.1212 52.0914 58.1212 51.606V9.27295H59.1211C59.6065 9.27295 60 8.87943 60 8.39404C60 7.90865 59.6065 7.51514 59.1211 7.51514V7.51514ZM56.3634 46.0125C54.919 45.6216 52.1645 45.0907 47.8485 45.0907C44.6871 45.0907 42.3884 45.5111 39.9545 45.9561C37.23 46.4543 34.4128 46.9695 30.0001 46.9695C25.5874 46.9695 22.7701 46.4543 20.0457 45.9561C17.6119 45.5111 15.313 45.0907 12.1518 45.0907C7.83562 45.0907 5.08125 45.6216 3.6368 46.0125V9.27295H56.3637V46.0125H56.3634Z" fill="#4B4B4B"/>
<path d="M6.51538 20.5454H53.485C53.9703 20.5454 54.3639 20.1519 54.3639 19.6665V12.1514C54.3639 11.666 53.9703 11.2725 53.485 11.2725H12.1517C11.6664 11.2725 11.2728 11.666 11.2728 12.1514C11.2728 12.6368 11.6664 13.0303 12.1517 13.0303H29.1212V18.7876H7.39429V13.0303H8.39378C8.87917 13.0303 9.27269 12.6368 9.27269 12.1514C9.27269 11.666 8.87917 11.2725 8.39378 11.2725H6.51538C6.02999 11.2725 5.63647 11.666 5.63647 12.1514V19.6665C5.63647 20.1519 6.02999 20.5454 6.51538 20.5454V20.5454ZM30.879 13.0303H52.6059V18.7876H30.879V13.0303Z" fill="#4B4B4B"/>
<path d="M6.51538 31.8183H53.485C53.9703 31.8183 54.3639 31.4248 54.3639 30.9394V23.4243C54.3639 22.9389 53.9703 22.5454 53.485 22.5454H6.51538C6.02999 22.5454 5.63647 22.9389 5.63647 23.4243V30.9394C5.63647 31.4248 6.02999 31.8183 6.51538 31.8183V31.8183ZM52.6059 30.0605H30.879V24.3032H52.6059V30.0605ZM7.39429 24.3032H29.1212V30.0605H7.39429V24.3032Z" fill="#4B4B4B"/>
<path d="M6.51538 43.0909H53.485C53.9703 43.0909 54.3639 42.6974 54.3639 42.212V34.6968C54.3639 34.2114 53.9703 33.8179 53.485 33.8179H51.6066C51.1212 33.8179 50.7277 34.2114 50.7277 34.6968C50.7277 35.1822 51.1212 35.5757 51.6066 35.5757H52.606V41.333H30.879V35.5757H47.8486C48.334 35.5757 48.7275 35.1822 48.7275 34.6968C48.7275 34.2114 48.334 33.8179 47.8486 33.8179H6.51538C6.02999 33.8179 5.63647 34.2114 5.63647 34.6968V42.2119C5.63647 42.6974 6.02999 43.0909 6.51538 43.0909V43.0909ZM7.39429 35.5757H29.1212V41.333H7.39429V35.5757Z" fill="#4B4B4B"/>
<path d="M21.4851 14.9697C21.4851 14.4843 21.0916 14.0908 20.6062 14.0908C20.1208 14.0908 19.7273 14.4843 19.7273 14.9697C19.7273 15.5117 19.0543 15.9696 18.2576 15.9696C17.4611 15.9696 16.7881 15.5117 16.7881 14.9697C16.7881 14.4843 16.3946 14.0908 15.9092 14.0908C15.4238 14.0908 15.0303 14.4843 15.0303 14.9697C15.0303 16.4903 16.478 17.7274 18.2576 17.7274C20.0372 17.7274 21.4851 16.4903 21.4851 14.9697Z" fill="#4B4B4B"/>
<path d="M20.6062 25.3633C20.1208 25.3633 19.7273 25.7568 19.7273 26.2422C19.7273 26.7842 19.0543 27.242 18.2576 27.242C17.4611 27.242 16.7881 26.7842 16.7881 26.2422C16.7881 25.7568 16.3946 25.3633 15.9092 25.3633C15.4238 25.3633 15.0303 25.7568 15.0303 26.2422C15.0303 27.7628 16.478 28.9998 18.2576 28.9998C20.0372 28.9998 21.4851 27.7628 21.4851 26.2422C21.4851 25.7568 21.0916 25.3633 20.6062 25.3633Z" fill="#4B4B4B"/>
<path d="M20.6062 36.6362C20.1208 36.6362 19.7273 37.0297 19.7273 37.5151C19.7273 38.0571 19.0543 38.515 18.2576 38.515C17.4611 38.515 16.7881 38.0571 16.7881 37.5151C16.7881 37.0297 16.3946 36.6362 15.9092 36.6362C15.4238 36.6362 15.0303 37.0297 15.0303 37.5151C15.0303 39.0358 16.478 40.2728 18.2576 40.2728C20.0372 40.2728 21.4851 39.0358 21.4851 37.5151C21.4851 37.0297 21.0916 36.6362 20.6062 36.6362Z" fill="#4B4B4B"/>
<path d="M44.0908 14.0908C43.6054 14.0908 43.2119 14.4843 43.2119 14.9697C43.2119 15.5117 42.5389 15.9696 41.7424 15.9696C40.9457 15.9696 40.2727 15.5117 40.2727 14.9697C40.2727 14.4843 39.8792 14.0908 39.3938 14.0908C38.9084 14.0908 38.5149 14.4843 38.5149 14.9697C38.5149 16.4903 39.9626 17.7274 41.7424 17.7274C43.522 17.7274 44.9697 16.4903 44.9697 14.9697C44.9697 14.4843 44.5762 14.0908 44.0908 14.0908Z" fill="#4B4B4B"/>
<path d="M41.7424 29.0003C43.522 29.0003 44.9697 27.7633 44.9697 26.2427C44.9697 25.7573 44.5762 25.3638 44.0908 25.3638C43.6054 25.3638 43.2119 25.7573 43.2119 26.2427C43.2119 26.7847 42.5389 27.2425 41.7424 27.2425C40.9457 27.2425 40.2727 26.7847 40.2727 26.2427C40.2727 25.7573 39.8792 25.3638 39.3938 25.3638C38.9084 25.3638 38.5149 25.7573 38.5149 26.2427C38.5149 27.7632 39.9627 29.0003 41.7424 29.0003Z" fill="#4B4B4B"/>
<path d="M43.2119 37.5151C43.2119 38.0571 42.5389 38.515 41.7424 38.515C40.9457 38.515 40.2727 38.0571 40.2727 37.5151C40.2727 37.0297 39.8792 36.6362 39.3938 36.6362C38.9084 36.6362 38.5149 37.0297 38.5149 37.5151C38.5149 39.0358 39.9626 40.2728 41.7424 40.2728C43.522 40.2728 44.9697 39.0358 44.9697 37.5151C44.9697 37.0297 44.5762 36.6362 44.0908 36.6362C43.6054 36.6362 43.2119 37.0297 43.2119 37.5151Z" fill="#4B4B4B"/>
</svg>
