<svg width="90" height="60" viewBox="0 0 90 60" fill="none" xmlns="http://www.w3.org/2000/svg">
<g clip-path="url(#clip0)">
<path d="M8.90015 42.5023C9.14101 42.5023 9.37201 42.4066 9.54232 42.2363C9.71264 42.066 9.80832 41.835 9.80832 41.5941C9.80832 41.3533 9.71264 41.1223 9.54232 40.9519C9.37201 40.7816 9.14101 40.6859 8.90015 40.6859C8.77881 40.6779 8.65715 40.6959 8.54333 40.7387C8.4295 40.7815 8.32614 40.8481 8.24015 40.9341C8.15416 41.0201 8.08754 41.1235 8.04474 41.2373C8.00194 41.3511 7.98395 41.4728 7.99197 41.5941C7.99197 41.835 8.08766 42.066 8.25797 42.2363C8.42829 42.4066 8.65929 42.5023 8.90015 42.5023Z" fill="#555555"/>
<path d="M14.3491 42.5023C14.59 42.5023 14.821 42.4066 14.9913 42.2363C15.1616 42.066 15.2573 41.835 15.2573 41.5941C15.2573 41.3533 15.1616 41.1223 14.9913 40.9519C14.821 40.7816 14.59 40.6859 14.3491 40.6859C14.2278 40.6779 14.1061 40.6959 13.9923 40.7387C13.8785 40.7815 13.7751 40.8481 13.6891 40.9341C13.6031 41.0201 13.5365 41.1235 13.4937 41.2373C13.4509 41.3511 13.4329 41.4728 13.4409 41.5941C13.4409 41.835 13.5366 42.066 13.7069 42.2363C13.8773 42.4066 14.1083 42.5023 14.3491 42.5023Z" fill="#555555"/>
<path d="M19.7982 42.5023C20.0391 42.5023 20.2701 42.4066 20.4404 42.2363C20.6107 42.066 20.7064 41.835 20.7064 41.5941C20.7064 41.3533 20.6107 41.1223 20.4404 40.9519C20.2701 40.7816 20.0391 40.6859 19.7982 40.6859C19.6769 40.6779 19.5552 40.6959 19.4414 40.7387C19.3276 40.7815 19.2242 40.8481 19.1382 40.9341C19.0522 41.0201 18.9856 41.1235 18.9428 41.2373C18.9 41.3511 18.882 41.4728 18.89 41.5941C18.89 41.835 18.9857 42.066 19.156 42.2363C19.3264 42.4066 19.5574 42.5023 19.7982 42.5023Z" fill="#555555"/>
<path d="M17.0736 46.1351C17.3145 46.1351 17.5455 46.0394 17.7158 45.8691C17.8861 45.6988 17.9818 45.4678 17.9818 45.2269C17.9818 44.9861 17.8861 44.7551 17.7158 44.5848C17.5455 44.4144 17.3145 44.3188 17.0736 44.3188C16.9523 44.3107 16.8306 44.3287 16.7168 44.3715C16.603 44.4143 16.4996 44.4809 16.4136 44.5669C16.3276 44.6529 16.261 44.7563 16.2182 44.8701C16.1754 44.9839 16.1574 45.1056 16.1654 45.2269C16.1654 45.4678 16.2611 45.6988 16.4314 45.8691C16.6018 46.0394 16.8327 46.1351 17.0736 46.1351Z" fill="#555555"/>
<path d="M11.6246 46.1351C11.8655 46.1351 12.0965 46.0394 12.2668 45.8691C12.4371 45.6988 12.5328 45.4678 12.5328 45.2269C12.5328 44.9861 12.4371 44.7551 12.2668 44.5848C12.0965 44.4144 11.8655 44.3188 11.6246 44.3188C11.5033 44.3107 11.3816 44.3287 11.2678 44.3715C11.154 44.4143 11.0506 44.4809 10.9646 44.5669C10.8786 44.6529 10.812 44.7563 10.7692 44.8701C10.7264 44.9839 10.7084 45.1056 10.7165 45.2269C10.7165 45.4678 10.8121 45.6988 10.9825 45.8691C11.1528 46.0394 11.3838 46.1351 11.6246 46.1351Z" fill="#555555"/>
<path d="M27.0636 43.5925H25.5197V37.0537C25.5069 36.8652 25.4263 36.6877 25.2927 36.5541C25.1591 36.4205 24.9816 36.3399 24.7931 36.3271H3.90515C3.71666 36.3399 3.53917 36.4205 3.40559 36.5541C3.272 36.6877 3.19136 36.8652 3.17861 37.0537V43.5925H0.726539C0.538047 43.6053 0.360566 43.6859 0.226978 43.8195C0.0933893 43.9531 0.0127499 44.1306 0 44.3191L0 57.0335C0.0127499 57.222 0.0933893 57.3995 0.226978 57.5331C0.360566 57.6667 0.538047 57.7473 0.726539 57.76H2.72452V58.8499C2.73727 59.0384 2.81791 59.2158 2.9515 59.3494C3.08509 59.483 3.26257 59.5636 3.45106 59.5764C3.63955 59.5636 3.81703 59.483 3.95062 59.3494C4.08421 59.2158 4.16485 59.0384 4.1776 58.8499V57.76H24.1574V58.8499C24.1574 59.0425 24.234 59.2273 24.3702 59.3636C24.5065 59.4998 24.6913 59.5764 24.884 59.5764C25.0766 59.5764 25.2614 59.4998 25.3977 59.3636C25.5339 59.2273 25.6105 59.0425 25.6105 58.8499V57.76H27.1544C27.3429 57.7473 27.5204 57.6667 27.654 57.5331C27.7875 57.3995 27.8682 57.222 27.8809 57.0335V44.3191C27.8345 44.1294 27.7314 43.9582 27.5854 43.8285C27.4394 43.6987 27.2574 43.6164 27.0636 43.5925V43.5925ZM26.337 53.5824H22.3411V45.0456H26.337V53.5824ZM6.90212 53.5824V50.4947H20.888V53.5824H6.90212ZM4.63169 37.7802H24.0666V43.5925H21.6145C21.426 43.6053 21.2486 43.6859 21.115 43.8195C20.9814 43.9531 20.9007 44.1306 20.888 44.3191V49.0416H6.90212V44.3191C6.88937 44.1306 6.80873 43.9531 6.67514 43.8195C6.54155 43.6859 6.36407 43.6053 6.17558 43.5925H4.63169V37.7802ZM5.44904 45.0456V53.5824H1.45308V45.0456H5.44904ZM26.337 56.307H1.45308V55.0355H26.337V56.307Z" fill="#555555"/>
<path d="M89.2734 0H71.11C70.9215 0.0127499 70.744 0.0933893 70.6104 0.226978C70.4768 0.360566 70.3962 0.538047 70.3834 0.726539C70.3962 0.915031 70.4768 1.09251 70.6104 1.2261C70.744 1.35969 70.9215 1.44033 71.11 1.45308H71.2916V27.2452H30.2422C30.0495 27.2452 29.8647 27.3218 29.7284 27.458C29.5922 27.5943 29.5156 27.7791 29.5156 27.9717C29.5156 28.1644 29.5922 28.3492 29.7284 28.4855C29.8647 28.6217 30.0495 28.6983 30.2422 28.6983H30.4238V58.8497C30.4238 59.0423 30.5003 59.2271 30.6366 59.3634C30.7728 59.4996 30.9576 59.5762 31.1503 59.5762C31.343 59.5762 31.5278 59.4996 31.6641 59.3634C31.8003 59.2271 31.8769 59.0423 31.8769 58.8497V57.7598H71.2916V58.8497C71.2916 59.0423 71.3682 59.2271 71.5044 59.3634C71.6407 59.4996 71.8255 59.5762 72.0181 59.5762C72.2108 59.5762 72.3956 59.4996 72.5319 59.3634C72.6681 59.2271 72.7447 59.0423 72.7447 58.8497V57.7598H87.6387V58.8497C87.6387 59.0423 87.7153 59.2271 87.8515 59.3634C87.9878 59.4996 88.1726 59.5762 88.3653 59.5762C88.558 59.5762 88.7428 59.4996 88.879 59.3634C89.0153 59.2271 89.0918 59.0423 89.0918 58.8497V1.45308H89.2734C89.4619 1.44033 89.6394 1.35969 89.773 1.2261C89.9066 1.09251 89.9872 0.915031 90 0.726539C89.9872 0.538047 89.9066 0.360566 89.773 0.226978C89.6394 0.0933893 89.4619 0.0127499 89.2734 0V0ZM72.7447 42.3209H87.6387V48.1332H72.7447V42.3209ZM87.6387 40.8678H72.7447V34.0565H87.6387V40.8678ZM45.4995 56.1251V35.9637H57.669V56.3068H45.4995V56.1251ZM57.669 28.8799V34.5106H45.4995V28.6983H57.7598C57.669 28.7891 57.669 28.7891 57.669 28.8799V28.8799ZM31.8769 56.3068V28.6983H44.0464V56.3068H31.8769ZM59.1221 56.3068V28.6983H71.2916V56.3068H59.1221ZM72.7447 56.3068V49.5863H87.6387V56.3068H72.7447ZM87.6387 32.6943H72.7447V1.45308H87.6387V32.6943Z" fill="#555555"/>
<path d="M78.8295 36.1455H81.554C81.6744 36.1455 81.7899 36.0976 81.8751 36.0125C81.9602 35.9273 82.0081 35.8118 82.0081 35.6914C82.0081 35.571 81.9602 35.4555 81.8751 35.3703C81.7899 35.2851 81.6744 35.2373 81.554 35.2373H78.8295C78.709 35.2373 78.5935 35.2851 78.5084 35.3703C78.4232 35.4555 78.3754 35.571 78.3754 35.6914C78.3754 35.8118 78.4232 35.9273 78.5084 36.0125C78.5935 36.0976 78.709 36.1455 78.8295 36.1455Z" fill="#555555"/>
<path d="M81.554 43.4106H78.8295C78.709 43.4106 78.5935 43.4585 78.5084 43.5436C78.4232 43.6288 78.3754 43.7443 78.3754 43.8647C78.3754 43.9852 78.4232 44.1007 78.5084 44.1858C78.5935 44.271 78.709 44.3188 78.8295 44.3188H81.554C81.6744 44.3188 81.7899 44.271 81.8751 44.1858C81.9602 44.1007 82.0081 43.9852 82.0081 43.8647C82.0081 43.7443 81.9602 43.6288 81.8751 43.5436C81.7899 43.4585 81.6744 43.4106 81.554 43.4106Z" fill="#555555"/>
<path d="M81.554 51.5845H78.8295C78.709 51.5845 78.5935 51.6323 78.5084 51.7175C78.4232 51.8026 78.3754 51.9181 78.3754 52.0386C78.3754 52.159 78.4232 52.2745 78.5084 52.3596C78.5935 52.4448 78.709 52.4926 78.8295 52.4926H81.554C81.6744 52.4926 81.7899 52.4448 81.8751 52.3596C81.9602 52.2745 82.0081 52.159 82.0081 52.0386C82.0081 51.9181 81.9602 51.8026 81.8751 51.7175C81.7899 51.6323 81.6744 51.5845 81.554 51.5845Z" fill="#555555"/>
<path d="M50.222 30.6963H52.9466C53.067 30.6963 53.1825 30.6484 53.2676 30.5633C53.3528 30.4781 53.4006 30.3626 53.4006 30.2422C53.4006 30.1217 53.3528 30.0062 53.2676 29.9211C53.1825 29.8359 53.067 29.7881 52.9466 29.7881H50.222C50.1016 29.7881 49.9861 29.8359 49.9009 29.9211C49.8158 30.0062 49.7679 30.1217 49.7679 30.2422C49.7679 30.3626 49.8158 30.4781 49.9009 30.5633C49.9861 30.6484 50.1016 30.6963 50.222 30.6963Z" fill="#555555"/>
<path d="M61.1201 39.7778C61.0594 39.7738 60.9986 39.7828 60.9416 39.8042C60.8847 39.8256 60.8331 39.8589 60.7901 39.9019C60.7471 39.9449 60.7137 39.9966 60.6923 40.0535C60.6709 40.1104 60.662 40.1712 60.666 40.2319V42.9564C60.666 43.0768 60.7138 43.1923 60.799 43.2775C60.8841 43.3626 60.9996 43.4105 61.1201 43.4105C61.2405 43.4105 61.356 43.3626 61.4411 43.2775C61.5263 43.1923 61.5741 43.0768 61.5741 42.9564V40.2319C61.5778 40.1758 61.5704 40.1195 61.5523 40.0663C61.5342 40.0131 61.5058 39.964 61.4687 39.9218C61.4315 39.8796 61.3864 39.8452 61.336 39.8205C61.2855 39.7958 61.2306 39.7813 61.1745 39.7778H61.1201Z" fill="#555555"/>
<path d="M42.0484 39.7778C41.9877 39.7738 41.9269 39.7828 41.87 39.8042C41.8131 39.8256 41.7614 39.8589 41.7184 39.9019C41.6754 39.9449 41.6421 39.9966 41.6207 40.0535C41.5993 40.1104 41.5903 40.1712 41.5943 40.2319V42.9564C41.5943 43.0768 41.6422 43.1923 41.7273 43.2775C41.8125 43.3626 41.928 43.4105 42.0484 43.4105C42.1688 43.4105 42.2843 43.3626 42.3695 43.2775C42.4546 43.1923 42.5025 43.0768 42.5025 42.9564V40.2319C42.5062 40.1758 42.4988 40.1195 42.4807 40.0663C42.4626 40.0131 42.4341 39.964 42.397 39.9218C42.3599 39.8796 42.3148 39.8452 42.2643 39.8205C42.2138 39.7958 42.159 39.7813 42.1029 39.7778H42.0484Z" fill="#555555"/>
<path d="M35.6913 21.433H65.661C65.8495 21.4202 66.027 21.3396 66.1606 21.206C66.2941 21.0724 66.3748 20.8949 66.3875 20.7064V2.54295C66.3748 2.35445 66.2941 2.17697 66.1606 2.04338C66.027 1.9098 65.8495 1.82916 65.661 1.81641H35.6913C35.5028 1.82916 35.3253 1.9098 35.1917 2.04338C35.0581 2.17697 34.9775 2.35445 34.9647 2.54295V20.7064C34.9775 20.8949 35.0581 21.0724 35.1917 21.206C35.3253 21.3396 35.5028 21.4202 35.6913 21.433ZM36.4178 3.26948H64.9345V19.9799H36.4178V3.26948Z" fill="#555555"/>
</g>
<defs>
<clipPath id="clip0">
<rect width="90" height="59.5762" fill="white"/>
</clipPath>
</defs>
</svg>
