<svg width="90" height="66" viewBox="0 0 90 66" fill="none" xmlns="http://www.w3.org/2000/svg">
<path d="M17.682 50.3428C17.6157 50.3384 17.5491 50.3482 17.4869 50.3716C17.4246 50.3949 17.3681 50.4313 17.3211 50.4782C17.274 50.5251 17.2376 50.5815 17.2142 50.6436C17.1908 50.7057 17.181 50.7721 17.1853 50.8383V55.2972C17.1853 55.4286 17.2377 55.5546 17.3308 55.6475C17.424 55.7404 17.5503 55.7926 17.682 55.7926C17.8138 55.7926 17.9401 55.7404 18.0332 55.6475C18.1264 55.5546 18.1787 55.4286 18.1787 55.2972V50.8383C18.1827 50.7771 18.1746 50.7157 18.1548 50.6576C18.135 50.5996 18.1039 50.546 18.0633 50.5C18.0227 50.4539 17.9734 50.4164 17.9182 50.3894C17.863 50.3624 17.803 50.3466 17.7416 50.3428H17.682Z" fill="#555555"/>
<path d="M37.5497 27.0577C37.4834 27.0533 37.4168 27.0631 37.3546 27.0864C37.2923 27.1098 37.2358 27.1461 37.1888 27.193C37.1417 27.2399 37.1053 27.2963 37.0819 27.3584C37.0585 27.4205 37.0486 27.4869 37.053 27.5531V33.4982C37.053 33.6296 37.1054 33.7556 37.1985 33.8485C37.2916 33.9414 37.418 33.9936 37.5497 33.9936C37.6814 33.9936 37.8078 33.9414 37.9009 33.8485C37.9941 33.7556 38.0464 33.6296 38.0464 33.4982V27.5531C38.0505 27.4919 38.0423 27.4305 38.0225 27.3725C38.0027 27.3144 37.9716 27.2608 37.931 27.2148C37.8904 27.1688 37.8411 27.1312 37.7859 27.1042C37.7307 27.0773 37.6707 27.0614 37.6093 27.0577H37.5497Z" fill="#555555"/>
<path d="M13.2119 37.957H10.2318C10.1001 37.957 9.97373 38.0092 9.88058 38.1021C9.78744 38.1949 9.73511 38.3209 9.73511 38.4522C9.73511 38.5835 9.78744 38.7095 9.88058 38.8024C9.97373 38.8952 10.1001 38.9474 10.2318 38.9474H13.2119C13.3437 38.9474 13.47 38.8952 13.5631 38.8024C13.6563 38.7095 13.7086 38.5835 13.7086 38.4522C13.7086 38.3209 13.6563 38.1949 13.5631 38.1021C13.47 38.0092 13.3437 37.957 13.2119 37.957Z" fill="#555555"/>
<path d="M89.2053 0.00732422H0.794702C0.588526 0.0212349 0.394394 0.109216 0.248272 0.254966C0.102151 0.400716 0.0139461 0.594355 0 0.800007C0.0139461 1.00566 0.102151 1.1993 0.248272 1.34505C0.394394 1.4908 0.588526 1.57878 0.794702 1.59269H0.993378V64.2146C1.00732 64.4203 1.09553 64.6139 1.24165 64.7597C1.38777 64.9054 1.5819 64.9934 1.78808 65.0073C1.99426 64.9934 2.18839 64.9054 2.33451 64.7597C2.48063 64.6139 2.56884 64.4203 2.58278 64.2146V62.9265C2.69934 63.0053 2.84011 63.0404 2.98013 63.0256H20.8609V64.2146C20.8609 64.4249 20.9447 64.6265 21.0937 64.7752C21.2427 64.9238 21.4449 65.0073 21.6556 65.0073C21.8664 65.0073 22.0685 64.9238 22.2176 64.7752C22.3666 64.6265 22.4503 64.4249 22.4503 64.2146V63.0256H57.6159V64.2146C57.6159 64.4249 57.6996 64.6265 57.8487 64.7752C57.9977 64.9238 58.1998 65.0073 58.4106 65.0073C58.6214 65.0073 58.8235 64.9238 58.9725 64.7752C59.1216 64.6265 59.2053 64.4249 59.2053 64.2146V63.0256H87.4172V64.2146C87.4172 64.4249 87.5009 64.6265 87.65 64.7752C87.799 64.9238 88.0012 65.0073 88.2119 65.0073C88.4227 65.0073 88.6248 64.9238 88.7739 64.7752C88.9229 64.6265 89.0066 64.4249 89.0066 64.2146V1.59269H89.2053C89.4115 1.57878 89.6056 1.4908 89.7517 1.34505C89.8979 1.1993 89.9861 1.00566 90 0.800007C89.9861 0.594355 89.8979 0.400716 89.7517 0.254966C89.6056 0.109216 89.4115 0.0212349 89.2053 0.00732422V0.00732422ZM77.4834 43.6049H69.1391V1.59269H77.4834V43.6049ZM59.2053 1.59269H67.5497V43.6049H59.2053V1.59269ZM2.58278 35.0835C2.71855 35.2079 2.89521 35.2783 3.07947 35.2817H20.9603V43.6049H2.58278V35.0835ZM20.8609 1.59269V33.6964H2.98013C2.78146 33.6964 2.68212 33.7954 2.48344 33.8945V1.59269H20.8609ZM2.98013 61.4403C2.78146 61.4403 2.68212 61.5393 2.58278 61.5393V45.1903H20.8609V61.4403H2.98013ZM22.4503 1.79086V1.59269H39.7351V61.4403H22.4503V1.79086ZM41.3245 61.4403V1.59269H57.6159V61.4403H41.3245ZM87.2186 61.4403H59.2053V45.1903H87.4172V61.4403H87.2186ZM87.4172 43.6049H79.0728V1.59269H87.4172V43.6049Z" fill="#555555"/>
<path d="M43.5099 27.0577C43.4436 27.0533 43.377 27.0631 43.3148 27.0864C43.2525 27.1098 43.196 27.1461 43.149 27.193C43.1019 27.2399 43.0655 27.2963 43.0421 27.3584C43.0187 27.4205 43.0088 27.4869 43.0132 27.5531V33.4982C43.0132 33.6296 43.0656 33.7556 43.1587 33.8485C43.2519 33.9414 43.3782 33.9936 43.5099 33.9936C43.6417 33.9936 43.768 33.9414 43.8611 33.8485C43.9543 33.7556 44.0066 33.6296 44.0066 33.4982V27.5531C44.0107 27.4919 44.0025 27.4305 43.9827 27.3725C43.9629 27.3144 43.9319 27.2608 43.8912 27.2148C43.8506 27.1688 43.8013 27.1312 43.7461 27.1042C43.6909 27.0773 43.6309 27.0614 43.5695 27.0577H43.5099Z" fill="#555555"/>
<path d="M63.3776 12.1946C63.444 12.199 63.5105 12.1892 63.5727 12.1658C63.635 12.1425 63.6915 12.1061 63.7386 12.0592C63.7856 12.0123 63.822 11.9559 63.8454 11.8938C63.8688 11.8317 63.8787 11.7654 63.8743 11.6992V7.73567C63.8743 7.60427 63.822 7.47826 63.7288 7.38534C63.6357 7.29243 63.5093 7.24023 63.3776 7.24023C63.2459 7.24023 63.1195 7.29243 63.0264 7.38534C62.9332 7.47826 62.8809 7.60427 62.8809 7.73567V11.6992C62.8769 11.7604 62.885 11.8217 62.9048 11.8798C62.9246 11.9378 62.9557 11.9914 62.9963 12.0375C63.0369 12.0835 63.0862 12.1211 63.1414 12.148C63.1966 12.175 63.2566 12.1908 63.318 12.1946H63.3776Z" fill="#555555"/>
<path d="M73.3112 7.24027C73.2448 7.23589 73.1783 7.24571 73.116 7.26906C73.0538 7.29241 72.9973 7.32875 72.9502 7.37566C72.9032 7.42257 72.8668 7.47896 72.8433 7.54105C72.8199 7.60314 72.8101 7.66951 72.8145 7.7357V11.6991C72.8145 11.8305 72.8668 11.9565 72.96 12.0495C73.0531 12.1424 73.1795 12.1946 73.3112 12.1946C73.4429 12.1946 73.5693 12.1424 73.6624 12.0495C73.7556 11.9565 73.8079 11.8305 73.8079 11.6991V7.7357C73.8119 7.67452 73.8038 7.61314 73.784 7.55509C73.7642 7.49704 73.7331 7.44347 73.6925 7.39743C73.6519 7.3514 73.6026 7.31382 73.5474 7.28685C73.4922 7.25988 73.4322 7.24405 73.3708 7.24027H73.3112Z" fill="#555555"/>
<path d="M83.245 12.1946C83.3114 12.199 83.3779 12.1892 83.4402 12.1658C83.5024 12.1425 83.559 12.1061 83.606 12.0592C83.653 12.0123 83.6894 11.9559 83.7129 11.8938C83.7363 11.8317 83.7461 11.7654 83.7417 11.6992V7.73567C83.7417 7.60427 83.6894 7.47826 83.5962 7.38534C83.5031 7.29243 83.3768 7.24023 83.245 7.24023C83.1133 7.24023 82.987 7.29243 82.8938 7.38534C82.8007 7.47826 82.7483 7.60427 82.7483 7.73567V11.6992C82.7443 11.7604 82.7524 11.8217 82.7722 11.8798C82.792 11.9378 82.8231 11.9914 82.8637 12.0375C82.9043 12.0835 82.9536 12.1211 83.0088 12.148C83.0641 12.175 83.1241 12.1908 83.1854 12.1946H83.245Z" fill="#555555"/>
</svg>
