<svg width="90" height="71" viewBox="0 0 90 71" fill="none" xmlns="http://www.w3.org/2000/svg">
<g clip-path="url(#clip0)">
<path d="M8.38377 50.3028C8.31629 50.2983 8.24864 50.3083 8.18534 50.3321C8.12204 50.3559 8.06455 50.393 8.01674 50.4408C7.96892 50.4886 7.93187 50.5461 7.90806 50.6094C7.88426 50.6727 7.87426 50.7404 7.87872 50.8078V55.3533C7.87872 55.4872 7.93193 55.6157 8.02665 55.7104C8.12136 55.8051 8.24982 55.8583 8.38377 55.8583C8.51772 55.8583 8.64618 55.8051 8.7409 55.7104C8.83561 55.6157 8.88882 55.4872 8.88882 55.3533V50.8078C8.89293 50.7455 8.88468 50.6829 8.86455 50.6237C8.84442 50.5645 8.81279 50.5099 8.7715 50.463C8.73021 50.4161 8.68005 50.3778 8.62392 50.3503C8.56778 50.3228 8.50677 50.3066 8.44438 50.3028H8.38377Z" fill="#555555"/>
<path d="M88.6868 37.3738H54.1413V33.6364H54.5454C54.6793 33.6364 54.8078 33.5832 54.9025 33.4885C54.9972 33.3937 55.0504 33.2653 55.0504 33.1313C55.0504 32.9974 54.9972 32.8689 54.9025 32.7742C54.8078 32.6795 54.6793 32.6263 54.5454 32.6263H54.0403V31.6162C54.0261 31.4065 53.9365 31.2091 53.7879 31.0606C53.6393 30.912 53.4419 30.8223 53.2322 30.8081H44.1413C43.9317 30.8223 43.7343 30.912 43.5857 31.0606C43.4371 31.2091 43.3474 31.4065 43.3333 31.6162V32.6263H42.8282C42.6943 32.6263 42.5658 32.6795 42.4711 32.7742C42.3764 32.8689 42.3232 32.9974 42.3232 33.1313C42.3232 33.2653 42.3764 33.3937 42.4711 33.4885C42.5658 33.5832 42.6943 33.6364 42.8282 33.6364H43.4343V37.3738H0.808008C0.598361 37.3879 0.40096 37.4776 0.252379 37.6262C0.103798 37.7748 0.0141079 37.9722 -7.30033e-05 38.1818C-0.0113063 38.3555 0.0457931 38.5266 0.159032 38.6587C0.272271 38.7909 0.432674 38.8735 0.605988 38.8889C0.605988 38.9899 0.504978 39.0909 0.504978 39.1919V69.495C0.519158 69.7046 0.608848 69.902 0.757429 70.0506C0.906011 70.1992 1.10341 70.2889 1.31306 70.3031C1.5227 70.2889 1.72011 70.1992 1.86869 70.0506C2.01727 69.902 2.10696 69.7046 2.12114 69.495V69.293H20.707V69.495C20.707 69.7093 20.7921 69.9148 20.9437 70.0664C21.0952 70.2179 21.3008 70.3031 21.5151 70.3031C21.7294 70.3031 21.9349 70.2179 22.0865 70.0664C22.238 69.9148 22.3232 69.7093 22.3232 69.495V69.293H36.8686V69.495C36.8686 69.7093 36.9537 69.9148 37.1053 70.0664C37.2568 70.2179 37.4624 70.3031 37.6767 70.3031C37.891 70.3031 38.0965 70.2179 38.2481 70.0664C38.3996 69.9148 38.4848 69.7093 38.4848 69.495V69.293H59.0908V69.495C59.0908 69.7093 59.176 69.9148 59.3275 70.0664C59.4791 70.2179 59.6846 70.3031 59.8989 70.3031C60.1132 70.3031 60.3188 70.2179 60.4703 70.0664C60.6219 69.9148 60.707 69.7093 60.707 69.495V69.293H87.3737V69.495C87.3737 69.7093 87.4588 69.9148 87.6103 70.0664C87.7619 70.2179 87.9674 70.3031 88.1817 70.3031C88.3961 70.3031 88.6016 70.2179 88.7531 70.0664C88.9047 69.9148 88.9898 69.7093 88.9898 69.495V38.8889C89.1364 38.8371 89.2635 38.7415 89.3538 38.615C89.4441 38.4885 89.4934 38.3373 89.4949 38.1818C89.4807 37.9722 89.391 37.7748 89.2424 37.6262C89.0938 37.4776 88.8964 37.3879 88.6868 37.3738ZM36.8686 45.4546H22.3232V38.9899H36.9696V45.4546H36.8686ZM22.3232 47.0707H36.8686V54.5455H22.3232V47.0707ZM38.4848 47.0707H59.0908V62.6263H38.4848V47.0707ZM59.0908 39.1919V45.4546H38.4848V38.9899H59.0908V39.1919ZM45.0504 32.4243H52.5252V37.3738H45.0504V32.4243ZM2.12114 67.6768V38.9899H10.707V67.6768H2.12114ZM12.2221 67.6768V38.9899H20.808V67.6768H12.2221ZM22.3232 67.6768V56.1616H36.8686V67.6768H22.3232ZM38.4848 67.6768V64.2425H59.0908V67.6768H38.4848ZM60.707 39.1919V38.9899H73.3333V67.6768H60.707V39.1919ZM87.1716 67.6768H74.8484V38.9899H87.3737V67.6768H87.1716Z" fill="#555555"/>
<path d="M89.1919 0H58.8889C58.6792 0.0141809 58.4818 0.103871 58.3333 0.252452C58.1847 0.401033 58.095 0.598434 58.0808 0.808081C58.095 1.01773 58.1847 1.21513 58.3333 1.36371C58.4818 1.51229 58.6792 1.60198 58.8889 1.61616H59.0909V26.0606C59.1051 26.2703 59.1948 26.4677 59.3434 26.6162C59.4919 26.7648 59.6893 26.8545 59.899 26.8687H88.1818C88.3915 26.8545 88.5889 26.7648 88.7375 26.6162C88.886 26.4677 88.9757 26.2703 88.9899 26.0606V1.61616H89.1919C89.4016 1.60198 89.599 1.51229 89.7476 1.36371C89.8961 1.21513 89.9858 1.01773 90 0.808081C89.9858 0.598434 89.8961 0.401033 89.7476 0.252452C89.599 0.103871 89.4016 0.0141809 89.1919 0V0ZM60.7071 1.61616H73.3333V25.2525H60.7071V1.61616ZM87.3737 1.81818V25.2525H74.8485V1.61616H87.4748C87.3737 1.71717 87.3737 1.71717 87.3737 1.81818Z" fill="#555555"/>
<path d="M40.707 23.8382H56.8686C57.0829 23.8382 57.2885 23.753 57.44 23.6015C57.5916 23.45 57.6767 23.2444 57.6767 23.0301C57.6767 22.8158 57.5916 22.6102 57.44 22.4587C57.2885 22.3072 57.0829 22.222 56.8686 22.222H56.6666V17.7776L53.6363 6.16141C53.5977 5.97973 53.4946 5.8182 53.346 5.70676C53.1974 5.59532 53.0134 5.54153 52.8282 5.55535H44.7474C44.5622 5.54153 44.3782 5.59532 44.2297 5.70676C44.0811 5.8182 43.9779 5.97973 43.9393 6.16141L40.909 17.7776V22.222H40.707C40.4927 22.222 40.2872 22.3072 40.1356 22.4587C39.9841 22.6102 39.8989 22.8158 39.8989 23.0301C39.8989 23.2444 39.9841 23.45 40.1356 23.6015C40.2872 23.753 40.4927 23.8382 40.707 23.8382ZM45.3535 7.17152H52.2222L54.8484 17.1715H42.7272L45.3535 7.17152ZM42.5252 22.02V18.7877H55.0504V22.222H42.5252V22.02Z" fill="#555555"/>
<path d="M0.605988 1.51515C0.605988 1.61616 0.504978 1.71717 0.504978 1.81818V26.0606C0.519158 26.2703 0.608848 26.4677 0.75743 26.6162C0.906011 26.7648 1.10341 26.8545 1.31306 26.8687H37.6767C37.8863 26.8545 38.0837 26.7648 38.2323 26.6162C38.3809 26.4677 38.4706 26.2703 38.4848 26.0606V1.81818C38.4914 1.76335 38.4857 1.70773 38.4683 1.65533C38.4508 1.60293 38.4219 1.55506 38.3838 1.51515C38.5415 1.46698 38.6822 1.3749 38.7896 1.24969C38.8969 1.12448 38.9663 0.97131 38.9898 0.808081C38.9756 0.598434 38.886 0.401033 38.7374 0.252452C38.5888 0.103871 38.3914 0.0141809 38.1817 0L0.808008 0C0.598361 0.0141809 0.40096 0.103871 0.252379 0.252452C0.103798 0.401033 0.0141079 0.598434 -7.30032e-05 0.808081C-0.0113063 0.981719 0.0457931 1.15287 0.159032 1.28498C0.272271 1.41709 0.432674 1.4997 0.605988 1.51515ZM2.12114 1.61616H10.707V25.2525H2.12114V1.61616ZM20.707 25.2525H12.2222V1.61616H20.808V25.2525H20.707ZM36.8686 25.2525H22.3232V1.61616H36.9696V25.2525H36.8686Z" fill="#555555"/>
<path d="M42.7273 41.212C42.5923 41.2031 42.457 41.2231 42.3304 41.2707C42.2038 41.3183 42.0888 41.3924 41.9932 41.4881C41.8976 41.5837 41.8234 41.6987 41.7758 41.8253C41.7282 41.9519 41.7082 42.0872 41.7172 42.2221C41.7172 42.4219 41.7764 42.6172 41.8874 42.7833C41.9984 42.9494 42.1561 43.0789 42.3407 43.1553C42.5253 43.2318 42.7284 43.2518 42.9243 43.2128C43.1203 43.1739 43.3002 43.0776 43.4415 42.9364C43.5828 42.7951 43.679 42.6151 43.718 42.4192C43.7569 42.2233 43.7369 42.0202 43.6605 41.8356C43.584 41.651 43.4546 41.4933 43.2884 41.3823C43.1223 41.2713 42.927 41.212 42.7273 41.212Z" fill="#555555"/>
<path d="M46.7675 41.212C46.6326 41.2031 46.4973 41.2231 46.3707 41.2707C46.2441 41.3183 46.1291 41.3924 46.0335 41.4881C45.9378 41.5837 45.8637 41.6987 45.8161 41.8253C45.7685 41.9519 45.7485 42.0872 45.7574 42.2221C45.7574 42.4219 45.8167 42.6172 45.9277 42.7833C46.0387 42.9494 46.1964 43.0789 46.381 43.1553C46.5656 43.2318 46.7687 43.2518 46.9646 43.2128C47.1605 43.1739 47.3405 43.0776 47.4818 42.9364C47.6231 42.7951 47.7193 42.6151 47.7582 42.4192C47.7972 42.2233 47.7772 42.0202 47.7008 41.8356C47.6243 41.651 47.4948 41.4933 47.3287 41.3823C47.1626 41.2713 46.9673 41.212 46.7675 41.212Z" fill="#555555"/>
<path d="M50.8081 41.212C50.6731 41.2031 50.5378 41.2231 50.4112 41.2707C50.2846 41.3183 50.1696 41.3924 50.074 41.4881C49.9784 41.5837 49.9043 41.6987 49.8567 41.8253C49.809 41.9519 49.789 42.0872 49.798 42.2221C49.798 42.4219 49.8572 42.6172 49.9682 42.7833C50.0792 42.9494 50.237 43.0789 50.4215 43.1553C50.6061 43.2318 50.8092 43.2518 51.0051 43.2128C51.2011 43.1739 51.3811 43.0776 51.5223 42.9364C51.6636 42.7951 51.7598 42.6151 51.7988 42.4192C51.8377 42.2233 51.8177 42.0202 51.7413 41.8356C51.6648 41.651 51.5354 41.4933 51.3693 41.3823C51.2031 41.2713 51.0079 41.212 50.8081 41.212Z" fill="#555555"/>
<path d="M54.8484 43.2322C55.1162 43.2322 55.3732 43.1258 55.5626 42.9364C55.752 42.747 55.8585 42.49 55.8585 42.2221C55.8585 41.9542 55.752 41.6973 55.5626 41.5079C55.3732 41.3185 55.1162 41.212 54.8484 41.212C54.7134 41.2031 54.5781 41.2231 54.4515 41.2707C54.3249 41.3183 54.2099 41.3924 54.1143 41.4881C54.0186 41.5837 53.9445 41.6987 53.8969 41.8253C53.8493 41.9519 53.8293 42.0872 53.8383 42.2221C53.8383 42.49 53.9447 42.747 54.1341 42.9364C54.3235 43.1258 54.5805 43.2322 54.8484 43.2322Z" fill="#555555"/>
<path d="M14.4443 50.3028C14.3768 50.2983 14.3092 50.3083 14.2459 50.3321C14.1826 50.3559 14.1251 50.393 14.0773 50.4408C14.0295 50.4886 13.9924 50.5461 13.9686 50.6094C13.9448 50.6727 13.9348 50.7404 13.9393 50.8078V55.3533C13.9393 55.4872 13.9925 55.6157 14.0872 55.7104C14.1819 55.8051 14.3104 55.8583 14.4443 55.8583C14.5783 55.8583 14.7067 55.8051 14.8014 55.7104C14.8962 55.6157 14.9494 55.4872 14.9494 55.3533V50.8078C14.9535 50.7455 14.9452 50.6829 14.9251 50.6237C14.905 50.5645 14.8733 50.5099 14.832 50.463C14.7908 50.4161 14.7406 50.3778 14.6845 50.3503C14.6283 50.3228 14.5673 50.3066 14.5049 50.3028H14.4443Z" fill="#555555"/>
<path d="M71.01 50.3028C70.9425 50.2983 70.8749 50.3083 70.8116 50.3321C70.7483 50.3559 70.6908 50.393 70.643 50.4408C70.5951 50.4886 70.5581 50.5461 70.5343 50.6094C70.5105 50.6727 70.5005 50.7404 70.5049 50.8078V55.3533C70.5049 55.4872 70.5582 55.6157 70.6529 55.7104C70.7476 55.8051 70.876 55.8583 71.01 55.8583C71.1439 55.8583 71.2724 55.8051 71.3671 55.7104C71.4618 55.6157 71.515 55.4872 71.515 55.3533V50.8078C71.5192 50.7455 71.5109 50.6829 71.4908 50.6237C71.4706 50.5645 71.439 50.5099 71.3977 50.463C71.3564 50.4161 71.3063 50.3778 71.2501 50.3503C71.194 50.3228 71.133 50.3066 71.0706 50.3028H71.01Z" fill="#555555"/>
<path d="M77.0705 50.3028C77.0031 50.2983 76.9354 50.3083 76.8721 50.3321C76.8088 50.3559 76.7513 50.393 76.7035 50.4408C76.6557 50.4886 76.6186 50.5461 76.5948 50.6094C76.571 50.6727 76.561 50.7404 76.5655 50.8078V55.3533C76.5655 55.4872 76.6187 55.6157 76.7134 55.7104C76.8081 55.8051 76.9366 55.8583 77.0705 55.8583C77.2045 55.8583 77.3329 55.8051 77.4277 55.7104C77.5224 55.6157 77.5756 55.4872 77.5756 55.3533V50.8078C77.5797 50.7455 77.5714 50.6829 77.5513 50.6237C77.5312 50.5645 77.4996 50.5099 77.4583 50.463C77.417 50.4161 77.3668 50.3778 77.3107 50.3503C77.2545 50.3228 77.1935 50.3066 77.1311 50.3028H77.0705Z" fill="#555555"/>
<path d="M31.111 48.7881H28.0807C27.9468 48.7881 27.8183 48.8413 27.7236 48.936C27.6289 49.0307 27.5757 49.1592 27.5757 49.2931C27.5757 49.4271 27.6289 49.5555 27.7236 49.6503C27.8183 49.745 27.9468 49.7982 28.0807 49.7982H31.111C31.245 49.7982 31.3734 49.745 31.4682 49.6503C31.5629 49.5555 31.6161 49.4271 31.6161 49.2931C31.6161 49.1592 31.5629 49.0307 31.4682 48.936C31.3734 48.8413 31.245 48.7881 31.111 48.7881Z" fill="#555555"/>
<path d="M8.38376 19.495C8.45124 19.4995 8.5189 19.4895 8.5822 19.4657C8.64549 19.4419 8.70298 19.4048 8.7508 19.357C8.79862 19.3092 8.83567 19.2517 8.85947 19.1884C8.88327 19.1251 8.89328 19.0574 8.88881 18.99V14.4445C8.88881 14.3106 8.8356 14.1821 8.74089 14.0874C8.64617 13.9927 8.51771 13.9395 8.38376 13.9395C8.24981 13.9395 8.12135 13.9927 8.02664 14.0874C7.93192 14.1821 7.87871 14.3106 7.87871 14.4445V18.99C7.8746 19.0523 7.88285 19.1149 7.90299 19.1741C7.92312 19.2333 7.95474 19.2879 7.99603 19.3348C8.03733 19.3817 8.08748 19.42 8.14362 19.4475C8.19976 19.475 8.26077 19.4912 8.32316 19.495H8.38376Z" fill="#555555"/>
<path d="M14.4443 13.9395C14.3768 13.935 14.3092 13.9451 14.2459 13.9689C14.1826 13.9927 14.1251 14.0297 14.0773 14.0775C14.0295 14.1253 13.9924 14.1828 13.9686 14.2461C13.9448 14.3094 13.9348 14.3771 13.9393 14.4446V18.99C13.9393 19.124 13.9925 19.2524 14.0872 19.3471C14.1819 19.4419 14.3104 19.4951 14.4443 19.4951C14.5783 19.4951 14.7067 19.4419 14.8014 19.3471C14.8962 19.2524 14.9494 19.124 14.9494 18.99V14.4446C14.9535 14.3822 14.9452 14.3196 14.9251 14.2604C14.905 14.2013 14.8733 14.1466 14.832 14.0997C14.7908 14.0528 14.7406 14.0145 14.6845 13.987C14.6283 13.9595 14.5673 13.9434 14.5049 13.9395H14.4443Z" fill="#555555"/>
<path d="M24.5454 13.9395C24.4779 13.935 24.4103 13.9451 24.347 13.9689C24.2837 13.9927 24.2262 14.0297 24.1784 14.0775C24.1305 14.1253 24.0935 14.1828 24.0697 14.2461C24.0459 14.3094 24.0359 14.3771 24.0403 14.4446V18.99C24.0403 19.124 24.0936 19.2524 24.1883 19.3471C24.283 19.4419 24.4114 19.4951 24.5454 19.4951C24.6793 19.4951 24.8078 19.4419 24.9025 19.3471C24.9972 19.2524 25.0504 19.124 25.0504 18.99V14.4446C25.0545 14.3822 25.0463 14.3196 25.0262 14.2604C25.006 14.2013 24.9744 14.1466 24.9331 14.0997C24.8918 14.0528 24.8417 14.0145 24.7855 13.987C24.7294 13.9595 24.6684 13.9434 24.606 13.9395H24.5454Z" fill="#555555"/>
<path d="M71.01 19.495C71.0775 19.4995 71.1451 19.4895 71.2084 19.4657C71.2717 19.4419 71.3292 19.4048 71.377 19.357C71.4248 19.3092 71.4619 19.2517 71.4857 19.1884C71.5095 19.1251 71.5195 19.0574 71.515 18.99V14.4445C71.515 14.3106 71.4618 14.1821 71.3671 14.0874C71.2724 13.9927 71.1439 13.9395 71.01 13.9395C70.876 13.9395 70.7476 13.9927 70.6529 14.0874C70.5581 14.1821 70.5049 14.3106 70.5049 14.4445V18.99C70.5008 19.0523 70.5091 19.1149 70.5292 19.1741C70.5493 19.2333 70.581 19.2879 70.6222 19.3348C70.6635 19.3817 70.7137 19.42 70.7698 19.4475C70.826 19.475 70.887 19.4912 70.9494 19.495H71.01Z" fill="#555555"/>
<path d="M77.0705 19.495C77.138 19.4995 77.2057 19.4895 77.269 19.4657C77.3323 19.4419 77.3897 19.4048 77.4376 19.357C77.4854 19.3092 77.5224 19.2517 77.5462 19.1884C77.57 19.1251 77.58 19.0574 77.5756 18.99V14.4445C77.5756 14.3106 77.5224 14.1821 77.4277 14.0874C77.3329 13.9927 77.2045 13.9395 77.0705 13.9395C76.9366 13.9395 76.8081 13.9927 76.7134 14.0874C76.6187 14.1821 76.5655 14.3106 76.5655 14.4445V18.99C76.5614 19.0523 76.5696 19.1149 76.5897 19.1741C76.6099 19.2333 76.6415 19.2879 76.6828 19.3348C76.7241 19.3817 76.7742 19.42 76.8304 19.4475C76.8865 19.475 76.9475 19.4912 77.0099 19.495H77.0705Z" fill="#555555"/>
<path d="M31.111 40.707H28.0807C27.9468 40.707 27.8183 40.7602 27.7236 40.855C27.6289 40.9497 27.5757 41.0781 27.5757 41.2121C27.5757 41.346 27.6289 41.4745 27.7236 41.5692C27.8183 41.6639 27.9468 41.7171 28.0807 41.7171H31.111C31.245 41.7171 31.3734 41.6639 31.4682 41.5692C31.5629 41.4745 31.6161 41.346 31.6161 41.2121C31.6161 41.0781 31.5629 40.9497 31.4682 40.855C31.3734 40.7602 31.245 40.707 31.111 40.707Z" fill="#555555"/>
</g>
<defs>
<clipPath id="clip0">
<rect width="90" height="70.303" fill="white"/>
</clipPath>
</defs>
</svg>
