<svg width="60" height="60" viewBox="0 0 60 60" fill="none" xmlns="http://www.w3.org/2000/svg">
<path d="M53.4375 9.375H6.5625C5.31973 9.37641 4.12827 9.87073 3.2495 10.7495C2.37073 11.6283 1.87641 12.8197 1.875 14.0625V45.9375C1.87641 47.1803 2.37073 48.3717 3.2495 49.2505C4.12827 50.1293 5.31973 50.6236 6.5625 50.625H53.4375C54.6803 50.6236 55.8717 50.1293 56.7505 49.2505C57.6293 48.3717 58.1236 47.1803 58.125 45.9375V14.0625C58.1236 12.8197 57.6293 11.6283 56.7505 10.7495C55.8717 9.87073 54.6803 9.37641 53.4375 9.375ZM53.4375 48.75H6.5625C5.81684 48.7491 5.10197 48.4526 4.5747 47.9253C4.04744 47.398 3.75085 46.6832 3.75 45.9375V44.9974C4.56022 45.6085 5.54768 45.9385 6.5625 45.9375H10.3125V44.0625H6.5625C5.81684 44.0617 5.10196 43.7651 4.57469 43.2378C4.04743 42.7105 3.75084 41.9957 3.75 41.25V40.3099C4.56022 40.921 5.54768 41.251 6.5625 41.25H53.4375C54.4523 41.251 55.4398 40.921 56.25 40.3099V41.25C56.2491 41.9957 55.9526 42.7105 55.4253 43.2378C54.898 43.7651 54.1832 44.0616 53.4375 44.0625H38.4375V45.9375H53.4375C54.4523 45.9385 55.4398 45.6085 56.25 44.9974V45.9375C56.2491 46.6832 55.9526 47.398 55.4253 47.9253C54.898 48.4526 54.1832 48.7491 53.4375 48.75ZM56.25 36.5625C56.2491 37.3082 55.9526 38.023 55.4253 38.5503C54.898 39.0776 54.1832 39.3741 53.4375 39.375H6.5625C5.81684 39.3741 5.10197 39.0776 4.5747 38.5503C4.04744 38.023 3.75085 37.3082 3.75 36.5625V14.0625C3.75085 13.3168 4.04744 12.602 4.5747 12.0747C5.10197 11.5474 5.81684 11.2509 6.5625 11.25H53.4375C54.1832 11.2509 54.898 11.5474 55.4253 12.0747C55.9526 12.602 56.2491 13.3168 56.25 14.0625V36.5625Z" fill="#4B4B4B"/>
<path d="M12.1875 44.0625H14.0625V45.9375H12.1875V44.0625Z" fill="#4B4B4B"/>
<path d="M34.6875 44.0625H36.5625V45.9375H34.6875V44.0625Z" fill="#4B4B4B"/>
<path d="M12.1875 15.9375V14.0625H10.3125V15.9375C10.3122 16.1861 10.2134 16.4243 10.0376 16.6001C9.86184 16.7759 9.62355 16.8747 9.375 16.875H7.5V18.75H9.375C9.62355 18.7503 9.86184 18.8491 10.0376 19.0249C10.2134 19.2007 10.3122 19.4389 10.3125 19.6875V23.4375C10.3122 23.6861 10.2134 23.9243 10.0376 24.1001C9.86184 24.2759 9.62355 24.3747 9.375 24.375H7.5V26.25H9.375C9.62355 26.2503 9.86184 26.3491 10.0376 26.5249C10.2134 26.7007 10.3122 26.9389 10.3125 27.1875V30.9375C10.3122 31.1861 10.2134 31.4243 10.0376 31.6001C9.86184 31.7759 9.62355 31.8747 9.375 31.875H7.5V33.75H9.375C9.62355 33.7503 9.86184 33.8491 10.0376 34.0249C10.2134 34.2007 10.3122 34.4389 10.3125 34.6875V36.5625H12.1875V34.6875C12.1878 34.4389 12.2866 34.2007 12.4624 34.0249C12.6382 33.8491 12.8764 33.7503 13.125 33.75H15V31.875H13.125C12.8764 31.8747 12.6382 31.7759 12.4624 31.6001C12.2866 31.4243 12.1878 31.1861 12.1875 30.9375V27.1875C12.1878 26.9389 12.2866 26.7007 12.4624 26.5249C12.6382 26.3491 12.8764 26.2503 13.125 26.25H15V24.375H13.125C12.8764 24.3747 12.6382 24.2759 12.4624 24.1001C12.2866 23.9243 12.1878 23.6861 12.1875 23.4375V19.6875C12.1878 19.4389 12.2866 19.2007 12.4624 19.0249C12.6382 18.8491 12.8764 18.7503 13.125 18.75H15V16.875H13.125C12.8764 16.8747 12.6382 16.7759 12.4624 16.6001C12.2866 16.4243 12.1878 16.1861 12.1875 15.9375V15.9375Z" fill="#4B4B4B"/>
<path d="M21.5625 15.9375V14.0625H19.6875V15.9375C19.6872 16.1861 19.5884 16.4243 19.4126 16.6001C19.2368 16.7759 18.9986 16.8747 18.75 16.875H16.875V18.75H18.75C18.9986 18.7503 19.2368 18.8491 19.4126 19.0249C19.5884 19.2007 19.6872 19.4389 19.6875 19.6875V23.4375C19.6872 23.6861 19.5884 23.9243 19.4126 24.1001C19.2368 24.2759 18.9986 24.3747 18.75 24.375H16.875V26.25H18.75C18.9986 26.2503 19.2368 26.3491 19.4126 26.5249C19.5884 26.7007 19.6872 26.9389 19.6875 27.1875V30.9375C19.6872 31.1861 19.5884 31.4243 19.4126 31.6001C19.2368 31.7759 18.9986 31.8747 18.75 31.875H16.875V33.75H18.75C18.9986 33.7503 19.2368 33.8491 19.4126 34.0249C19.5884 34.2007 19.6872 34.4389 19.6875 34.6875V36.5625H21.5625V34.6875C21.5628 34.4389 21.6616 34.2007 21.8374 34.0249C22.0132 33.8491 22.2514 33.7503 22.5 33.75H24.375V31.875H22.5C22.2514 31.8747 22.0132 31.7759 21.8374 31.6001C21.6616 31.4243 21.5628 31.1861 21.5625 30.9375V27.1875C21.5628 26.9389 21.6616 26.7007 21.8374 26.5249C22.0132 26.3491 22.2514 26.2503 22.5 26.25H24.375V24.375H22.5C22.2514 24.3747 22.0132 24.2759 21.8374 24.1001C21.6616 23.9243 21.5628 23.6861 21.5625 23.4375V19.6875C21.5628 19.4389 21.6616 19.2007 21.8374 19.0249C22.0132 18.8491 22.2514 18.7503 22.5 18.75H24.375V16.875H22.5C22.2514 16.8747 22.0132 16.7759 21.8374 16.6001C21.6616 16.4243 21.5628 16.1861 21.5625 15.9375V15.9375Z" fill="#4B4B4B"/>
<path d="M30.9375 15.9375V14.0625H29.0625V15.9375C29.0622 16.1861 28.9634 16.4243 28.7876 16.6001C28.6118 16.7759 28.3736 16.8747 28.125 16.875H26.25V18.75H28.125C28.3736 18.7503 28.6118 18.8491 28.7876 19.0249C28.9634 19.2007 29.0622 19.4389 29.0625 19.6875V23.4375C29.0622 23.6861 28.9634 23.9243 28.7876 24.1001C28.6118 24.2759 28.3736 24.3747 28.125 24.375H26.25V26.25H28.125C28.3736 26.2503 28.6118 26.3491 28.7876 26.5249C28.9634 26.7007 29.0622 26.9389 29.0625 27.1875V30.9375C29.0622 31.1861 28.9634 31.4243 28.7876 31.6001C28.6118 31.7759 28.3736 31.8747 28.125 31.875H26.25V33.75H28.125C28.3736 33.7503 28.6118 33.8491 28.7876 34.0249C28.9634 34.2007 29.0622 34.4389 29.0625 34.6875V36.5625H30.9375V34.6875C30.9378 34.4389 31.0366 34.2007 31.2124 34.0249C31.3882 33.8491 31.6264 33.7503 31.875 33.75H33.75V31.875H31.875C31.6264 31.8747 31.3882 31.7759 31.2124 31.6001C31.0366 31.4243 30.9378 31.1861 30.9375 30.9375V27.1875C30.9378 26.9389 31.0366 26.7007 31.2124 26.5249C31.3882 26.3491 31.6264 26.2503 31.875 26.25H33.75V24.375H31.875C31.6264 24.3747 31.3882 24.2759 31.2124 24.1001C31.0366 23.9243 30.9378 23.6861 30.9375 23.4375V19.6875C30.9378 19.4389 31.0366 19.2007 31.2124 19.0249C31.3882 18.8491 31.6264 18.7503 31.875 18.75H33.75V16.875H31.875C31.6264 16.8747 31.3882 16.7759 31.2124 16.6001C31.0366 16.4243 30.9378 16.1861 30.9375 15.9375V15.9375Z" fill="#4B4B4B"/>
<path d="M40.3125 15.9375V14.0625H38.4375V15.9375C38.4372 16.1861 38.3384 16.4243 38.1626 16.6001C37.9868 16.7759 37.7486 16.8747 37.5 16.875H35.625V18.75H37.5C37.7486 18.7503 37.9868 18.8491 38.1626 19.0249C38.3384 19.2007 38.4372 19.4389 38.4375 19.6875V23.4375C38.4372 23.6861 38.3384 23.9243 38.1626 24.1001C37.9868 24.2759 37.7486 24.3747 37.5 24.375H35.625V26.25H37.5C37.7486 26.2503 37.9868 26.3491 38.1626 26.5249C38.3384 26.7007 38.4372 26.9389 38.4375 27.1875V30.9375C38.4372 31.1861 38.3384 31.4243 38.1626 31.6001C37.9868 31.7759 37.7486 31.8747 37.5 31.875H35.625V33.75H37.5C37.7486 33.7503 37.9868 33.8491 38.1626 34.0249C38.3384 34.2007 38.4372 34.4389 38.4375 34.6875V36.5625H40.3125V34.6875C40.3128 34.4389 40.4116 34.2007 40.5874 34.0249C40.7632 33.8491 41.0014 33.7503 41.25 33.75H43.125V31.875H41.25C41.0014 31.8747 40.7632 31.7759 40.5874 31.6001C40.4116 31.4243 40.3128 31.1861 40.3125 30.9375V27.1875C40.3128 26.9389 40.4116 26.7007 40.5874 26.5249C40.7632 26.3491 41.0014 26.2503 41.25 26.25H43.125V24.375H41.25C41.0014 24.3747 40.7632 24.2759 40.5874 24.1001C40.4116 23.9243 40.3128 23.6861 40.3125 23.4375V19.6875C40.3128 19.4389 40.4116 19.2007 40.5874 19.0249C40.7632 18.8491 41.0014 18.7503 41.25 18.75H43.125V16.875H41.25C41.0014 16.8747 40.7632 16.7759 40.5874 16.6001C40.4116 16.4243 40.3128 16.1861 40.3125 15.9375V15.9375Z" fill="#4B4B4B"/>
<path d="M49.6875 15.9375V14.0625H47.8125V15.9375C47.8122 16.1861 47.7134 16.4243 47.5376 16.6001C47.3618 16.7759 47.1236 16.8747 46.875 16.875H45V18.75H46.875C47.1236 18.7503 47.3618 18.8491 47.5376 19.0249C47.7134 19.2007 47.8122 19.4389 47.8125 19.6875V23.4375C47.8122 23.6861 47.7134 23.9243 47.5376 24.1001C47.3618 24.2759 47.1236 24.3747 46.875 24.375H45V26.25H46.875C47.1236 26.2503 47.3618 26.3491 47.5376 26.5249C47.7134 26.7007 47.8122 26.9389 47.8125 27.1875V30.9375C47.8122 31.1861 47.7134 31.4243 47.5376 31.6001C47.3618 31.7759 47.1236 31.8747 46.875 31.875H45V33.75H46.875C47.1236 33.7503 47.3618 33.8491 47.5376 34.0249C47.7134 34.2007 47.8122 34.4389 47.8125 34.6875V36.5625H49.6875V34.6875C49.6878 34.4389 49.7866 34.2007 49.9624 34.0249C50.1382 33.8491 50.3764 33.7503 50.625 33.75H52.5V31.875H50.625C50.3764 31.8747 50.1382 31.7759 49.9624 31.6001C49.7866 31.4243 49.6878 31.1861 49.6875 30.9375V27.1875C49.6878 26.9389 49.7866 26.7007 49.9624 26.5249C50.1382 26.3491 50.3764 26.2503 50.625 26.25H52.5V24.375H50.625C50.3764 24.3747 50.1382 24.2759 49.9624 24.1001C49.7866 23.9243 49.6878 23.6861 49.6875 23.4375V19.6875C49.6878 19.4389 49.7866 19.2007 49.9624 19.0249C50.1382 18.8491 50.3764 18.7503 50.625 18.75H52.5V16.875H50.625C50.3764 16.8747 50.1382 16.7759 49.9624 16.6001C49.7866 16.4243 49.6878 16.1861 49.6875 15.9375V15.9375Z" fill="#4B4B4B"/>
</svg>
