<svg width="60" height="60" viewBox="0 0 60 60" fill="none" xmlns="http://www.w3.org/2000/svg">
<path d="M59.5272 20.7683C59.1834 20.3902 58.6927 20.1732 58.1818 20.1732H56.9317C56.6945 20.1732 56.4638 20.2048 56.2427 20.2615V15.4156C56.2427 13.3772 54.5842 11.7188 52.5454 11.7188H32.818C31.6901 11.7188 30.6789 12.2273 30 13.0266C29.3216 12.2273 28.3104 11.7188 27.1821 11.7188H7.45473C5.41585 11.7188 3.75737 13.3772 3.75737 15.4156V20.2615C3.53673 20.2048 3.30556 20.1732 3.06844 20.1732H1.81828C1.30742 20.1732 0.816698 20.3902 0.472917 20.7683C0.129137 21.1464 -0.0402357 21.6554 0.00828728 22.164L1.62694 39.1621C1.76244 40.5853 2.94301 41.6583 4.37215 41.6583H4.56258L3.76653 47.2311C3.73036 47.4834 3.80544 47.7388 3.97252 47.9311C4.1396 48.1233 4.38176 48.2341 4.63628 48.2341H6.5154C6.86696 48.2341 7.18465 48.0244 7.32289 47.7013L9.91292 41.6583H11.2121C11.6973 41.6583 12.091 41.2651 12.091 40.7794C12.091 40.2942 11.6973 39.9005 11.2121 39.9005H4.37215C3.85396 39.9005 3.42595 39.5114 3.37697 38.9955L1.75786 21.9974C1.7574 21.9901 1.75557 21.9708 1.77342 21.9507C1.79173 21.931 1.81096 21.931 1.81828 21.931H3.06844C3.55184 21.931 3.96565 22.2766 4.05217 22.7522L5.63649 31.4648V32.325C5.63649 33.8457 6.87337 35.0826 8.39406 35.0826H28.1214C28.8469 35.0826 29.5075 34.8006 30 34.341C30.4931 34.8006 31.1536 35.0826 31.8787 35.0826H51.606C53.1267 35.0826 54.3636 33.8457 54.3636 32.325V31.4648L55.9479 22.7522C56.0344 22.2762 56.4483 21.931 56.9317 21.931H58.1818C58.1891 21.931 58.2084 21.931 58.2267 21.9507C58.2445 21.9708 58.2427 21.9901 58.2422 21.9974L56.6231 38.9955C56.5741 39.5114 56.1461 39.9005 55.6279 39.9005H14.9698C14.4846 39.9005 14.0909 40.2942 14.0909 40.7794C14.0909 41.2651 14.4846 41.6583 14.9698 41.6583H50.0872L52.6772 47.7013C52.8154 48.0244 53.1336 48.2341 53.4852 48.2341H55.3638C55.6183 48.2341 55.8605 48.1233 56.0276 47.9311C56.1947 47.7388 56.2697 47.4834 56.234 47.2311L55.438 41.6583H55.6279C57.0571 41.6583 58.2377 40.5853 58.3732 39.1621L59.9918 22.164C60.0403 21.655 59.871 21.1464 59.5272 20.7683ZM5.93587 46.4763H5.64977L6.33824 41.6583H8.00038L5.93587 46.4763ZM7.45473 13.4766H27.1821C28.2514 13.4766 29.1211 14.3468 29.1211 15.4156V25.7492C29.1211 26.3004 28.6725 26.749 28.1214 26.749H8.39406C7.74449 26.749 7.14711 26.9751 6.67516 27.3523L5.7816 22.4377C5.73125 22.1613 5.63878 21.9022 5.51518 21.6632V15.4156C5.51518 14.3463 6.38539 13.4766 7.45473 13.4766ZM28.1214 33.3247H8.39406C7.84245 33.3247 7.3943 32.8761 7.3943 32.325V29.507C7.3943 28.9554 7.84291 28.5068 8.39406 28.5068H28.1214C28.6725 28.5068 29.1211 28.9554 29.1211 29.507V32.325C29.1211 32.8761 28.6725 33.3247 28.1214 33.3247ZM52.6062 32.325C52.6062 32.8761 52.1576 33.3247 51.606 33.3247H31.8787C31.3276 33.3247 30.879 32.8761 30.879 32.325V29.5065C30.879 28.9554 31.3276 28.5068 31.8787 28.5068H46.9089C47.3941 28.5068 47.7878 28.1136 47.7878 27.6279C47.7878 27.1426 47.3941 26.749 46.9089 26.749H31.8787C31.3276 26.749 30.879 26.3004 30.879 25.7492V15.4161C30.879 14.3468 31.7487 13.4766 32.818 13.4766H52.5454C53.6147 13.4766 54.4845 14.3468 54.4845 15.4161V21.6632C54.3609 21.9022 54.2684 22.1613 54.2185 22.4377L53.3249 27.3528C52.853 26.9756 52.2556 26.749 51.606 26.749H50.6672C50.1815 26.749 49.7883 27.1426 49.7883 27.6279C49.7883 28.1136 50.1815 28.5068 50.6672 28.5068H51.606C52.1576 28.5068 52.6058 28.9554 52.6058 29.5065V32.325H52.6062ZM54.3503 46.4763H54.0642L51.9997 41.6583H53.6618L54.3503 46.4763Z" fill="#4B4B4B"/>
<path d="M13.1003 20.0524C13.5855 20.0524 13.9792 19.6587 13.9792 19.1735C13.9792 18.6882 13.5855 18.2946 13.1003 18.2946H13.0907C12.6054 18.2946 12.2168 18.6882 12.2168 19.1735C12.2168 19.6587 12.6151 20.0524 13.1003 20.0524Z" fill="#F7D917"/>
<path d="M46.9093 18.2946H46.8997C46.414 18.2946 46.0254 18.6882 46.0254 19.1735C46.0254 19.6587 46.4236 20.0524 46.9093 20.0524C47.3946 20.0524 47.7882 19.6587 47.7882 19.1735C47.7882 18.6882 47.3946 18.2946 46.9093 18.2946Z" fill="#F7D917"/>
<path d="M21.5547 20.0524C22.0404 20.0524 22.4337 19.6587 22.4337 19.1735C22.4337 18.6882 22.0404 18.2946 21.5547 18.2946H21.5456C21.0599 18.2946 20.6713 18.6882 20.6713 19.1735C20.6713 19.6587 21.0695 20.0524 21.5547 20.0524Z" fill="#F7D917"/>
<path d="M38.464 18.2946H38.4544C37.9692 18.2946 37.5801 18.6882 37.5801 19.1735C37.5801 19.6587 37.9783 20.0524 38.464 20.0524C38.9492 20.0524 39.3429 19.6587 39.3429 19.1735C39.3429 18.6882 38.9492 18.2946 38.464 18.2946Z" fill="#F7D917"/>
</svg>
