<svg width="15" height="15" viewBox="0 0 15 15" fill="none" xmlns="http://www.w3.org/2000/svg">
<path d="M11.8422 11.8421C12.261 11.8421 12.6626 12.0085 12.9587 12.3046C13.2548 12.6007 13.4212 13.0023 13.4212 13.4211C13.4212 13.8398 13.2548 14.2414 12.9587 14.5375C12.6626 14.8336 12.261 15 11.8422 15C11.4235 15 11.0218 14.8336 10.7257 14.5375C10.4296 14.2414 10.2633 13.8398 10.2633 13.4211C10.2633 13.0023 10.4296 12.6007 10.7257 12.3046C11.0218 12.0085 11.4235 11.8421 11.8422 11.8421ZM11.8422 12.6316C11.6328 12.6316 11.432 12.7148 11.284 12.8628C11.1359 13.0109 11.0527 13.2117 11.0527 13.4211C11.0527 13.6304 11.1359 13.8312 11.284 13.9793C11.432 14.1273 11.6328 14.2105 11.8422 14.2105C12.0516 14.2105 12.2524 14.1273 12.4005 13.9793C12.5485 13.8312 12.6317 13.6304 12.6317 13.4211C12.6317 13.2117 12.5485 13.0109 12.4005 12.8628C12.2524 12.7148 12.0516 12.6316 11.8422 12.6316ZM4.73689 11.8421C5.15566 11.8421 5.55727 12.0085 5.85338 12.3046C6.1495 12.6007 6.31585 13.0023 6.31585 13.4211C6.31585 13.8398 6.1495 14.2414 5.85338 14.5375C5.55727 14.8336 5.15566 15 4.73689 15C4.31812 15 3.91651 14.8336 3.62039 14.5375C3.32428 14.2414 3.15793 13.8398 3.15793 13.4211C3.15793 13.0023 3.32428 12.6007 3.62039 12.3046C3.91651 12.0085 4.31812 11.8421 4.73689 11.8421ZM4.73689 12.6316C4.52751 12.6316 4.3267 12.7148 4.17864 12.8628C4.03058 13.0109 3.94741 13.2117 3.94741 13.4211C3.94741 13.6304 4.03058 13.8312 4.17864 13.9793C4.3267 14.1273 4.52751 14.2105 4.73689 14.2105C4.94627 14.2105 5.14708 14.1273 5.29514 13.9793C5.44319 13.8312 5.52637 13.6304 5.52637 13.4211C5.52637 13.2117 5.44319 13.0109 5.29514 12.8628C5.14708 12.7148 4.94627 12.6316 4.73689 12.6316ZM13.4212 2.36842H2.58397L4.59478 7.10526H11.0527C11.1755 7.10545 11.2966 7.07683 11.4063 7.02171C11.516 6.96659 11.6112 6.88651 11.6843 6.78789L14.0528 3.63H14.0536C14.1411 3.51265 14.1943 3.37326 14.2072 3.22742C14.2201 3.08157 14.1922 2.93502 14.1266 2.80412C14.061 2.67323 13.9602 2.56317 13.8357 2.48622C13.7111 2.40928 13.5676 2.36849 13.4212 2.36842ZM11.0527 7.89474H4.6311L4.02636 9.12632L3.94741 9.47368C3.94741 9.68307 4.03058 9.88387 4.17864 10.0319C4.3267 10.18 4.52751 10.2632 4.73689 10.2632H13.4212V11.0526H4.73689C4.46197 11.0528 4.19177 10.9811 3.95304 10.8448C3.71431 10.7084 3.51532 10.5121 3.37575 10.2752C3.23618 10.0384 3.16088 9.76918 3.15729 9.49429C3.15371 9.21939 3.22196 8.94832 3.3553 8.70789L3.92372 7.54421L1.05633 0.789474H0V0H1.57896L2.24923 1.57895H13.4212C13.7195 1.57898 14.0117 1.66352 14.264 1.82278C14.5162 1.98204 14.7182 2.20951 14.8465 2.47883C14.9748 2.74816 15.0242 3.04832 14.9889 3.34455C14.9537 3.64078 14.8352 3.92096 14.6472 4.15263L12.3467 7.22053C12.2012 7.42879 12.0076 7.59885 11.7824 7.71624C11.5571 7.83362 11.3068 7.89486 11.0527 7.89474Z" fill="#4B4B4B"/>
</svg>
