<svg width="300" height="68" viewBox="0 0 300 68" fill="none" xmlns="http://www.w3.org/2000/svg">
<path d="M120.38 16.0759V46.2202H129.05V16.0759H144.8V8.62038H104.633V16.0759H120.38Z" fill="#363630"/>
<path d="M91.6194 36.8374C88.5099 39.4064 84.7285 40.7097 80.3791 40.7097C76.0796 40.7097 72.363 39.4191 69.334 36.8715C66.266 34.2928 64.6524 31.1172 64.5399 27.4194C64.4551 23.734 66.0095 20.5395 69.1611 17.924C72.2549 15.3533 76.0301 14.0517 80.3791 14.0517C84.7053 14.0517 88.4355 15.3489 91.468 17.91C94.5359 20.5009 96.1338 23.6876 96.2188 27.3744C96.3312 31.0367 94.7828 34.2189 91.6194 36.8374ZM92.5301 10.15C88.8464 8.34558 84.7579 7.43301 80.3791 7.43301C75.999 7.43301 71.8908 8.34209 68.1668 10.1347C64.4581 11.9181 61.4908 14.3743 59.3476 17.4392C57.2276 20.473 56.2026 23.8141 56.3014 27.3761C56.4525 32.9453 58.7857 37.7065 63.2335 41.5281C67.7143 45.3755 73.4838 47.327 80.3791 47.327C83.0134 47.327 85.666 46.8837 88.2657 46.0101C90.8566 45.1375 93.0597 43.9703 94.8151 42.5409L96.2188 41.3969V46.2216H104.497V27.3993C104.497 23.8298 103.419 20.4791 101.294 17.4392C99.1493 14.376 96.2034 11.9243 92.5301 10.15Z" fill="#363630"/>
<path d="M179.28 27.9009C179.28 30.2489 178.638 32.5821 177.292 34.5055C174.45 38.5666 170.638 40.6305 166.03 40.6305C161.421 40.6305 157.609 38.5666 154.767 34.5055C153.422 32.5821 152.78 30.2489 152.78 27.9009V8.61995H144.342V25.7393C144.342 29.6887 145.24 33.3541 147.007 36.6365C148.767 39.9067 151.262 42.5295 154.419 44.429C157.573 46.3249 161.143 47.2882 165.021 47.2882C169.935 47.2882 174.271 45.7984 177.918 42.8538L179.32 41.7251V47.3976C179.32 51.1868 178.145 54.3812 175.831 56.8929C173.496 59.4234 170.18 60.708 165.969 60.708C162.775 60.708 160.058 59.9438 157.89 58.4387C155.943 57.0859 154.521 55.2859 153.655 53.0796L145.934 55.3848C147.387 58.7828 149.789 61.5929 153.082 63.7527C156.664 66.0981 160.999 67.2868 165.969 67.2868C172.427 67.2868 177.69 65.3664 181.616 61.5789C185.533 57.801 187.519 53.0284 187.519 47.3976C187.519 42.8924 187.523 36.3367 187.538 27.7342C187.549 19.6466 187.557 13.2486 187.558 8.61995H179.28V27.9009Z" fill="#363630"/>
<path d="M225.923 36.851C222.894 39.4107 219.162 40.7106 214.836 40.7106C210.485 40.7106 206.71 39.4078 203.616 36.8369C200.467 34.2197 198.912 31.0258 198.998 27.3354C199.11 23.6438 200.721 20.4682 203.789 17.8882C206.821 15.3419 210.538 14.0499 214.836 14.0499C219.186 14.0499 222.968 15.3547 226.075 17.9236C229.239 20.5404 230.788 23.7256 230.675 27.38C230.591 31.0734 228.993 34.26 225.923 36.851ZM227.074 10.1159C223.334 8.33553 219.216 7.4326 214.836 7.4326C210.458 7.4326 206.368 8.33553 202.682 10.1128C199.014 11.8836 196.074 14.3415 193.945 17.4155C191.831 20.4695 190.76 23.8137 190.76 27.3603C190.76 48.1787 190.747 61.3285 190.723 66.4946H198.958V41.3189L200.362 42.4629C202.12 43.8946 204.331 45.0753 206.937 45.9725C209.547 46.871 212.207 47.328 214.836 47.328C221.759 47.328 227.54 45.3765 232.02 41.5291C236.47 37.7078 238.803 32.934 238.953 27.3416C239.03 23.8044 237.995 20.4664 235.885 17.4155C233.756 14.3431 230.79 11.8853 227.074 10.1159Z" fill="#363630"/>
<path d="M276.854 36.8374C273.744 39.4064 269.963 40.7097 265.613 40.7097C261.314 40.7097 257.597 39.4191 254.568 36.8715C251.5 34.2928 249.888 31.1172 249.774 27.4194C249.689 23.734 251.244 20.5395 254.394 17.924C257.489 15.3533 261.263 14.0517 265.613 14.0517C269.94 14.0517 273.67 15.3489 276.702 17.91C279.77 20.5009 281.368 23.6876 281.453 27.3744C281.565 31.0367 280.017 34.2189 276.854 36.8374ZM277.764 10.15C274.081 8.34558 269.992 7.43301 265.613 7.43301C261.233 7.43301 257.125 8.34209 253.401 10.1347C249.692 11.9181 246.725 14.3743 244.582 17.4392C242.461 20.473 241.437 23.8141 241.536 27.3761C241.686 32.9453 244.02 37.7065 248.468 41.5281C252.949 45.3755 258.718 47.327 265.613 47.327C268.248 47.327 270.9 46.8837 273.5 46.0101C276.091 45.1375 278.294 43.9703 280.049 42.5409L281.453 41.3969V46.2216H289.732V27.3993C289.732 23.8298 288.652 20.4791 286.528 17.4392C284.384 14.376 281.438 11.9243 277.764 10.15Z" fill="#363630"/>
<path d="M295.167 4.40316H294.994V3.33001H295.196C295.528 3.33001 296.01 3.34399 296.01 3.86092C296.01 4.39225 295.423 4.40316 295.167 4.40316ZM297.429 6.80678L296.051 5.03905C296.694 4.9078 297.108 4.41672 297.108 3.82236C297.108 3.16327 296.598 2.47792 295.477 2.47792H293.977V6.80678H294.994V5.20758L296.24 6.80678H297.429Z" fill="#363630"/>
<path d="M43.079 8.61995H51.6867V46.2181L8.60742 46.2198V8.61995H17.224V37.6028H25.8393V8.61995H34.4532V37.6028L43.079 37.6045V8.61995Z" fill="#363630"/>
<path d="M34.4719 37.5998H43.0793V0.00163547L0 -6.10352e-05V37.5998H8.61694V8.61688H17.2322V37.5998H25.8457L25.8474 8.61688L34.4719 8.61518V37.5998Z" fill="#F7D917"/>
<path d="M295.357 -6.10352e-05C292.793 -6.10352e-05 290.715 2.07836 290.715 4.64256C290.715 7.20549 292.793 9.28518 295.357 9.28518C297.922 9.28518 300 7.20549 300 4.64256C300 2.07836 297.922 -6.10352e-05 295.357 -6.10352e-05ZM295.357 8.39284C293.287 8.39284 291.607 6.71314 291.607 4.64256C291.607 2.57198 293.287 0.89228 295.357 0.89228C297.428 0.89228 299.108 2.57198 299.108 4.64256C299.108 6.71314 297.428 8.39284 295.357 8.39284Z" fill="#363630"/>
</svg>
