<svg width="56" height="19" viewBox="0 0 56 19" fill="none" xmlns="http://www.w3.org/2000/svg">
<path d="M24.5446 17.9202H20.104L22.8793 0.864095H27.3203L24.5446 17.9202ZM16.3683 0.864095L12.1348 12.5954L11.6339 10.0692L11.6343 10.0701L10.1401 2.3998C10.1401 2.3998 9.95947 0.864095 8.03368 0.864095H1.03494L0.95282 1.15289C0.95282 1.15289 3.09304 1.59819 5.59781 3.10241L9.45578 17.9207H14.0825L21.1474 0.864095H16.3683ZM51.2958 17.9202H55.3732L51.8182 0.863639H48.2486C46.6002 0.863639 46.1987 2.13473 46.1987 2.13473L39.5759 17.9202H44.2049L45.1306 15.3867H50.7757L51.2958 17.9202ZM46.4095 11.8869L48.7427 5.50406L50.0553 11.8869H46.4095ZM39.9231 4.9657L40.5568 1.303C40.5568 1.303 38.6013 0.559326 36.5629 0.559326C34.3592 0.559326 29.1261 1.52245 29.1261 6.20576C29.1261 10.6121 35.2681 10.6669 35.2681 12.9814C35.2681 15.2959 29.7589 14.8812 27.9408 13.4217L27.2806 17.2514C27.2806 17.2514 29.2635 18.2145 32.2929 18.2145C35.3233 18.2145 39.8948 16.6455 39.8948 12.375C39.8948 7.94039 33.6977 7.52749 33.6977 5.59942C33.6981 3.67089 38.0228 3.91863 39.9231 4.9657Z" fill="#2566AF"/>
<path d="M11.6343 10.0698L10.1401 2.39947C10.1401 2.39947 9.95947 0.86377 8.03368 0.86377H1.03494L0.95282 1.15257C0.95282 1.15257 4.31668 1.8497 7.54322 4.46168C10.6283 6.95823 11.6343 10.0698 11.6343 10.0698Z" fill="#E6A540"/>
</svg>
