<svg width="300" height="68" viewBox="0 0 300 68" fill="none" xmlns="http://www.w3.org/2000/svg">
<g clip-path="url(#clip0)">
<path d="M120.379 16.0759V46.2202H129.05V16.0759H144.8V8.62038H104.632V16.0759H120.379Z" fill="#363630"/>
<path d="M91.62 36.8374C88.5105 39.4064 84.7292 40.7097 80.3798 40.7097C76.0803 40.7097 72.3637 39.4191 69.3347 36.8715C66.2667 34.2928 64.6531 31.1172 64.5406 27.4194C64.4557 23.734 66.0102 20.5395 69.1618 17.924C72.2555 15.3533 76.0308 14.0517 80.3798 14.0517C84.706 14.0517 88.4361 15.3489 91.4687 17.9101C94.5365 20.501 96.1345 23.6876 96.2194 27.3744C96.3318 31.0367 94.7835 34.2189 91.62 36.8374ZM92.5308 10.15C88.847 8.34559 84.7585 7.43302 80.3798 7.43302C75.9997 7.43302 71.8914 8.3421 68.1674 10.1347C64.4588 11.9181 61.4914 14.3743 59.3483 17.4392C57.2282 20.473 56.2033 23.8141 56.3021 27.3761C56.4532 32.9453 58.7863 37.7065 63.2341 41.5281C67.7149 45.3755 73.4845 47.327 80.3798 47.327C83.014 47.327 85.6667 46.8837 88.2663 46.0101C90.8572 45.1375 93.0603 43.9703 94.8158 42.5409L96.2194 41.3969V46.2216H104.498V27.3993C104.498 23.8299 103.42 20.4791 101.294 17.4392C99.1499 14.376 96.2041 11.9243 92.5308 10.15Z" fill="#363630"/>
<path d="M179.279 27.9009C179.279 30.2489 178.637 32.5821 177.291 34.5055C174.449 38.5666 170.637 40.6305 166.029 40.6305C161.42 40.6305 157.608 38.5666 154.766 34.5055C153.421 32.5821 152.779 30.2489 152.779 27.9009V8.61995H144.341V25.7393C144.341 29.6887 145.239 33.3541 147.006 36.6365C148.766 39.9067 151.261 42.5295 154.418 44.429C157.573 46.3249 161.142 47.2882 165.021 47.2882C169.934 47.2882 174.27 45.7984 177.917 42.8538L179.319 41.7251V47.3976C179.319 51.1868 178.144 54.3812 175.83 56.8929C173.495 59.4234 170.179 60.708 165.968 60.708C162.774 60.708 160.057 59.9438 157.889 58.4387C155.942 57.0859 154.52 55.2859 153.654 53.0796L145.933 55.3848C147.386 58.7828 149.788 61.5929 153.081 63.7527C156.663 66.0981 160.999 67.2868 165.968 67.2868C172.426 67.2868 177.689 65.3664 181.615 61.5789C185.532 57.801 187.518 53.0284 187.518 47.3976C187.518 42.8924 187.522 36.3367 187.537 27.7342C187.548 19.6466 187.556 13.2486 187.558 8.61995H179.279V27.9009Z" fill="#363630"/>
<path d="M225.924 36.851C222.894 39.4107 219.163 40.7106 214.837 40.7106C210.486 40.7106 206.711 39.4078 203.616 36.8369C200.467 34.2197 198.912 31.0258 198.999 27.3354C199.11 23.6438 200.722 20.4682 203.79 17.8882C206.822 15.3419 210.538 14.0499 214.837 14.0499C219.186 14.0499 222.969 15.3547 226.075 17.9236C229.24 20.5404 230.789 23.7256 230.676 27.38C230.591 31.0734 228.993 34.26 225.924 36.851ZM227.074 10.1159C223.335 8.33553 219.217 7.4326 214.837 7.4326C210.458 7.4326 206.368 8.33553 202.683 10.1128C199.014 11.8836 196.074 14.3415 193.945 17.4155C191.832 20.4695 190.76 23.8137 190.76 27.3603C190.76 48.1787 190.748 61.3285 190.723 66.4946H198.958V41.3189L200.362 42.4629C202.121 43.8946 204.332 45.0753 206.938 45.9725C209.547 46.871 212.207 47.328 214.837 47.328C221.76 47.328 227.54 45.3765 232.021 41.5291C236.47 37.7078 238.804 32.934 238.953 27.3416C239.03 23.8044 237.996 20.4664 235.885 17.4155C233.756 14.3431 230.79 11.8853 227.074 10.1159Z" fill="#363630"/>
<path d="M276.855 36.8374C273.745 39.4064 269.964 40.7097 265.614 40.7097C261.315 40.7097 257.598 39.4191 254.569 36.8715C251.501 34.2928 249.889 31.1172 249.775 27.4194C249.69 23.734 251.245 20.5395 254.395 17.924C257.49 15.3533 261.264 14.0517 265.614 14.0517C269.941 14.0517 273.671 15.3489 276.703 17.9101C279.771 20.501 281.369 23.6876 281.454 27.3744C281.566 31.0367 280.018 34.2189 276.855 36.8374ZM277.765 10.15C274.082 8.34559 269.993 7.43302 265.614 7.43302C261.234 7.43302 257.126 8.3421 253.402 10.1347C249.693 11.9181 246.726 14.3743 244.583 17.4392C242.462 20.473 241.438 23.8141 241.537 27.3761C241.686 32.9453 244.021 37.7065 248.469 41.5281C252.949 45.3755 258.719 47.327 265.614 47.327C268.249 47.327 270.901 46.8837 273.501 46.0101C276.092 45.1375 278.295 43.9703 280.05 42.5409L281.454 41.3969V46.2216H289.733V27.3993C289.733 23.8299 288.653 20.4791 286.529 17.4392C284.384 14.376 281.439 11.9243 277.765 10.15Z" fill="#363630"/>
<path d="M295.167 4.40316H294.995V3.33001H295.197C295.529 3.33001 296.01 3.34399 296.01 3.86092C296.01 4.39225 295.423 4.40316 295.167 4.40316ZM297.429 6.80678L296.052 5.03905C296.694 4.9078 297.108 4.41672 297.108 3.82236C297.108 3.16327 296.599 2.47792 295.478 2.47792H293.977V6.80678H294.995V5.20758L296.24 6.80678H297.429Z" fill="#363630"/>
<path d="M43.0789 8.61995H51.6866V46.2181L8.60732 46.2198V8.61995H17.2239V37.6028H25.8392V8.61995H34.453V37.6028L43.0789 37.6045V8.61995Z" fill="#363630"/>
<path d="M34.4719 37.5998H43.0793V0.00163547L1.52588e-05 -6.10352e-05V37.5998H8.61695V8.61688H17.2322V37.5998H25.8457L25.8474 8.61688L34.4719 8.61518V37.5998Z" fill="#F7D917"/>
<path d="M295.357 -6.10352e-05C292.793 -6.10352e-05 290.715 2.07836 290.715 4.64256C290.715 7.20549 292.793 9.28518 295.357 9.28518C297.922 9.28518 300 7.20549 300 4.64256C300 2.07836 297.922 -6.10352e-05 295.357 -6.10352e-05ZM295.357 8.39284C293.287 8.39284 291.607 6.71314 291.607 4.64256C291.607 2.57198 293.287 0.89228 295.357 0.89228C297.428 0.89228 299.108 2.57198 299.108 4.64256C299.108 6.71314 297.428 8.39284 295.357 8.39284Z" fill="#363630"/>
</g>
<defs>
<clipPath id="clip0">
<rect y="-6.10352e-05" width="300" height="67.2868" fill="white"/>
</clipPath>
</defs>
</svg>
