<svg width="300" height="92" viewBox="0 0 300 92" fill="none" xmlns="http://www.w3.org/2000/svg">
<g clip-path="url(#clip0)">
<path d="M0.304688 91.8365V46.2243L45.9169 0.612061H71.3251V20.8161H91.8353V46.2243L45.9169 91.8365H0.304688Z" fill="url(#paint0_linear)"/>
<path d="M45.9169 66.4284V91.8366H0.304688V46.2244H25.7128V66.4284H45.9169Z" fill="#E568A2"/>
<path d="M125.507 54.4895V69.1834H118.16V54.4895H115.711V48.3671H118.16V44.9997C118.16 42.8569 118.466 40.4079 119.997 38.2651C121.833 35.8161 124.588 34.8977 127.037 34.8977C128.568 34.8977 129.486 35.2038 130.711 35.51V41.9385C129.793 41.3263 128.874 41.3263 128.262 41.3263C127.037 41.3263 126.425 41.6324 126.119 42.2446C125.507 42.8569 125.507 44.3875 125.507 45.3059V48.3671H130.711V54.4895H125.507ZM133.466 48.3671H140.813V51.7344C141.425 50.2038 142.65 49.2855 143.874 48.9793C145.099 48.3671 146.323 48.061 147.854 48.061H149.384V55.1018C149.078 54.7957 147.854 54.4895 146.323 54.4895C145.405 54.4895 143.874 54.4895 142.956 55.714C141.425 57.2446 141.425 59.3875 141.425 60.3059V69.1834H134.078V48.3671H133.466ZM174.486 59.9997H159.18C159.18 61.2242 159.486 62.4487 160.405 63.3671C161.017 63.9793 161.935 64.2855 163.466 64.2855C163.772 64.2855 164.997 64.2855 165.915 63.6732C166.527 63.3671 166.833 63.061 167.14 62.1426H174.18C173.874 63.3671 173.262 64.8977 171.731 66.4283C170.201 67.9589 167.752 69.1834 163.16 69.1834C160.405 69.1834 157.037 68.5712 154.588 66.1222C153.364 64.8977 151.527 62.1426 151.527 58.163C151.527 54.7957 152.752 52.0406 154.588 50.2038C156.425 48.6732 158.874 47.1426 163.16 47.1426C165.609 47.1426 168.67 47.7548 171.119 49.8977C174.18 52.6528 174.486 56.3263 174.486 58.4691V59.9997ZM167.752 55.714C167.446 54.7957 167.14 54.1834 166.527 53.5712C165.609 52.6528 164.078 52.3467 163.466 52.3467C162.242 52.3467 161.323 52.6528 160.405 53.5712C159.793 54.1834 159.486 54.7957 159.18 55.714H167.752ZM178.772 48.3671H186.119V50.8161C188.262 48.061 191.017 47.7549 192.854 47.7549C194.997 47.7549 197.14 48.3671 198.976 49.8977C200.813 51.7344 200.813 53.5712 200.813 55.714V68.8773H193.466V58.4691C193.466 57.2446 193.466 55.4079 192.548 54.4895C191.935 53.8773 191.017 53.5712 190.099 53.5712C188.874 53.5712 187.956 53.8773 187.344 54.4895C186.731 55.1018 186.119 56.6324 186.119 57.8569V68.8773H178.772V48.3671ZM229.282 68.8773H221.935V66.7344C219.793 69.4895 217.037 69.7957 215.813 69.7957C212.752 69.7957 210.609 68.8773 208.466 67.0406C206.323 64.8977 205.099 62.1426 205.099 58.7753C205.099 55.1018 206.629 52.3467 208.466 50.51C210.609 48.6732 213.364 47.7549 215.813 47.7549C218.568 47.7549 220.711 48.9793 221.935 50.51V35.51H229.282V68.8773ZM220.711 62.1426C221.629 61.2242 222.242 59.9997 222.242 58.4691C222.242 57.2446 221.629 56.0202 220.711 55.1018C219.793 54.1834 218.568 53.5712 217.344 53.5712C215.813 53.5712 214.588 54.1834 213.976 54.7957C213.058 55.714 212.446 56.9385 212.446 58.4691C212.446 59.3875 213.058 60.612 213.976 61.8365C214.895 62.7549 216.119 63.3671 217.344 63.3671C218.568 63.3671 219.793 62.7548 220.711 62.1426ZM255.303 66.1222C252.548 68.8773 249.486 69.4895 246.119 69.4895C243.058 69.4895 239.691 68.8773 236.935 66.1222C234.793 63.9793 233.874 61.2242 233.874 58.4691C233.874 54.7957 235.405 52.3467 236.935 50.8161C238.772 49.2855 241.527 47.4487 246.119 47.4487C250.711 47.4487 253.772 49.2855 255.303 50.8161C256.833 52.3467 258.364 54.7957 258.364 58.4691C258.364 61.5304 257.446 63.9793 255.303 66.1222ZM242.752 55.1018C241.833 56.0202 241.221 57.2446 241.221 58.4691C241.221 59.6936 241.833 60.9181 242.752 61.8365C243.67 62.7549 244.895 63.3671 246.119 63.3671C247.344 63.3671 248.568 62.7549 249.486 61.8365C250.405 60.9181 251.017 59.6936 251.017 58.4691C251.017 57.2446 250.405 56.0202 249.486 55.1018C248.568 54.1834 247.344 53.8773 246.119 53.8773C244.895 53.8773 243.67 54.4895 242.752 55.1018ZM262.65 48.3671H269.997V50.8161C271.833 48.6732 274.282 48.061 276.119 48.061C277.65 48.061 278.874 48.3671 280.099 48.9793C281.629 49.8977 282.548 50.8161 282.854 52.0406C283.772 50.51 284.691 49.5916 285.609 49.2855C287.14 48.3671 288.67 48.3671 289.895 48.3671C291.425 48.3671 293.874 48.6732 295.711 50.2038C297.548 52.0406 297.548 54.4895 297.548 56.0202V69.4895H290.813V59.3875C290.813 57.2446 290.507 55.714 289.895 54.7957C289.588 54.4895 288.976 54.1834 288.058 54.1834C287.14 54.1834 286.527 54.4895 285.915 55.1018C284.691 56.3263 284.691 58.163 284.691 59.0814V69.7957H277.344V59.6936C277.344 57.5508 277.344 56.0202 276.425 55.1018C275.813 54.4895 274.895 54.1834 274.282 54.1834C273.364 54.1834 272.752 54.1834 272.14 54.7957C270.915 56.0202 270.915 58.163 270.915 59.3875V69.4895H263.568V48.3671H262.65Z" fill="#1D1D1B"/>
</g>
<defs>
<linearGradient id="paint0_linear" x1="62.6563" y1="28.5642" x2="-6.57487" y2="102.437" gradientUnits="userSpaceOnUse">
<stop stop-color="#7B4693"/>
<stop offset="1" stop-color="#D55893"/>
</linearGradient>
<clipPath id="clip0">
<rect width="300" height="91.8367" fill="white"/>
</clipPath>
</defs>
</svg>
