<svg width="50" height="45" viewBox="0 0 50 45" fill="none" xmlns="http://www.w3.org/2000/svg">
<path d="M41.4089 30.7432C41.8518 30.6944 42.3 30.7458 42.7205 30.8935C43.1409 31.0411 43.5228 31.2814 43.8379 31.5965C44.153 31.9116 44.3932 32.2935 44.5409 32.7139C44.6886 33.1343 44.74 33.5826 44.6912 34.0255C44.6912 35.7408 43.1242 36.4872 41.4089 36.4872H38.9439C40.6576 36.4872 42.2262 37.2353 42.2262 38.9489C42.2262 40.6626 41.4782 41.4107 39.7645 41.4107H25.8212C19.9241 41.4107 18.2959 39.9839 11.0542 38.9489V21.7186C16.1227 21.7186 25.0007 12.2071 25.0007 3.93364C25.0007 0.662638 29.5291 -0.554515 31.2073 5.42001C32.2407 9.10855 29.11 16.7968 29.11 16.7968H45.5101C46.3687 16.8297 47.1834 17.185 47.7917 17.7918C48.4 18.3987 48.7573 19.2125 48.7924 20.071C48.7924 21.7863 47.7381 24.1722 45.5101 24.1722H42.9307C45.1571 24.1722 47.1529 25.7392 47.1529 27.4545C47.1198 28.3145 46.7634 29.1302 46.1548 29.7388C45.5463 30.3473 44.7305 30.7037 43.8706 30.7368H41.4089" stroke="#4B4B4B" stroke-width="1.5" stroke-miterlimit="10" stroke-linecap="round" stroke-linejoin="round"/>
<path d="M11.0542 43.0501H1.20898V18.4169L11.0542 18.4378V43.0501Z" fill="#FFD700" stroke="#4B4B4B" stroke-width="1.5" stroke-miterlimit="10" stroke-linecap="round" stroke-linejoin="round"/>
<path d="M7.41555 38.0705C7.21124 38.0708 7.0116 38.1317 6.84188 38.2454C6.67215 38.3592 6.53995 38.5207 6.46199 38.7095C6.38402 38.8984 6.36379 39.1061 6.40384 39.3065C6.4439 39.5068 6.54244 39.6908 6.68703 39.8351C6.83161 39.9795 7.01574 40.0778 7.21615 40.1175C7.41656 40.1572 7.62426 40.1367 7.81299 40.0584C8.00172 39.9802 8.16301 39.8477 8.27649 39.6778C8.38997 39.5079 8.45053 39.3082 8.45053 39.1039C8.45053 38.968 8.42375 38.8335 8.37172 38.708C8.31968 38.5826 8.24342 38.4686 8.1473 38.3726C8.05117 38.2766 7.93706 38.2005 7.8115 38.1487C7.68594 38.0969 7.55139 38.0703 7.41555 38.0705Z" fill="#FFD700"/>
</svg>
