<svg width="50" height="50" viewBox="0 0 50 50" fill="none" xmlns="http://www.w3.org/2000/svg">
<path d="M29.5424 48.9103C29.014 48.9055 28.4927 48.788 28.0133 48.5658C27.5339 48.3435 27.1074 48.0216 26.7622 47.6215C26.5776 47.4064 26.3481 47.2343 26.0899 47.1172C25.8317 47.0001 25.551 46.941 25.2675 46.9439C24.9851 46.9481 24.7067 47.0104 24.4495 47.127C24.1923 47.2436 23.962 47.4119 23.7728 47.6215C23.3461 48.1222 22.7931 48.4992 22.1712 48.7135C21.5493 48.9277 20.8813 48.9713 20.2369 48.8397C19.5924 48.7081 18.995 48.4061 18.507 47.9652C18.0189 47.5243 17.6579 46.9606 17.4617 46.3328C17.3302 45.9346 17.0753 45.5886 16.734 45.345C16.3927 45.1013 15.9827 44.9726 15.5634 44.9776C15.28 44.9803 15.0012 45.0497 14.7496 45.1802C14.0257 45.5098 13.2161 45.6019 12.4367 45.4436C11.6572 45.2852 10.9478 44.8843 10.41 44.2983C10.0731 43.9109 9.82069 43.4575 9.66885 42.9671C9.51701 42.4767 9.46907 41.96 9.52809 41.45C9.56393 41.1705 9.53985 40.8866 9.45745 40.6172C9.37505 40.3478 9.23623 40.0989 9.05021 39.8873C8.86419 39.6757 8.63524 39.5061 8.37859 39.3898C8.12194 39.2735 7.84347 39.2132 7.5617 39.2129H7.49361C6.84764 39.2207 6.21137 39.0554 5.6509 38.7342C5.09044 38.4129 4.62624 37.9474 4.30654 37.386C3.98529 36.8282 3.82191 36.1934 3.83391 35.5497C3.8459 34.9061 4.03282 34.2778 4.37463 33.7323C4.64435 33.2345 4.71669 32.6534 4.57725 32.1047C4.48561 31.8399 4.34266 31.5958 4.15656 31.3864C3.97047 31.1769 3.74489 31.0062 3.49274 30.884C2.89437 30.62 2.37415 30.2062 1.98229 29.6826C1.59043 29.1589 1.34017 28.5431 1.25565 27.8946C1.17929 27.2409 1.28441 26.5787 1.5595 25.9808C1.83459 25.3829 2.26902 24.8722 2.81514 24.5049C3.04525 24.3379 3.23696 24.1236 3.37741 23.8764C3.51786 23.6292 3.60378 23.3548 3.62943 23.0717C3.65507 22.7885 3.61983 22.5031 3.52607 22.2347C3.43232 21.9663 3.28222 21.7211 3.08585 21.5155C2.63332 21.0364 2.31877 20.4439 2.17551 19.8007C2.03225 19.1575 2.06561 18.4875 2.27206 17.8617C2.45411 17.2318 2.81264 16.6672 3.30529 16.2346C3.79795 15.802 4.40413 15.5195 5.05224 15.4203C5.31981 15.3566 5.57182 15.2396 5.79323 15.0764C6.01465 14.9132 6.20094 14.7071 6.34101 14.4703C6.48026 14.2251 6.56456 13.9526 6.58808 13.6715C6.61159 13.3905 6.57376 13.1077 6.4772 12.8428C6.28162 12.292 6.22267 11.702 6.30541 11.1234C6.38814 10.5449 6.61009 9.99503 6.95219 9.52116C7.29461 9.04637 7.7432 8.65812 8.26221 8.38737C8.78123 8.11662 9.35631 7.97085 9.94162 7.96168C10.2147 7.95061 10.488 7.97348 10.7554 8.02976C10.8916 8.02976 11.0261 8.09786 11.1623 8.09786C11.6459 8.08533 12.1092 7.90119 12.4695 7.57836C12.8298 7.25553 13.0634 6.81506 13.1287 6.33575C13.2173 5.42753 13.6402 4.58465 14.3155 3.97082C14.9907 3.35699 15.8699 3.01602 16.7825 3.01415C17.5687 3.01225 18.3326 3.2749 18.9515 3.75985C19.2781 4.02273 19.6847 4.16627 20.1041 4.16675C20.4507 4.15946 20.7894 4.06187 21.0868 3.88362C21.3842 3.70537 21.6299 3.45262 21.7997 3.15034C22.1155 2.57687 22.5786 2.09801 23.1412 1.76316C23.7037 1.42831 24.3454 1.24958 25.0001 1.2454C25.6564 1.22837 26.3041 1.39764 26.8682 1.73361C27.4322 2.06958 27.8896 2.55849 28.1872 3.1437C28.357 3.44598 28.6027 3.69872 28.9001 3.87698C29.1975 4.05523 29.5362 4.15282 29.8828 4.16011C30.3021 4.15963 30.7087 4.01609 31.0354 3.75321C31.5531 3.35784 32.1675 3.10876 32.8144 3.032C33.4612 2.95524 34.1168 3.05361 34.7127 3.31683C35.3085 3.58005 35.8228 3.99846 36.2016 4.52835C36.5805 5.05823 36.8101 5.68015 36.8665 6.32911C36.909 6.81785 37.1358 7.27211 37.501 7.59967C37.8662 7.92724 38.3424 8.10358 38.8329 8.09288C38.972 8.10352 39.1117 8.08015 39.2398 8.02478C39.5072 7.9685 39.7805 7.94562 40.0536 7.95669C40.6389 7.96586 41.214 8.11164 41.733 8.38239C42.252 8.65314 42.7006 9.04138 43.043 9.51618C43.3851 9.99005 43.607 10.5399 43.6898 11.1185C43.7725 11.697 43.7136 12.287 43.518 12.8378C43.4214 13.1027 43.3836 13.3855 43.4071 13.6665C43.4306 13.9476 43.5149 14.2201 43.6542 14.4654C43.7942 14.7021 43.9805 14.9082 44.202 15.0714C44.4234 15.2346 44.6754 15.3516 44.943 15.4153C45.5864 15.5264 46.1866 15.8131 46.6773 16.244C47.1679 16.6749 47.5299 17.233 47.7231 17.8567C47.9296 18.4825 47.9629 19.1525 47.8197 19.7957C47.6764 20.4389 47.3619 21.0314 46.9093 21.5105C46.718 21.7201 46.5712 21.9665 46.4779 22.2345C46.3845 22.5026 46.3466 22.7868 46.3663 23.07C46.3972 23.3503 46.4854 23.6213 46.6254 23.8661C46.7654 24.1109 46.9542 24.3244 47.18 24.4933C47.7206 24.866 48.1507 25.3775 48.4251 25.974C48.6995 26.5705 48.8081 27.23 48.7395 27.883C48.681 28.5398 48.4408 29.1674 48.0456 29.6955C47.6505 30.2235 47.1162 30.631 46.5024 30.8724C46.2373 30.9745 46.0005 31.1386 45.8118 31.3509C45.6232 31.5633 45.4881 31.8178 45.4179 32.0931C45.3155 32.3602 45.2804 32.6483 45.3157 32.9322C45.3511 33.2161 45.4558 33.4869 45.6206 33.7207C45.9461 34.2721 46.1235 34.8983 46.1354 35.5386C46.1473 36.1788 45.9934 36.8112 45.6887 37.3744C45.369 37.9358 44.9048 38.4013 44.3443 38.7225C43.7838 39.0438 43.1475 39.2091 42.5016 39.2013H42.4335C41.8659 39.2236 41.3296 39.4667 40.9388 39.8789C40.7443 40.0843 40.6001 40.3321 40.5177 40.6027C40.4352 40.8734 40.4168 41.1594 40.4638 41.4384C40.5278 41.9528 40.4807 42.4749 40.3255 42.9695C40.1703 43.4641 39.9107 43.9196 39.5643 44.3052C39.2179 44.6908 38.7928 44.9975 38.3176 45.2046C37.8424 45.4117 37.3283 45.5144 36.81 45.5057C36.2732 45.5002 35.743 45.3872 35.2505 45.1735C34.9989 45.043 34.7201 44.9736 34.4367 44.9709C33.5416 44.9759 31.17 48.9103 29.5424 48.9103Z" fill="#FFDE00" stroke="#333333" stroke-width="1.5"/>
<path d="M12.2773 28.9985H16.9221V31H9.63407V30.175C9.63407 29.6148 9.72829 29.1131 9.91673 28.67C10.1052 28.2218 10.342 27.822 10.6272 27.4706C10.9124 27.1141 11.2231 26.8009 11.5592 26.531C11.9004 26.256 12.2238 26.0089 12.5294 25.79C12.8503 25.5608 13.1304 25.3418 13.3697 25.133C13.6142 24.9242 13.8179 24.7179 13.9809 24.5142C14.149 24.3054 14.2737 24.0965 14.3552 23.8877C14.4367 23.6738 14.4775 23.4472 14.4775 23.2078C14.4775 22.7393 14.345 22.3853 14.0802 22.146C13.8154 21.9066 13.4105 21.7869 12.8655 21.7869C11.9233 21.7869 11.0219 22.1612 10.1612 22.9099V20.7861C11.1136 20.1699 12.1882 19.8618 13.385 19.8618C13.9402 19.8618 14.4367 19.9356 14.8747 20.0833C15.3178 20.2259 15.6921 20.4322 15.9977 20.7021C16.3033 20.972 16.535 21.3005 16.6929 21.6876C16.8559 22.0696 16.9374 22.4974 16.9374 22.971C16.9374 23.4752 16.8584 23.9234 16.7005 24.3155C16.5477 24.7077 16.3415 25.0642 16.0817 25.3851C15.8271 25.7059 15.5317 26.0013 15.1956 26.2712C14.8594 26.5361 14.5106 26.7933 14.149 27.0428C13.9045 27.216 13.6677 27.3891 13.4385 27.5623C13.2144 27.7304 13.0158 27.8984 12.8426 28.0665C12.6695 28.2295 12.532 28.3899 12.4301 28.5478C12.3282 28.7057 12.2773 28.8559 12.2773 28.9985ZM22.4377 31.191C19.8301 31.191 18.5263 29.3601 18.5263 25.6983C18.5263 23.7986 18.8778 22.3522 19.5806 21.3591C20.2885 20.3609 21.3122 19.8618 22.6516 19.8618C25.1981 19.8618 26.4713 21.7232 26.4713 25.4462C26.4713 27.3 26.1225 28.7209 25.4247 29.709C24.7321 30.697 23.7364 31.191 22.4377 31.191ZM22.5447 21.7029C21.5006 21.7029 20.9786 23.0143 20.9786 25.6372C20.9786 28.1072 21.4904 29.3423 22.5141 29.3423C23.5123 29.3423 24.0114 28.069 24.0114 25.5226C24.0114 22.9761 23.5225 21.7029 22.5447 21.7029Z" fill="black"/>
<path d="M39.6152 21.0858L40.8143 22.2849L33.0482 30.0509L31.8492 28.8519L39.6152 21.0858Z" fill="#333333"/>
<path d="M39.6767 30.5336C40.6498 30.5336 41.4388 29.7446 41.4388 28.7714C41.4388 27.7983 40.6498 27.0093 39.6767 27.0093C38.7035 27.0093 37.9146 27.7983 37.9146 28.7714C37.9146 29.7446 38.7035 30.5336 39.6767 30.5336Z" fill="#333333"/>
<path d="M33.1012 24.7041C34.112 24.7041 34.9314 23.8847 34.9314 22.8739C34.9314 21.8631 34.112 21.0437 33.1012 21.0437C32.0904 21.0437 31.271 21.8631 31.271 22.8739C31.271 23.8847 32.0904 24.7041 33.1012 24.7041Z" fill="#333333"/>
</svg>
