<svg width="50" height="50" viewBox="0 0 50 50" fill="none" xmlns="http://www.w3.org/2000/svg">
<path d="M1.43115 49.7329C1.43115 37.5191 10.2098 29.9791 17.8434 29.0249C19.1602 28.8607 21.7384 31.4791 24.9044 31.3149C27.767 31.1604 31.5056 28.397 35.0189 29.9791C42.7174 33.4294 48.5686 42.4562 48.5686 49.7329" fill="#FFDE00"/>
<path d="M28.2214 36.9676L25.4504 33.2825L22.687 36.9676L24.5286 38.8092L22.687 49.0611H28.2214L26.3721 38.8168L28.2214 36.9676Z" fill="#333333"/>
<path d="M48.5689 47.3951C48.5689 38.8512 41.7922 31.4866 32.0708 28.8339" stroke="#333333" stroke-width="1.5" stroke-miterlimit="10" stroke-linecap="round" stroke-linejoin="round"/>
<path d="M16.7499 29.13C7.91972 31.7807 1.43115 39.1472 1.43115 47.3953" stroke="#333333" stroke-width="1.5" stroke-miterlimit="10" stroke-linecap="round" stroke-linejoin="round"/>
<path d="M24.75 30.8931C32.8856 30.8931 39.4809 24.2979 39.4809 16.1622C39.4809 8.02656 32.8856 1.4313 24.75 1.4313C16.6143 1.4313 10.019 8.02656 10.019 16.1622C10.019 24.2979 16.6143 30.8931 24.75 30.8931Z" stroke="#333333" stroke-width="1.5" stroke-miterlimit="10" stroke-linecap="round" stroke-linejoin="round"/>
<path d="M29.2404 22.3187C28.7324 23.108 28.0298 23.7532 27.2003 24.1924C26.3707 24.6316 25.4421 24.8499 24.5038 24.8263C23.5088 24.8029 22.5355 24.5314 21.6723 24.0361C20.8091 23.5408 20.0833 22.8376 19.561 21.9905" stroke="#333333" stroke-width="1.5" stroke-linecap="round"/>
</svg>
