<svg width="18" height="18" viewBox="0 0 18 18" fill="none" xmlns="http://www.w3.org/2000/svg">
<g clip-path="url(#clip0)">
<path d="M17.2299 1.73849C17.016 1.47707 16.6958 1.33301 16.3282 1.33301C16.1282 1.33301 15.9166 1.3752 15.699 1.45824L0.885492 7.11296C0.0993618 7.41296 -0.00651471 7.86317 0.000294494 8.10497C0.00710369 8.34663 0.138348 8.79016 0.940232 9.04517C0.945039 9.04677 0.949845 9.04811 0.954652 9.04958L3.03213 9.64398L13.1498 4.47499C13.4019 4.34602 13.7108 4.44615 13.8397 4.69836C13.9409 4.89649 13.9003 5.12934 13.7561 5.28262L13.7565 5.28302L8.13102 11.2603L7.97054 11.9106L9.97939 13.5283L12.7632 15.7699C12.7656 15.7717 12.768 15.7737 12.7705 15.7756C13.0768 16.0133 13.4114 16.1388 13.7381 16.1389C14.3765 16.1389 14.8848 15.6664 15.0329 14.9353L17.46 2.95053C17.5574 2.46961 17.4757 2.03903 17.2299 1.73849Z" fill="#828282"/>
<path d="M7.16706 10.8842C7.18749 10.8013 7.22861 10.7223 7.29123 10.6557L10.9825 6.7334L4.13281 10.2328L5.68812 14.6808C5.77678 14.9343 5.90869 15.15 6.07184 15.3189L7.16706 10.8842Z" fill="#828282"/>
<path d="M7.02734 15.7303C7.39705 15.7273 7.76034 15.5713 8.07864 15.2783L9.21658 14.2304L7.69932 13.0088L7.02734 15.7303Z" fill="#828282"/>
</g>
<defs>
<clipPath id="clip0">
<rect width="17.5" height="17.5" fill="white"/>
</clipPath>
</defs>
</svg>
