<svg width="25" height="25" viewBox="0 0 25 25" fill="none" xmlns="http://www.w3.org/2000/svg">
<g clip-path="url(#clip0)">
<path d="M21.875 15.625L21.875 9.375C21.875 8.5462 21.5458 7.75134 20.9597 7.16529C20.3737 6.57924 19.5788 6.25 18.75 6.25L14.5833 6.25L14.5833 7.29167L18.75 7.29167C19.3025 7.29167 19.8324 7.51116 20.2231 7.90186C20.6138 8.29256 20.8333 8.82247 20.8333 9.375L20.8333 15.625C20.8333 16.1775 20.6138 16.7074 20.2231 17.0981C19.8324 17.4888 19.3025 17.7083 18.75 17.7083L5.20833 17.7083C4.6558 17.7083 4.12589 17.4888 3.73519 17.0981C3.34449 16.7074 3.125 16.1775 3.125 15.625L3.125 9.375C3.125 8.82246 3.34449 8.29256 3.73519 7.90186C4.12589 7.51116 4.6558 7.29167 5.20833 7.29167L9.375 7.29167L9.375 6.25L5.20833 6.25C4.37953 6.25 3.58467 6.57924 2.99862 7.16529C2.41257 7.75134 2.08333 8.5462 2.08333 9.375L2.08333 15.625C2.08333 16.4538 2.41257 17.2487 2.99862 17.8347C3.58467 18.4208 4.37953 18.75 5.20833 18.75L18.75 18.75C19.5788 18.75 20.3737 18.4208 20.9597 17.8347C21.5458 17.2487 21.875 16.4538 21.875 15.625ZM12.5 3.125L12.5 13.8021L15.8854 10.4167L16.6667 11.1083L11.9792 15.7958L7.29167 11.1083L8.07292 10.4167L11.4583 13.8021L11.4583 3.125L12.5 3.125Z" fill="#828282"/>
</g>
<defs>
<clipPath id="clip0">
<rect x="25" width="25" height="25" transform="rotate(90 25 0)" fill="white"/>
</clipPath>
</defs>
</svg>
