<svg width="32" height="32" viewBox="0 0 32 32" fill="none" xmlns="http://www.w3.org/2000/svg">
<path d="M29.3333 4.2002H2.66667C1.19333 4.2002 0 5.39353 0 6.86686V14.0669C0 14.3602 0.24 14.6002 0.533333 14.6002H28.4C28.6933 14.6002 28.9333 14.3602 28.9333 14.0669C28.9333 13.7735 28.6933 13.5335 28.4 13.5335H1.06667V10.0669H28.4C28.6933 10.0669 28.9333 9.82686 28.9333 9.53353C28.9333 9.24019 28.6933 9.00019 28.4 9.00019H1.06667V6.86686C1.06667 5.98686 1.78667 5.26686 2.66667 5.26686H29.3333C30.2133 5.26686 30.9333 5.98686 30.9333 6.86686V25.1335C30.9333 26.0135 30.2133 26.7335 29.3333 26.7335H2.66667C1.78667 26.7335 1.06667 26.0135 1.06667 25.1335V17.1335C1.06667 16.8402 0.826667 16.6002 0.533333 16.6002C0.24 16.6002 0 16.8402 0 17.1335V25.1335C0 26.6069 1.19333 27.8002 2.66667 27.8002H29.3333C30.8067 27.8002 32 26.6069 32 25.1335V6.86686C32 5.39353 30.8067 4.2002 29.3333 4.2002ZM4.86667 19.6002H9.33333C9.62667 19.6002 9.86667 19.3602 9.86667 19.0669C9.86667 18.7735 9.62667 18.5335 9.33333 18.5335H4.86667C4.57333 18.5335 4.33333 18.7735 4.33333 19.0669C4.33333 19.3602 4.57333 19.6002 4.86667 19.6002ZM4.86667 22.9335H9.33333C9.62667 22.9335 9.86667 22.6935 9.86667 22.4002C9.86667 22.1069 9.62667 21.8669 9.33333 21.8669H4.86667C4.57333 21.8669 4.33333 22.1069 4.33333 22.4002C4.33333 22.6935 4.57333 22.9335 4.86667 22.9335Z" fill="#333333"/>
</svg>
