<svg xmlns="http://www.w3.org/2000/svg" viewBox="-9684.75 -22682.07 39.67 31.32"><defs><style>.cls-1,.cls-2,.cls-3{fill:none;stroke-linecap:round}.cls-1,.cls-2,.cls-3,.cls-4{stroke:#333}.cls-1{stroke-width:2px}.cls-2{stroke-linejoin:round;stroke-miterlimit:10}.cls-2,.cls-3,.cls-4{stroke-width:1.5px}.cls-4{fill:#ffde00}</style></defs><g id="Group_5790" data-name="Group 5790" transform="translate(-10533 -23459)"><path id="Path_2321" data-name="Path 2321" class="cls-2" d="M8.5 82.719a9.621 9.621 0 0 0-7 9" transform="translate(847.5 715.781)"/><path id="Path_2322" data-name="Path 2322" class="cls-2" d="M1.354 82.3a9.621 9.621 0 0 1 7 9" transform="translate(864.646 716.196)"/><circle id="Ellipse_106" data-name="Ellipse 106" class="cls-2" cx="7" cy="7" r="7" transform="translate(854 785.5)"/><path id="Path_2323" data-name="Path 2323" class="cls-3" d="M5.482 4.686A2.866 2.866 0 0 1 3 6 3.129 3.129 0 0 1 .41 4.514" transform="translate(858 789.5)"/><path id="Path_2324" data-name="Path 2324" class="cls-2" d="M1232.743 227.519l-4.434-8.944-4.277 8.775" transform="rotate(180 1044.75 513.038)"/><path id="Path_616" data-name="Path 616" class="cls-4" d="M20.982 0c-4.245 0-7.689 3.016-7.689 6.74a4.99 4.99 0 0 0 1.468 3.792l-.372.734-.6 1.277a.211.211 0 0 0 .082.386 4.553 4.553 0 0 0 2.94-.533 8.421 8.421 0 0 0 4.175 1.083c4.245 0 7.689-3.016 7.689-6.74S25.227 0 20.982 0z" transform="translate(858.5 777.68)"/><path id="Path_626" data-name="Path 626" class="cls-3" d="M-4.437 0h-3.925" transform="translate(888.007 782.5)"/><path id="Path_738" data-name="Path 738" class="cls-3" d="M-5.772 0H-9" transform="translate(886.341 786.5)"/><path id="Path_627" data-name="Path 627" class="cls-3" d="M6.483 0H5" transform="translate(871 782.5)"/></g></svg>