<svg xmlns="http://www.w3.org/2000/svg" viewBox="-9456.75 -22757.25 39.5 20.5"><defs><style>.cls-1,.cls-3,.cls-4,.cls-6{fill:none}.cls-1,.cls-3,.cls-4,.cls-5,.cls-6{stroke:#333}.cls-1{stroke-linecap:round}.cls-1,.cls-3,.cls-4,.cls-5{stroke-width:1.5px}.cls-2{fill:#ffde00}.cls-4,.cls-5,.cls-6{stroke-linejoin:round;stroke-miterlimit:10}.cls-5{fill:rgba(0,0,0,0)}.cls-6{stroke-width:2px}</style></defs><g id="Group_5785" data-name="Group 5785" transform="translate(-9491.5 -22803)"><path id="Path_579" data-name="Path 579" class="cls-1" d="M6 0H1" transform="translate(39.5 48.5)"/><path id="Path_2327" data-name="Path 2327" class="cls-2" d="M45.5 46.5h17.888l.355 2.062-.51 13.925-9.745.139-.9-1.583-1.97-.834-1.522.834-1.065 1.724-1.322-.279H45.5z"/><path id="Path_580" data-name="Path 580" class="cls-1" d="M6 0H0" transform="translate(35.5 54.5)"/><path id="Path_582" data-name="Path 582" class="cls-1" d="M6 0H2" transform="translate(39.5 59.5)"/><path id="Path_584" data-name="Path 584" class="cls-1" d="M6 0H5" transform="translate(45.5 56.5)"/><path id="Path_591" data-name="Path 591" class="cls-1" d="M6 0H5" transform="translate(32.5 59.5)"/><path id="Path_2344" data-name="Path 2344" class="cls-3" d="M2.5 0a2.5 2.5 0 0 1 0 5 2.732 2.732 0 0 1-1.528-.521A2.354 2.354 0 0 1 0 2.5 2.5 2.5 0 0 1 2.5 0z" transform="translate(48.5 60.5)"/><circle id="Ellipse_105" data-name="Ellipse 105" class="cls-4" cx="2.5" cy="2.5" r="2.5" transform="translate(65.5 60.5)"/><path id="Path_585" data-name="Path 585" class="cls-4" d="M1232.5 10.575h6l4 7v7h-2.616" transform="translate(-1169 38.925)"/><path id="Path_586" data-name="Path 586" class="cls-5" d="M1227.5 23.575h-3v-16h18v17" transform="translate(-1179 38.925)"/><path id="Path_587" data-name="Path 587" class="cls-6" d="M1232.5 7.575h12" transform="translate(-1179 54.925)"/><path id="Path_581" data-name="Path 581" class="cls-1" d="M9.79 0H-9" transform="translate(63.5 56.5)"/></g></svg>