<svg width="90" height="65" viewBox="0 0 90 65" fill="none" xmlns="http://www.w3.org/2000/svg">
<rect x="59" y="1" width="29" height="43" fill="#F7D917"/>
<rect x="1" y="34" width="20" height="28" fill="#F7D917"/>
<path d="M17.6821 50.335C17.6158 50.3306 17.5493 50.3404 17.487 50.3638C17.4248 50.3871 17.3682 50.4235 17.3212 50.4704C17.2742 50.5173 17.2377 50.5737 17.2143 50.6358C17.1909 50.6979 17.1811 50.7642 17.1855 50.8304V55.2894C17.1855 55.4208 17.2378 55.5468 17.3309 55.6397C17.4241 55.7326 17.5504 55.7848 17.6821 55.7848C17.8139 55.7848 17.9402 55.7326 18.0334 55.6397C18.1265 55.5468 18.1788 55.4208 18.1788 55.2894V50.8304C18.1829 50.7693 18.1748 50.7079 18.155 50.6498C18.1352 50.5918 18.1041 50.5382 18.0635 50.4922C18.0228 50.4461 17.9735 50.4086 17.9183 50.3816C17.8631 50.3546 17.8031 50.3388 17.7418 50.335H17.6821Z" fill="#555555"/>
<path d="M37.5497 27.0503C37.4834 27.046 37.4168 27.0558 37.3546 27.0791C37.2923 27.1025 37.2358 27.1388 37.1888 27.1857C37.1417 27.2326 37.1053 27.289 37.0819 27.3511C37.0585 27.4132 37.0486 27.4796 37.053 27.5458V33.4908C37.053 33.6222 37.1054 33.7483 37.1985 33.8412C37.2916 33.9341 37.418 33.9863 37.5497 33.9863C37.6814 33.9863 37.8078 33.9341 37.9009 33.8412C37.9941 33.7483 38.0464 33.6222 38.0464 33.4908V27.5458C38.0505 27.4846 38.0423 27.4232 38.0225 27.3651C38.0027 27.3071 37.9716 27.2535 37.931 27.2075C37.8904 27.1615 37.8411 27.1239 37.7859 27.0969C37.7307 27.0699 37.6707 27.0541 37.6093 27.0503H37.5497Z" fill="#555555"/>
<path d="M13.2119 37.9492H10.2318C10.1001 37.9492 9.97373 38.0014 9.88058 38.0943C9.78744 38.1871 9.73511 38.3131 9.73511 38.4444C9.73511 38.5757 9.78744 38.7017 9.88058 38.7946C9.97373 38.8874 10.1001 38.9396 10.2318 38.9396H13.2119C13.3437 38.9396 13.47 38.8874 13.5631 38.7946C13.6563 38.7017 13.7086 38.5757 13.7086 38.4444C13.7086 38.3131 13.6563 38.1871 13.5631 38.0943C13.47 38.0014 13.3437 37.9492 13.2119 37.9492Z" fill="#555555"/>
<path d="M89.2053 0H0.794702C0.588526 0.0139107 0.394394 0.101891 0.248272 0.247642C0.102151 0.393392 0.0139461 0.587031 0 0.792683C0.0139461 0.998335 0.102151 1.19197 0.248272 1.33772C0.394394 1.48347 0.588526 1.57146 0.794702 1.58537H0.993378V64.2073C1.00732 64.413 1.09553 64.6066 1.24165 64.7524C1.38777 64.8981 1.5819 64.9861 1.78808 65C1.99426 64.9861 2.18839 64.8981 2.33451 64.7524C2.48063 64.6066 2.56884 64.413 2.58278 64.2073V62.9192C2.69934 62.998 2.84011 63.0331 2.98013 63.0183H20.8609V64.2073C20.8609 64.4176 20.9447 64.6192 21.0937 64.7678C21.2427 64.9165 21.4449 65 21.6556 65C21.8664 65 22.0685 64.9165 22.2176 64.7678C22.3666 64.6192 22.4503 64.4176 22.4503 64.2073V63.0183H57.6159V64.2073C57.6159 64.4176 57.6996 64.6192 57.8487 64.7678C57.9977 64.9165 58.1998 65 58.4106 65C58.6214 65 58.8235 64.9165 58.9725 64.7678C59.1216 64.6192 59.2053 64.4176 59.2053 64.2073V64.2073V63.0183H87.4172V64.2073C87.4172 64.4176 87.5009 64.6192 87.65 64.7678C87.799 64.9165 88.0012 65 88.2119 65C88.4227 65 88.6248 64.9165 88.7739 64.7678C88.9229 64.6192 89.0066 64.4176 89.0066 64.2073V1.58537H89.2053C89.4115 1.57146 89.6056 1.48347 89.7517 1.33772C89.8979 1.19197 89.9861 0.998335 90 0.792683C89.9861 0.587031 89.8979 0.393392 89.7517 0.247642C89.6056 0.101891 89.4115 0.0139107 89.2053 0V0ZM77.4834 43.5976H69.1391V1.58537H77.4834V43.5976ZM59.2053 1.58537H67.5497V43.5976H59.2053V1.58537ZM2.58278 35.0762C2.71855 35.2005 2.89521 35.271 3.07947 35.2744H20.9603V43.5976H2.58278V35.0762ZM20.8609 1.58537V33.689H2.98013C2.78146 33.689 2.68212 33.7881 2.48344 33.8872V1.58537H20.8609ZM2.98013 61.4329C2.78146 61.4329 2.68212 61.532 2.58278 61.532V45.1829H20.8609V61.4329H2.98013ZM22.4503 1.78354V1.58537H39.7351V61.4329H22.4503V1.78354ZM41.3245 61.4329V1.58537H57.6159V61.4329H41.3245ZM87.2185 61.4329H59.2053V45.1829H87.4172V61.4329H87.2185ZM87.4172 43.5976H79.0728V1.58537H87.4172V43.5976Z" fill="#555555"/>
<path d="M43.5099 27.0503C43.4436 27.046 43.377 27.0558 43.3148 27.0791C43.2525 27.1025 43.196 27.1388 43.149 27.1857C43.1019 27.2326 43.0655 27.289 43.0421 27.3511C43.0187 27.4132 43.0088 27.4796 43.0132 27.5458V33.4908C43.0132 33.6222 43.0656 33.7483 43.1587 33.8412C43.2519 33.9341 43.3782 33.9863 43.5099 33.9863C43.6417 33.9863 43.768 33.9341 43.8611 33.8412C43.9543 33.7483 44.0066 33.6222 44.0066 33.4908V27.5458C44.0107 27.4846 44.0025 27.4232 43.9827 27.3651C43.9629 27.3071 43.9319 27.2535 43.8912 27.2075C43.8506 27.1615 43.8013 27.1239 43.7461 27.0969C43.6909 27.0699 43.6309 27.0541 43.5695 27.0503H43.5099Z" fill="#555555"/>
<path d="M63.3775 12.1878C63.4438 12.1922 63.5104 12.1824 63.5726 12.159C63.6349 12.1357 63.6914 12.0993 63.7384 12.0524C63.7855 12.0055 63.8219 11.9491 63.8453 11.887C63.8687 11.8249 63.8786 11.7585 63.8742 11.6923V7.72884C63.8742 7.59744 63.8218 7.47142 63.7287 7.37851C63.6355 7.2856 63.5092 7.2334 63.3775 7.2334C63.2457 7.2334 63.1194 7.2856 63.0262 7.37851C62.9331 7.47142 62.8808 7.59744 62.8808 7.72884V11.6923C62.8767 11.7535 62.8848 11.8149 62.9046 11.873C62.9244 11.931 62.9555 11.9846 62.9962 12.0306C63.0368 12.0767 63.0861 12.1142 63.1413 12.1412C63.1965 12.1682 63.2565 12.184 63.3179 12.1878H63.3775Z" fill="#555555"/>
<path d="M73.3112 7.23295C73.2448 7.22857 73.1783 7.23838 73.116 7.26173C73.0538 7.28508 72.9973 7.32143 72.9502 7.36833C72.9032 7.41524 72.8668 7.47163 72.8433 7.53373C72.8199 7.59582 72.8101 7.66218 72.8145 7.72838V11.6918C72.8145 11.8232 72.8668 11.9492 72.96 12.0421C73.0531 12.135 73.1795 12.1872 73.3112 12.1872C73.4429 12.1872 73.5693 12.135 73.6624 12.0421C73.7556 11.9492 73.8079 11.8232 73.8079 11.6918V7.72838C73.8119 7.66719 73.8038 7.60582 73.784 7.54777C73.7642 7.48972 73.7331 7.43614 73.6925 7.39011C73.6519 7.34408 73.6026 7.3065 73.5474 7.27953C73.4922 7.25256 73.4322 7.23673 73.3708 7.23295H73.3112Z" fill="#555555"/>
<path d="M83.245 12.1878C83.3114 12.1922 83.3779 12.1824 83.4402 12.159C83.5024 12.1357 83.559 12.0993 83.606 12.0524C83.653 12.0055 83.6894 11.9491 83.7129 11.887C83.7363 11.8249 83.7461 11.7585 83.7417 11.6923V7.72884C83.7417 7.59744 83.6894 7.47142 83.5962 7.37851C83.5031 7.2856 83.3768 7.2334 83.245 7.2334C83.1133 7.2334 82.987 7.2856 82.8938 7.37851C82.8007 7.47142 82.7483 7.59744 82.7483 7.72884V11.6923C82.7443 11.7535 82.7524 11.8149 82.7722 11.873C82.792 11.931 82.8231 11.9846 82.8637 12.0306C82.9043 12.0767 82.9536 12.1142 83.0088 12.1412C83.0641 12.1682 83.1241 12.184 83.1854 12.1878H83.245Z" fill="#555555"/>
</svg>
