<svg width="60" height="60" viewBox="0 0 60 60" fill="none" xmlns="http://www.w3.org/2000/svg">
<rect x="7" y="27" width="46" height="7" fill="#F7D917"/>
<path d="M59.5271 20.7683C59.1833 20.3902 58.6926 20.1732 58.1817 20.1732H56.9315C56.6944 20.1732 56.4637 20.2048 56.2426 20.2615V15.4156C56.2426 13.3772 54.5841 11.7188 52.5452 11.7188H32.8179C31.69 11.7188 30.6788 12.2273 29.9999 13.0266C29.3215 12.2273 28.3103 11.7188 27.1819 11.7188H7.45461C5.41573 11.7188 3.75725 13.3772 3.75725 15.4156V20.2615C3.53661 20.2048 3.30544 20.1732 3.06832 20.1732H1.81816C1.3073 20.1732 0.816576 20.3902 0.472795 20.7683C0.129015 21.1464 -0.0403577 21.6554 0.0081652 22.164L1.62682 39.1621C1.76232 40.5853 2.94289 41.6583 4.37203 41.6583H4.56246L3.7664 47.2311C3.73024 47.4834 3.80531 47.7388 3.9724 47.9311C4.13948 48.1233 4.38164 48.2341 4.63616 48.2341H6.51528C6.86684 48.2341 7.18453 48.0244 7.32277 47.7013L9.9128 41.6583H11.2119C11.6972 41.6583 12.0908 41.2651 12.0908 40.7794C12.0908 40.2942 11.6972 39.9005 11.2119 39.9005H4.37203C3.85384 39.9005 3.42583 39.5114 3.37685 38.9955L1.75774 21.9974C1.75728 21.9901 1.75545 21.9708 1.7733 21.9507C1.79161 21.931 1.81084 21.931 1.81816 21.931H3.06832C3.55171 21.931 3.96553 22.2766 4.05205 22.7522L5.63637 31.4648V32.325C5.63637 33.8457 6.87325 35.0826 8.39394 35.0826H28.1213C28.8468 35.0826 29.5074 34.8006 29.9999 34.341C30.4929 34.8006 31.1535 35.0826 31.8786 35.0826H51.6059C53.1266 35.0826 54.3635 33.8457 54.3635 32.325V31.4648L55.9478 22.7522C56.0343 22.2762 56.4481 21.931 56.9315 21.931H58.1817C58.189 21.931 58.2082 21.931 58.2265 21.9507C58.2444 21.9708 58.2426 21.9901 58.2421 21.9974L56.623 38.9955C56.574 39.5114 56.146 39.9005 55.6278 39.9005H14.9697C14.4845 39.9005 14.0908 40.2942 14.0908 40.7794C14.0908 41.2651 14.4845 41.6583 14.9697 41.6583H50.0871L52.6771 47.7013C52.8153 48.0244 53.1335 48.2341 53.485 48.2341H55.3637C55.6182 48.2341 55.8604 48.1233 56.0275 47.9311C56.1945 47.7388 56.2696 47.4834 56.2339 47.2311L55.4379 41.6583H55.6278C57.057 41.6583 58.2375 40.5853 58.373 39.1621L59.9917 22.164C60.0402 21.655 59.8708 21.1464 59.5271 20.7683V20.7683ZM5.93575 46.4763H5.64964L6.33812 41.6583H8.00026L5.93575 46.4763ZM7.45461 13.4766H27.1819C28.2513 13.4766 29.121 14.3468 29.121 15.4156V25.7492C29.121 26.3004 28.6724 26.749 28.1213 26.749H8.39394C7.74437 26.749 7.14699 26.9751 6.67504 27.3523L5.78148 22.4377C5.73113 22.1613 5.63866 21.9022 5.51506 21.6632V15.4156C5.51506 14.3463 6.38527 13.4766 7.45461 13.4766ZM28.1213 33.3247H8.39394C7.84233 33.3247 7.39418 32.8761 7.39418 32.325V29.507C7.39418 28.9554 7.84279 28.5068 8.39394 28.5068H28.1213C28.6724 28.5068 29.121 28.9554 29.121 29.507V32.325C29.121 32.8761 28.6724 33.3247 28.1213 33.3247ZM52.6061 32.325C52.6061 32.8761 52.1575 33.3247 51.6059 33.3247H31.8786C31.3274 33.3247 30.8788 32.8761 30.8788 32.325V29.5065C30.8788 28.9554 31.3274 28.5068 31.8786 28.5068H46.9088C47.394 28.5068 47.7877 28.1136 47.7877 27.6279C47.7877 27.1426 47.394 26.749 46.9088 26.749H31.8786C31.3274 26.749 30.8788 26.3004 30.8788 25.7492V15.4161C30.8788 14.3468 31.7486 13.4766 32.8179 13.4766H52.5452C53.6146 13.4766 54.4843 14.3468 54.4843 15.4161V21.6632C54.3607 21.9022 54.2683 22.1613 54.2184 22.4377L53.3248 27.3528C52.8529 26.9756 52.2555 26.749 51.6059 26.749H50.667C50.1814 26.749 49.7881 27.1426 49.7881 27.6279C49.7881 28.1136 50.1814 28.5068 50.667 28.5068H51.6059C52.1575 28.5068 52.6057 28.9554 52.6057 29.5065V32.325H52.6061ZM54.3502 46.4763H54.0641L51.9996 41.6583H53.6617L54.3502 46.4763Z" fill="#4B4B4B"/>
<path d="M13.1003 20.0522C13.5855 20.0522 13.9792 19.6586 13.9792 19.1733C13.9792 18.6881 13.5855 18.2944 13.1003 18.2944H13.0907C12.6054 18.2944 12.2168 18.6881 12.2168 19.1733C12.2168 19.6586 12.6151 20.0522 13.1003 20.0522Z" fill="#4B4B4B"/>
<path d="M46.9093 18.2944H46.8997C46.414 18.2944 46.0254 18.6881 46.0254 19.1733C46.0254 19.6586 46.4236 20.0522 46.9093 20.0522C47.3946 20.0522 47.7882 19.6586 47.7882 19.1733C47.7882 18.6881 47.3946 18.2944 46.9093 18.2944V18.2944Z" fill="#4B4B4B"/>
<path d="M21.5546 20.0522C22.0403 20.0522 22.4335 19.6586 22.4335 19.1733C22.4335 18.6881 22.0403 18.2944 21.5546 18.2944H21.5455C21.0598 18.2944 20.6711 18.6881 20.6711 19.1733C20.6711 19.6586 21.0694 20.0522 21.5546 20.0522Z" fill="#4B4B4B"/>
<path d="M38.464 18.2944H38.4544C37.9692 18.2944 37.5801 18.6881 37.5801 19.1733C37.5801 19.6586 37.9783 20.0522 38.464 20.0522C38.9492 20.0522 39.3429 19.6586 39.3429 19.1733C39.3429 18.6881 38.9492 18.2944 38.464 18.2944Z" fill="#4B4B4B"/>
</svg>
