<svg width="60" height="60" viewBox="0 0 60 60" fill="none" xmlns="http://www.w3.org/2000/svg">
<path d="M30 60C21.9867 60 14.4531 56.8794 8.78672 51.2133C3.12059 45.5469 0 38.0133 0 30C0 21.9867 3.12059 14.4531 8.78672 8.78672C14.4531 3.12059 21.9867 0 30 0C38.0133 0 45.5469 3.12059 51.2133 8.78672C56.8794 14.4531 60 21.9867 60 30C60 38.0133 56.8794 45.5469 51.2133 51.2133C45.5469 56.8794 38.0133 60 30 60ZM30 3.51562C22.9257 3.51562 16.275 6.27047 11.2727 11.2727C6.27047 16.275 3.51562 22.9257 3.51562 30C3.51562 37.0743 6.27047 43.725 11.2727 48.7273C16.275 53.7295 22.9257 56.4844 30 56.4844C37.0743 56.4844 43.725 53.7295 48.7273 48.7273C53.7295 43.725 56.4844 37.0743 56.4844 30C56.4844 22.9257 53.7295 16.275 48.7273 11.2727C43.725 6.27047 37.0743 3.51562 30 3.51562Z" fill="#4B4B4B"/>
<path d="M28.2422 7.0354H31.7578V11.7267H28.2422V7.0354Z" fill="#F7D917"/>
<path d="M41.6719 15.8389L44.9886 12.5222L47.4741 15.0078L44.1574 18.3245L41.6719 15.8389Z" fill="#F7D917"/>
<path d="M48.2734 28.2422H52.9647V31.7578H48.2734V28.2422Z" fill="#F7D917"/>
<path d="M41.6699 44.1642L44.1555 41.6786L47.4722 44.9953L44.9866 47.4809L41.6699 44.1642Z" fill="#F7D917"/>
<path d="M28.2422 48.2733H31.7578V52.9645H28.2422V48.2733Z" fill="#F7D917"/>
<path d="M12.5137 44.9922L15.8304 41.6755L18.3159 44.1611L14.9992 47.4778L12.5137 44.9922Z" fill="#F7D917"/>
<path d="M7.03516 28.2422H11.7264V31.7578H7.03516V28.2422Z" fill="#F7D917"/>
<path d="M12.5156 15.0046L15.0012 12.519L18.3179 15.8357L15.8323 18.3213L12.5156 15.0046Z" fill="#F7D917"/>
<path d="M42.4092 31.7578H28.2422V17.5908H31.7578V28.2422H42.4092V31.7578Z" fill="#F7D917"/>
</svg>
