<svg width="18" height="18" viewBox="0 0 18 18" fill="none" xmlns="http://www.w3.org/2000/svg">
<path d="M15 4.5H8.21L7.055 2.91C6.96191 2.78261 6.83999 2.67905 6.69921 2.60779C6.55843 2.53653 6.40279 2.49959 6.245 2.5H3C2.73478 2.5 2.48043 2.60536 2.29289 2.7929C2.10536 2.98043 2 3.23479 2 3.5V14.5C2 14.7652 2.10536 15.0196 2.29289 15.2071C2.48043 15.3946 2.73478 15.5 3 15.5H15C15.2652 15.5 15.5196 15.3946 15.7071 15.2071C15.8946 15.0196 16 14.7652 16 14.5V5.5C16 5.23479 15.8946 4.98043 15.7071 4.7929C15.5196 4.60536 15.2652 4.5 15 4.5ZM15 14.5H3V6.5H6.655C6.92022 6.5 7.17457 6.39465 7.36211 6.20711C7.54964 6.01957 7.655 5.76522 7.655 5.5H3V3.5H6.245L7.55 5.295C7.59655 5.3587 7.65751 5.41048 7.7279 5.44611C7.79829 5.48174 7.87611 5.50021 7.955 5.5H15V14.5Z" fill="#4B4B4B"/>
</svg>
