<svg width="16" height="16" viewBox="0 0 16 16" fill="none" xmlns="http://www.w3.org/2000/svg">
<path d="M15.5434 11.3062L12.0434 9.80619C11.8939 9.74247 11.7277 9.72904 11.5699 9.76793C11.4121 9.80682 11.2712 9.89592 11.1684 10.0218L9.61844 11.9156C7.18586 10.7686 5.22819 8.81096 4.08125 6.37838L5.975 4.82838C6.10115 4.72577 6.19044 4.58487 6.22934 4.42698C6.26825 4.2691 6.25466 4.10284 6.19063 3.95338L4.69063 0.453375C4.62035 0.292253 4.49605 0.160702 4.33917 0.0814062C4.18229 0.00211036 4.00266 -0.0199601 3.83125 0.0190004L0.58125 0.769C0.41599 0.807162 0.268545 0.900213 0.16298 1.03296C0.0574141 1.16572 -3.80691e-05 1.33033 1.89256e-08 1.49994C1.89256e-08 9.51556 6.49687 15.9999 14.5 15.9999C14.6697 16 14.8343 15.9426 14.9672 15.8371C15.1 15.7315 15.1931 15.584 15.2312 15.4187L15.9812 12.1687C16.02 11.9964 15.9974 11.8161 15.9175 11.6587C15.8376 11.5013 15.7053 11.3766 15.5434 11.3062Z" fill="#F7D917"/>
</svg>
