<svg width="94" height="93" viewBox="0 0 94 93" fill="none" xmlns="http://www.w3.org/2000/svg">
<path d="M47.1709 62.533L47 62.4191V62.6246H26.6875V92.3121H48.5625V65.1332C48.563 64.6186 48.4362 64.1119 48.1934 63.6582C47.9506 63.2045 47.5994 62.818 47.1709 62.533ZM32.9375 68.8746H29.8125V65.7496H32.9375V68.8746Z" fill="#4B4B4B"/>
<path d="M68.8751 34.5C68.4608 34.5005 68.0636 34.6652 67.7707 34.9582C67.4778 35.2511 67.313 35.6482 67.3126 36.0625V47H64.1876V32.9375C64.1876 32.5231 64.0229 32.1257 63.7299 31.8326C63.4369 31.5396 63.0395 31.375 62.6251 31.375C62.2107 31.375 61.8132 31.5396 61.5202 31.8326C61.2272 32.1257 61.0626 32.5231 61.0626 32.9375V45.4375H57.9376V28.25C57.9376 27.8356 57.7729 27.4382 57.4799 27.1451C57.1869 26.8521 56.7895 26.6875 56.3751 26.6875C55.9607 26.6875 55.5632 26.8521 55.2702 27.1451C54.9772 27.4382 54.8126 27.8356 54.8126 28.25V45.4375H51.6876V31.375C51.6876 30.9606 51.5229 30.5632 51.2299 30.2701C50.9369 29.9771 50.5394 29.8125 50.125 29.8125C49.7106 29.8125 49.3132 29.9771 49.0202 30.2701C48.7272 30.5632 48.5625 30.9606 48.5625 31.375V51.6875H45.4375V47.9656L45.1938 48.0875C44.3772 48.4958 43.6822 49.1114 43.1783 49.8727C42.6744 50.634 42.3793 51.5143 42.3226 52.4255C42.2658 53.3367 42.4494 54.2468 42.855 55.0647C43.2605 55.8826 43.8738 56.5797 44.6334 57.0861L48.9043 59.9334C49.7613 60.5033 50.4639 61.2764 50.9495 62.1837C51.4351 63.091 51.6887 64.1045 51.6876 65.1336V92.3125H67.3126V62.625C67.3125 62.3824 67.369 62.1431 67.4776 61.9262C69.4193 58.0312 70.4325 53.7394 70.4376 49.3873V36.0625C70.4371 35.6482 70.2723 35.2511 69.9794 34.9582C69.6865 34.6652 69.2893 34.5005 68.8751 34.5Z" fill="#FFD700"/>
<path d="M29.8125 56.7539V59.5H42.6387C41.4773 58.6605 40.5521 57.5356 39.9524 56.2341C39.3527 54.9326 39.0987 53.4985 39.2151 52.0702C39.3315 50.6419 39.8143 49.2677 40.6167 48.0805C41.4192 46.8933 42.5144 45.933 43.7963 45.2926L45.4369 44.4723V23.5625C45.4369 23.1481 45.2723 22.7507 44.9793 22.4576C44.6863 22.1646 44.2888 22 43.8744 22C43.46 22 43.0626 22.1646 42.7696 22.4576C42.4765 22.7507 42.3119 23.1481 42.3119 23.5625V37.625H39.1875V18.875C39.1875 18.4606 39.0229 18.0632 38.7299 17.7701C38.4368 17.4771 38.0394 17.3125 37.625 17.3125C37.2106 17.3125 36.8132 17.4771 36.5202 17.7701C36.2271 18.0632 36.0625 18.4606 36.0625 18.875V37.625H32.9375V25.125C32.9375 24.7106 32.7729 24.3132 32.4799 24.0201C32.1868 23.7271 31.7894 23.5625 31.375 23.5625C30.9606 23.5625 30.5632 23.7271 30.2702 24.0201C29.9771 24.3132 29.8125 24.7106 29.8125 25.125V41.2383C31.2127 41.8827 32.3986 42.9153 33.2294 44.2136C34.0603 45.5118 34.5013 47.0212 34.5 48.5625H31.375C31.3759 47.5252 31.0498 46.514 30.4433 45.6726C29.8367 44.8311 28.9805 44.2021 27.9961 43.875L27.7561 43.7951C27.4449 43.6914 27.1742 43.4924 26.9824 43.2263C26.7906 42.9602 26.6875 42.6405 26.6875 42.3125V37.625C26.6875 37.2106 26.5229 36.8132 26.2299 36.5201C25.9368 36.2271 25.5394 36.0625 25.125 36.0625C24.7106 36.0625 24.3132 36.2271 24.0202 36.5201C23.7271 36.8132 23.5625 37.2106 23.5625 37.625V45.7561C23.5607 46.4409 23.6946 47.1193 23.9567 47.752C24.2188 48.3848 24.6037 48.9592 25.0893 49.4422L27.982 52.3346C28.5642 52.9136 29.0257 53.6023 29.3399 54.3609C29.6541 55.1195 29.8148 55.9328 29.8125 56.7539Z" fill="#FFD700"/>
<path d="M45.4375 0.125H48.5625V14.1875H45.4375V0.125Z" fill="#4B4B4B"/>
<path d="M22.208 7.18626L24.9141 5.62386L30.3094 14.9685L27.6033 16.5309L22.208 7.18626Z" fill="#4B4B4B"/>
<path d="M5.62354 24.9161L7.18594 22.2101L19.3641 29.2413L17.8017 31.9474L5.62354 24.9161Z" fill="#4B4B4B"/>
<path d="M0.125 45.4375H14.1875V48.5625H0.125V45.4375Z" fill="#4B4B4B"/>
<path d="M5.62207 69.0843L17.8002 62.053L19.3626 64.7591L7.18447 71.7903L5.62207 69.0843Z" fill="#4B4B4B"/>
<path d="M74.6338 64.7617L76.1962 62.0556L88.3743 69.0868L86.8119 71.7929L74.6338 64.7617Z" fill="#4B4B4B"/>
<path d="M79.8125 45.4375H93.875V48.5625H79.8125V45.4375Z" fill="#4B4B4B"/>
<path d="M74.6328 29.2404L86.8109 22.2092L88.3733 24.9153L76.1952 31.9465L74.6328 29.2404Z" fill="#4B4B4B"/>
<path d="M62.0513 17.8027L69.0825 5.6246L71.7886 7.18701L64.7574 19.3651L62.0513 17.8027Z" fill="#4B4B4B"/>
<path d="M34.1709 5.13889L37.1896 4.32951L38.8084 10.367L35.7896 11.1764L34.1709 5.13889Z" fill="#4B4B4B"/>
<path d="M14.9551 17.1696L17.1646 14.9601L21.5832 19.3787L19.3737 21.5883L14.9551 17.1696Z" fill="#4B4B4B"/>
<path d="M4.34082 37.1923L5.1502 34.1735L11.1877 35.7923L10.3783 38.811L4.34082 37.1923Z" fill="#4B4B4B"/>
<path d="M4.34717 56.8174L10.3847 55.1987L11.194 58.2174L5.15654 59.8362L4.34717 56.8174Z" fill="#4B4B4B"/>
<path d="M55.21 10.3714L56.8287 4.3339L59.8475 5.14327L58.2287 11.1808L55.21 10.3714Z" fill="#4B4B4B"/>
<path d="M72.4014 19.3847L76.82 14.9661L79.0295 17.1756L74.6109 21.5942L72.4014 19.3847Z" fill="#4B4B4B"/>
<path d="M82.8311 35.7722L88.8686 34.1534L89.6779 37.1722L83.6404 38.7909L82.8311 35.7722Z" fill="#4B4B4B"/>
<path d="M82.8374 58.218L83.6468 55.1993L89.6843 56.818L88.8749 59.8368L82.8374 58.218Z" fill="#4B4B4B"/>
</svg>
