<svg width="20" height="20" viewBox="0 0 20 20" fill="none" xmlns="http://www.w3.org/2000/svg">
<path d="M9.99935 16.6667C13.666 16.6667 16.666 13.6667 16.666 9.99999C16.666 6.33332 13.666 3.33332 9.99935 3.33332C6.33268 3.33332 3.33268 6.33332 3.33268 9.99999C3.33268 13.6667 6.33268 16.6667 9.99935 16.6667ZM9.99935 1.66666C14.5827 1.66666 18.3327 5.41666 18.3327 9.99999C18.3327 14.5833 14.5827 18.3333 9.99935 18.3333C5.41602 18.3333 1.66602 14.5833 1.66602 9.99999C1.66602 5.41666 5.41602 1.66666 9.99935 1.66666ZM14.166 11.5833L13.5827 12.6667L9.16602 10.25V5.83332H10.416V9.49999L14.166 11.5833Z" fill="#F7D917"/>
</svg>
