<svg width="98" height="52" viewBox="0 0 98 52" fill="none" xmlns="http://www.w3.org/2000/svg">
<g clip-path="url(#clip0)">
<path d="M25.8 33.1001H28.5L29.8 29.1001H40.8L42.8 31.1001L45.8 29.1001H54.8L57.8 33.1001H59.8V16.1001H25.8V33.1001Z" fill="#FFDE00"/>
<path d="M17.8 29.1001H1.80005V49.1001H17.8V29.1001Z" fill="#FFDE00"/>
<path d="M94.8 29.1001H67.8V49.1001H94.8V29.1001Z" fill="#FFDE00"/>
<path d="M12.8 16.1001H6.80005L5.80005 22.1001H14.8L12.8 16.1001Z" fill="#FFDE00"/>
<path d="M61.1 34.0998V16.0998C61.086 15.8923 60.9972 15.6968 60.8501 15.5497C60.703 15.4026 60.5075 15.3138 60.3 15.2998H25.3C25.0924 15.3138 24.897 15.4026 24.7499 15.5497C24.6028 15.6968 24.514 15.8923 24.5 16.0998V33.9998C23.5809 34.6873 22.8323 35.5769 22.3121 36.6C21.7919 37.6231 21.514 38.7522 21.5 39.8998V51.0998C21.5 51.312 21.5843 51.5155 21.7343 51.6655C21.8843 51.8155 22.0878 51.8998 22.3 51.8998C22.5122 51.8998 22.7157 51.8155 22.8657 51.6655C23.0157 51.5155 23.1 51.312 23.1 51.0998V46.8998H62.5V51.0998C62.5 51.312 62.5843 51.5155 62.7343 51.6655C62.8843 51.8155 63.0878 51.8998 63.3 51.8998C63.5122 51.8998 63.7157 51.8155 63.8657 51.6655C64.0157 51.5155 64.1 51.312 64.1 51.0998V39.8998C64.0739 38.7686 63.7901 37.6582 63.2702 36.6531C62.7504 35.6481 62.0081 34.7748 61.1 34.0998V34.0998ZM26.1 16.8998H59.5V33.0998C58.9043 32.7959 58.2622 32.5931 57.6 32.4998C57.5934 31.3879 57.1488 30.3234 56.3626 29.5372C55.5764 28.751 54.5119 28.3064 53.4 28.2998H46.2C45.5304 28.305 44.8719 28.4712 44.2801 28.7845C43.6884 29.0978 43.1807 29.5489 42.8 30.0998C42.4193 29.5489 41.9116 29.0978 41.3199 28.7845C40.7281 28.4712 40.0696 28.305 39.4 28.2998H32.2C31.0881 28.3064 30.0236 28.751 29.2374 29.5372C28.4512 30.3234 28.0066 31.3879 28 32.4998C27.3378 32.5931 26.6957 32.7959 26.1 33.0998V16.8998V16.8998ZM56 32.2998H43.6C43.6541 31.6468 43.9512 31.038 44.4327 30.5935C44.9141 30.1491 45.5448 29.9016 46.2 29.8998H53.4C54.0552 29.9016 54.6859 30.1491 55.1673 30.5935C55.6488 31.038 55.9459 31.6468 56 32.2998V32.2998ZM42 32.2998H29.6C29.6541 31.6468 29.9512 31.038 30.4327 30.5935C30.9141 30.1491 31.5448 29.9016 32.2 29.8998H39.4C40.0552 29.9016 40.6859 30.1491 41.1673 30.5935C41.6488 31.038 41.9459 31.6468 42 32.2998ZM29.7 33.8998H55.9C57.2918 33.8767 58.6563 34.2881 59.8034 35.0767C60.9504 35.8654 61.8231 36.992 62.3 38.2998H23.3C23.7769 36.992 24.6496 35.8654 25.7966 35.0767C26.9437 34.2881 28.3082 33.8767 29.7 33.8998V33.8998ZM23.1 45.2998V39.8998H62.5V45.2998H23.1Z" fill="#4B4B4B"/>
<path d="M42.8 22.0998C43.0653 22.0998 43.3196 21.9945 43.5072 21.807C43.6947 21.6194 43.8 21.3651 43.8 21.0998C43.8 20.8346 43.6947 20.5803 43.5072 20.3927C43.3196 20.2052 43.0653 20.0998 42.8 20.0998C42.6666 20.0918 42.533 20.1122 42.4081 20.1596C42.2831 20.207 42.1696 20.2804 42.0751 20.3749C41.9806 20.4694 41.9072 20.5829 41.8598 20.7079C41.8124 20.8328 41.792 20.9664 41.8 21.0998C41.8 21.3651 41.9054 21.6194 42.0929 21.807C42.2805 21.9945 42.5348 22.0998 42.8 22.0998Z" fill="#4B4B4B"/>
<path d="M36.8 22.0998C37.0653 22.0998 37.3196 21.9945 37.5072 21.807C37.6947 21.6194 37.8 21.3651 37.8 21.0998C37.8 20.8346 37.6947 20.5803 37.5072 20.3927C37.3196 20.2052 37.0653 20.0998 36.8 20.0998C36.6666 20.0918 36.533 20.1122 36.4081 20.1596C36.2831 20.207 36.1696 20.2804 36.0751 20.3749C35.9806 20.4694 35.9072 20.5829 35.8598 20.7079C35.8124 20.8328 35.792 20.9664 35.8 21.0998C35.8 21.3651 35.9054 21.6194 36.0929 21.807C36.2805 21.9945 36.5348 22.0998 36.8 22.0998Z" fill="#4B4B4B"/>
<path d="M30.8 22.0998C31.0653 22.0998 31.3196 21.9945 31.5072 21.807C31.6947 21.6194 31.8 21.3651 31.8 21.0998C31.8 20.8346 31.6947 20.5803 31.5072 20.3927C31.3196 20.2052 31.0653 20.0998 30.8 20.0998C30.6666 20.0918 30.533 20.1122 30.4081 20.1596C30.2831 20.207 30.1696 20.2804 30.0751 20.3749C29.9806 20.4694 29.9072 20.5829 29.8598 20.7079C29.8124 20.8328 29.792 20.9664 29.8 21.0998C29.8 21.3651 29.9054 21.6194 30.0929 21.807C30.2805 21.9945 30.5348 22.0998 30.8 22.0998Z" fill="#4B4B4B"/>
<path d="M48.8 22.0998C49.0653 22.0998 49.3196 21.9945 49.5072 21.807C49.6947 21.6194 49.8 21.3651 49.8 21.0998C49.8 20.8346 49.6947 20.5803 49.5072 20.3927C49.3196 20.2052 49.0653 20.0998 48.8 20.0998C48.6666 20.0918 48.533 20.1122 48.4081 20.1596C48.2831 20.207 48.1696 20.2804 48.0751 20.3749C47.9806 20.4694 47.9072 20.5829 47.8598 20.7079C47.8124 20.8328 47.792 20.9664 47.8 21.0998C47.8 21.3651 47.9054 21.6194 48.0929 21.807C48.2805 21.9945 48.5348 22.0998 48.8 22.0998Z" fill="#4B4B4B"/>
<path d="M54.8 22.0998C55.0653 22.0998 55.3196 21.9945 55.5072 21.807C55.6947 21.6194 55.8 21.3651 55.8 21.0998C55.8 20.8346 55.6947 20.5803 55.5072 20.3927C55.3196 20.2052 55.0653 20.0998 54.8 20.0998C54.6666 20.0918 54.533 20.1122 54.4081 20.1596C54.2831 20.207 54.1696 20.2804 54.0751 20.3749C53.9806 20.4694 53.9072 20.5829 53.8598 20.7079C53.8124 20.8328 53.792 20.9664 53.8 21.0998C53.8 21.3651 53.9054 21.6194 54.0929 21.807C54.2805 21.9945 54.5348 22.0998 54.8 22.0998Z" fill="#4B4B4B"/>
<path d="M33.8 26.0998C34.0653 26.0998 34.3196 25.9945 34.5072 25.807C34.6947 25.6194 34.8 25.3651 34.8 25.0998C34.8 24.8346 34.6947 24.5803 34.5072 24.3927C34.3196 24.2052 34.0653 24.0998 33.8 24.0998C33.6666 24.0918 33.533 24.1122 33.4081 24.1596C33.2831 24.207 33.1696 24.2804 33.0751 24.3749C32.9806 24.4694 32.9072 24.5829 32.8598 24.7079C32.8124 24.8328 32.792 24.9664 32.8 25.0998C32.8 25.3651 32.9054 25.6194 33.0929 25.807C33.2805 25.9945 33.5348 26.0998 33.8 26.0998Z" fill="#4B4B4B"/>
<path d="M39.8 26.0998C40.0653 26.0998 40.3196 25.9945 40.5072 25.807C40.6947 25.6194 40.8 25.3651 40.8 25.0998C40.8 24.8346 40.6947 24.5803 40.5072 24.3927C40.3196 24.2052 40.0653 24.0998 39.8 24.0998C39.6666 24.0918 39.533 24.1122 39.4081 24.1596C39.2831 24.207 39.1696 24.2804 39.0751 24.3749C38.9806 24.4694 38.9072 24.5829 38.8598 24.7079C38.8124 24.8328 38.792 24.9664 38.8 25.0998C38.8 25.3651 38.9054 25.6194 39.0929 25.807C39.2805 25.9945 39.5348 26.0998 39.8 26.0998Z" fill="#4B4B4B"/>
<path d="M45.8 26.0998C46.0653 26.0998 46.3196 25.9945 46.5072 25.807C46.6947 25.6194 46.8 25.3651 46.8 25.0998C46.8 24.8346 46.6947 24.5803 46.5072 24.3927C46.3196 24.2052 46.0653 24.0998 45.8 24.0998C45.6666 24.0918 45.533 24.1122 45.4081 24.1596C45.2831 24.207 45.1696 24.2804 45.0751 24.3749C44.9806 24.4694 44.9072 24.5829 44.8598 24.7079C44.8124 24.8328 44.792 24.9664 44.8 25.0998C44.8 25.3651 44.9054 25.6194 45.0929 25.807C45.2805 25.9945 45.5348 26.0998 45.8 26.0998Z" fill="#4B4B4B"/>
<path d="M51.8 26.0998C52.0653 26.0998 52.3196 25.9945 52.5072 25.807C52.6947 25.6194 52.8 25.3651 52.8 25.0998C52.8 24.8346 52.6947 24.5803 52.5072 24.3927C52.3196 24.2052 52.0653 24.0998 51.8 24.0998C51.6666 24.0918 51.533 24.1122 51.4081 24.1596C51.2831 24.207 51.1696 24.2804 51.0751 24.3749C50.9806 24.4694 50.9072 24.5829 50.8598 24.7079C50.8124 24.8328 50.792 24.9664 50.8 25.0998C50.8 25.3651 50.9054 25.6194 51.0929 25.807C51.2805 25.9945 51.5348 26.0998 51.8 26.0998Z" fill="#4B4B4B"/>
<path d="M11.3 41.6001H8.30005C8.16744 41.6001 8.04026 41.6528 7.9465 41.7465C7.85273 41.8403 7.80005 41.9675 7.80005 42.1001C7.80005 42.2327 7.85273 42.3599 7.9465 42.4537C8.04026 42.5474 8.16744 42.6001 8.30005 42.6001H11.3C11.4327 42.6001 11.5598 42.5474 11.6536 42.4537C11.7474 42.3599 11.8 42.2327 11.8 42.1001C11.8 41.9675 11.7474 41.8403 11.6536 41.7465C11.5598 41.6528 11.4327 41.6001 11.3 41.6001Z" fill="#4B4B4B"/>
<path d="M18.8 28.3H11V22.9H14.7C14.8169 22.903 14.9328 22.8773 15.0375 22.8249C15.1421 22.7726 15.2323 22.6954 15.3 22.6C15.3898 22.5096 15.448 22.3926 15.466 22.2665C15.484 22.1404 15.4609 22.0119 15.4 21.9L13.9 15.9C13.8618 15.7201 13.7597 15.5602 13.6126 15.4499C13.4655 15.3395 13.2834 15.2863 13.1 15.3H7.1C6.91663 15.2863 6.73452 15.3395 6.58742 15.4499C6.44032 15.5602 6.3382 15.7201 6.3 15.9L4.8 21.9C4.76723 22.0172 4.7592 22.14 4.77642 22.2605C4.79363 22.381 4.83572 22.4966 4.9 22.6C4.97496 22.6874 5.06666 22.759 5.1697 22.8106C5.27274 22.8621 5.38504 22.8925 5.5 22.9H9.2V28.3H0.8C0.59245 28.314 0.397023 28.4028 0.249927 28.5499C0.102832 28.697 0.0140391 28.8924 0 29.1C0.00174619 29.2538 0.0506178 29.4033 0.140024 29.5285C0.22943 29.6537 0.35507 29.7484 0.5 29.8V51.1C0.514039 51.3075 0.602832 51.5029 0.749927 51.65C0.897023 51.7971 1.09245 51.8859 1.3 51.9C1.50755 51.8859 1.70298 51.7971 1.85007 51.65C1.99717 51.5029 2.08596 51.3075 2.1 51.1V49.9H17.5V51.1C17.5 51.3121 17.5843 51.5156 17.7343 51.6656C17.8843 51.8157 18.0878 51.9 18.3 51.9C18.5122 51.9 18.7157 51.8157 18.8657 51.6656C19.0157 51.5156 19.1 51.3121 19.1 51.1V29.9C19.2449 29.8484 19.3706 29.7537 19.46 29.6285C19.5494 29.5033 19.5983 29.3538 19.6 29.2C19.6055 28.9765 19.526 28.7593 19.3775 28.5922C19.229 28.4251 19.0226 28.3207 18.8 28.3V28.3ZM7.8 16.9H12.6L13.7 21.3H6.7L7.8 16.9ZM17.5 30V38.4H2.1V30H17.5ZM2.1 48.3V39.9H17.5V48.3H2.1Z" fill="#4B4B4B"/>
<path d="M7.79996 32.1C7.79587 32.1667 7.806 32.2336 7.82968 32.2961C7.85336 32.3586 7.89005 32.4154 7.93732 32.4626C7.98459 32.5099 8.04136 32.5466 8.10388 32.5703C8.1664 32.594 8.23323 32.6041 8.29996 32.6H11.3C11.4326 32.6 11.5597 32.5473 11.6535 32.4536C11.7473 32.3598 11.8 32.2326 11.8 32.1C11.8 31.9674 11.7473 31.8402 11.6535 31.7465C11.5597 31.6527 11.4326 31.6 11.3 31.6H8.29996C8.23323 31.5959 8.1664 31.606 8.10388 31.6297C8.04136 31.6534 7.98459 31.6901 7.93732 31.7374C7.89005 31.7846 7.85336 31.8414 7.82968 31.9039C7.806 31.9664 7.79587 32.0333 7.79996 32.1V32.1Z" fill="#4B4B4B"/>
<path d="M83 41.6001H78.5C78.3674 41.6001 78.2402 41.6528 78.1464 41.7465C78.0527 41.8403 78 41.9675 78 42.1001C78 42.2327 78.0527 42.3599 78.1464 42.4537C78.2402 42.5474 78.3674 42.6001 78.5 42.6001H83C83.1326 42.6001 83.2598 42.5474 83.3536 42.4537C83.4473 42.3599 83.5 42.2327 83.5 42.1001C83.5 41.9675 83.4473 41.8403 83.3536 41.7465C83.2598 41.6528 83.1326 41.6001 83 41.6001Z" fill="#4B4B4B"/>
<path d="M83 31.6001H78.5C78.3674 31.6001 78.2402 31.6528 78.1464 31.7465C78.0527 31.8403 78 31.9675 78 32.1001C78 32.2327 78.0527 32.3599 78.1464 32.4536C78.2402 32.5474 78.3674 32.6001 78.5 32.6001H83C83.1326 32.6001 83.2598 32.5474 83.3536 32.4536C83.4473 32.3599 83.5 32.2327 83.5 32.1001C83.5 31.9675 83.4473 31.8403 83.3536 31.7465C83.2598 31.6528 83.1326 31.6001 83 31.6001Z" fill="#4B4B4B"/>
<path d="M96.9 1.29998C91.5812 0.400148 86.1942 -0.0348279 80.8 -1.84304e-05C75.5764 -0.0136985 70.36 0.387563 65.2 1.19998C65.0025 1.25563 64.8281 1.37301 64.7021 1.53495C64.5762 1.6969 64.5053 1.89489 64.5 2.09998C64.5556 2.29745 64.673 2.47192 64.835 2.59787C64.9969 2.72383 65.1949 2.79465 65.4 2.79998C65.7 2.79998 65.9 2.69998 66.2 2.69998V51.1C66.2 51.3122 66.2843 51.5156 66.4343 51.6657C66.5843 51.8157 66.7878 51.9 67 51.9C67.2122 51.9 67.4157 51.8157 67.5657 51.6657C67.7157 51.5156 67.8 51.3122 67.8 51.1V49.9H94.2V51.1C94.2 51.3122 94.2843 51.5156 94.4343 51.6657C94.5843 51.8157 94.7878 51.9 95 51.9C95.2122 51.9 95.4157 51.8157 95.5657 51.6657C95.7157 51.5156 95.8 51.3122 95.8 51.1V2.79998C96.1 2.79998 96.3 2.89998 96.6 2.89998H96.7C96.8931 2.8918 97.0777 2.81796 97.2231 2.69068C97.3686 2.5634 97.4663 2.3903 97.5 2.19998C97.7 1.79998 97.4 1.39998 96.9 1.29998ZM94.2 38.3H67.8V29.9H94.2V38.3ZM67.8 48.3V39.9H94.2V48.3H67.8V48.3ZM94.2 28.3H67.8V2.49998C72.1064 1.8914 76.4508 1.59064 80.8 1.59998C85.3152 1.5943 89.8255 1.89499 94.3 2.49998V28.3H94.2Z" fill="#4B4B4B"/>
</g>
<defs>
<clipPath id="clip0">
<rect width="97.563" height="51.9" fill="white"/>
</clipPath>
</defs>
</svg>
