<svg width="90" height="57" viewBox="0 0 90 57" fill="none" xmlns="http://www.w3.org/2000/svg">
<g clip-path="url(#clip0)">
<rect x="78" y="23" width="11" height="30" fill="#F7D917"/>
<rect x="29" y="1" width="22" height="53" fill="#F7D917"/>
<path d="M20.4781 39.5796H9.29258C9.114 39.5917 8.94585 39.6681 8.81929 39.7946C8.69273 39.9212 8.61633 40.0893 8.60425 40.2679V55.7555C8.61633 55.9341 8.69273 56.1022 8.81929 56.2288C8.94585 56.3554 9.114 56.4318 9.29258 56.4438C9.47117 56.4318 9.63931 56.3554 9.76588 56.2288C9.89244 56.1022 9.96884 55.9341 9.98092 55.7555V44.3979H19.7897V55.7555C19.7897 55.9381 19.8622 56.1131 19.9913 56.2422C20.1204 56.3713 20.2955 56.4438 20.4781 56.4438C20.6606 56.4438 20.8357 56.3713 20.9648 56.2422C21.0939 56.1131 21.1664 55.9381 21.1664 55.7555V40.2679C21.1543 40.0893 21.0779 39.9212 20.9513 39.7946C20.8248 39.6681 20.6566 39.5917 20.4781 39.5796V39.5796ZM9.98092 43.0213V40.9563H19.7897V43.0213H9.98092Z" fill="#555555"/>
<path d="M42.8489 29.0824C42.9064 29.0863 42.964 29.0777 43.018 29.0575C43.0719 29.0372 43.1208 29.0056 43.1616 28.9649C43.2023 28.9242 43.2339 28.8752 43.2541 28.8213C43.2744 28.7673 43.2829 28.7097 43.2791 28.6522V24.3501C43.2791 24.236 43.2338 24.1266 43.1531 24.0459C43.0725 23.9652 42.963 23.9199 42.8489 23.9199C42.7348 23.9199 42.6254 23.9652 42.5447 24.0459C42.464 24.1266 42.4187 24.236 42.4187 24.3501V28.6522C42.4152 28.7054 42.4222 28.7587 42.4394 28.8091C42.4565 28.8595 42.4835 28.906 42.5187 28.946C42.5538 28.9859 42.5966 29.0186 42.6444 29.042C42.6922 29.0654 42.7442 29.0792 42.7973 29.0824H42.8489Z" fill="#555555"/>
<path d="M37.6865 23.9198C37.629 23.916 37.5714 23.9245 37.5174 23.9448C37.4635 23.9651 37.4146 23.9967 37.3738 24.0374C37.3331 24.0781 37.3015 24.1271 37.2812 24.181C37.261 24.2349 37.2525 24.2926 37.2563 24.35V28.6521C37.2563 28.7662 37.3016 28.8757 37.3823 28.9563C37.4629 29.037 37.5724 29.0824 37.6865 29.0824C37.8006 29.0824 37.91 29.037 37.9907 28.9563C38.0713 28.8757 38.1167 28.7662 38.1167 28.6521V24.35C38.1202 24.2969 38.1131 24.2436 38.096 24.1932C38.0789 24.1428 38.0519 24.0963 38.0167 24.0563C37.9816 24.0163 37.9388 23.9837 37.891 23.9603C37.8432 23.9369 37.7912 23.9231 37.7381 23.9198H37.6865Z" fill="#555555"/>
<path d="M89.3117 18.9293C89.1331 18.9413 88.9649 19.0177 88.8384 19.1443C88.7118 19.2709 88.6354 19.439 88.6233 19.6176V22.8011H68.4895C68.485 21.8441 68.1028 20.9276 67.426 20.2508C66.7493 19.5741 65.8328 19.1919 64.8757 19.1874H58.6807C58.0496 19.1823 57.4289 19.3475 56.8838 19.6655C56.3387 19.9835 55.8894 20.4425 55.5832 20.9943V18.327C55.5711 18.1484 55.4947 17.9802 55.3681 17.8537C55.2416 17.7271 55.0734 17.6507 54.8948 17.6386H52.1415V1.37667H52.3136C52.4922 1.36459 52.6603 1.28819 52.7869 1.16163C52.9134 1.03507 52.9898 0.866917 53.0019 0.688337C52.9898 0.509756 52.9134 0.341607 52.7869 0.215043C52.6603 0.0884787 52.4922 0.0120795 52.3136 0L28.2218 0C28.0432 0.0120795 27.8751 0.0884787 27.7485 0.215043C27.6219 0.341607 27.5455 0.509756 27.5335 0.688337C27.5455 0.866917 27.6219 1.03507 27.7485 1.16163C27.8751 1.28819 28.0432 1.36459 28.2218 1.37667H28.3939V30.9751H8.26004V26.3289H11.4436C11.5443 26.3317 11.6441 26.3097 11.7341 26.2646C11.8242 26.2196 11.9017 26.153 11.9598 26.0707C12.0373 25.9931 12.0876 25.8925 12.1031 25.7839C12.1186 25.6753 12.0985 25.5647 12.0459 25.4685L10.7553 20.3059C10.7224 20.1512 10.6345 20.0136 10.508 19.9186C10.3814 19.8237 10.2247 19.7779 10.0669 19.7897H4.9044C4.74662 19.7779 4.58993 19.8237 4.46336 19.9186C4.33679 20.0136 4.24893 20.1512 4.21606 20.3059L2.92543 25.4685C2.89734 25.5693 2.89049 25.675 2.9053 25.7786C2.92011 25.8823 2.95626 25.9818 3.01147 26.0707C3.07584 26.1462 3.15471 26.2079 3.24339 26.2522C3.33208 26.2966 3.42877 26.3226 3.52772 26.3289H6.88337V30.9751H0.688337C0.505778 30.9751 0.330697 31.0477 0.201609 31.1768C0.072521 31.3058 0 31.4809 0 31.6635C0 31.846 0.072521 32.0211 0.201609 32.1502C0.330697 32.2793 0.505778 32.3518 0.688337 32.3518H0.860421V55.7553C0.8725 55.9338 0.948899 56.102 1.07546 56.2286C1.20203 56.3551 1.37018 56.4315 1.54876 56.4436C1.72734 56.4315 1.89549 56.3551 2.02205 56.2286C2.14862 56.102 2.22501 55.9338 2.23709 55.7553V37.5143H28.3939V55.7553C28.3939 55.9378 28.4664 56.1129 28.5955 56.242C28.7246 56.3711 28.8997 56.4436 29.0822 56.4436C29.2648 56.4436 29.4399 56.3711 29.5689 56.242C29.698 56.1129 29.7706 55.9378 29.7706 55.7553V54.7228H50.7648V55.7553C50.7648 55.9378 50.8373 56.1129 50.9664 56.242C51.0955 56.3711 51.2706 56.4436 51.4532 56.4436C51.6357 56.4436 51.8108 56.3711 51.9399 56.242C52.069 56.1129 52.1415 55.9378 52.1415 55.7553V55.7553V54.2925H77.4379V55.3251C77.4379 55.5076 77.5104 55.6827 77.6395 55.8118C77.7686 55.9409 77.9436 56.0134 78.1262 56.0134C78.3088 56.0134 78.4838 55.9409 78.6129 55.8118C78.742 55.6827 78.8145 55.5076 78.8145 55.3251V54.2925H88.6233V55.3251C88.6233 55.5076 88.6958 55.6827 88.8249 55.8118C88.954 55.9409 89.1291 56.0134 89.3117 56.0134C89.4942 56.0134 89.6693 55.9409 89.7984 55.8118C89.9275 55.6827 90 55.5076 90 55.3251V55.3251V19.6176C89.9879 19.439 89.9115 19.2709 89.785 19.1443C89.6584 19.0177 89.4902 18.9413 89.3117 18.9293V18.9293ZM5.50669 21.1663H9.63671L10.5832 24.9522H4.56023L5.50669 21.1663ZM68.4034 45.6023C68.2941 44.7217 67.8661 43.9117 67.2003 43.3252C66.5345 42.7386 65.677 42.4162 64.7897 42.4187H58.5946C57.9636 42.4137 57.3429 42.5789 56.7978 42.8968C56.2527 43.2148 55.8034 43.6738 55.4971 44.2256V41.1281C55.4851 40.9495 55.4087 40.7814 55.2821 40.6548C55.1555 40.5283 54.9874 40.4519 54.8088 40.4398H52.0554V31.9216H77.4379V45.6023H68.4034ZM67.0268 45.6023H56.5296C56.6307 45.0862 56.9103 44.6222 57.3194 44.2918C57.7285 43.9614 58.2409 43.7856 58.7667 43.7954H64.9618C65.4645 43.8023 65.9483 43.9879 66.3267 44.3189C66.7051 44.65 66.9532 45.1049 67.0268 45.6023V45.6023ZM78.8145 31.9216H88.6233V38.2887H78.8145V31.9216ZM78.8145 39.6654H88.6233V45.6023H78.8145V39.6654ZM88.6233 30.5449H78.8145V24.1778H88.6233V30.5449ZM58.6807 20.5641H64.8757C65.4656 20.5751 66.0282 20.8143 66.4454 21.2315C66.8625 21.6487 67.1018 22.2113 67.1128 22.8011H56.4436C56.4546 22.2113 56.6939 21.6487 57.111 21.2315C57.5282 20.8143 58.0908 20.5751 58.6807 20.5641V20.5641ZM54.2065 19.0153V23.4895C54.2186 23.6681 54.295 23.8362 54.4215 23.9628C54.5481 24.0893 54.7163 24.1657 54.8948 24.1778H77.4379V30.5449H52.1415V19.0153H54.2065ZM50.7648 53.3461H40.956V1.37667H50.7648V53.3461ZM28.2218 36.1377H2.23709V32.3518H28.3939V36.1377H28.2218ZM29.7706 1.37667H39.5793V53.3461H29.7706V1.37667ZM52.1415 52.9159V41.8164H54.2065V46.2906C54.2186 46.4692 54.295 46.6374 54.4215 46.7639C54.5481 46.8905 54.7163 46.9669 54.8948 46.979H77.4379V52.9159H52.1415ZM78.8145 52.9159V46.979H88.6233V52.9159H78.8145Z" fill="#555555"/>
<path d="M82.4283 26.501H85.0095C85.1236 26.501 85.233 26.4557 85.3137 26.375C85.3944 26.2944 85.4397 26.1849 85.4397 26.0708C85.4397 25.9567 85.3944 25.8473 85.3137 25.7666C85.233 25.686 85.1236 25.6406 85.0095 25.6406H82.4283C82.3142 25.6406 82.2047 25.686 82.1241 25.7666C82.0434 25.8473 81.998 25.9567 81.998 26.0708C81.998 26.1849 82.0434 26.2944 82.1241 26.375C82.2047 26.4557 82.3142 26.501 82.4283 26.501Z" fill="#555555"/>
<path d="M85.0095 33.3843H82.4283C82.3142 33.3843 82.2047 33.4296 82.1241 33.5103C82.0434 33.591 81.998 33.7004 81.998 33.8145C81.998 33.9286 82.0434 34.038 82.1241 34.1187C82.2047 34.1994 82.3142 34.2447 82.4283 34.2447H85.0095C85.1236 34.2447 85.233 34.1994 85.3137 34.1187C85.3944 34.038 85.4397 33.9286 85.4397 33.8145C85.4397 33.7004 85.3944 33.591 85.3137 33.5103C85.233 33.4296 85.1236 33.3843 85.0095 33.3843Z" fill="#555555"/>
<path d="M85.0095 41.1279H82.4283C82.3142 41.1279 82.2047 41.1733 82.1241 41.2539C82.0434 41.3346 81.998 41.444 81.998 41.5581C81.998 41.6722 82.0434 41.7817 82.1241 41.8623C82.2047 41.943 82.3142 41.9883 82.4283 41.9883H85.0095C85.1236 41.9883 85.233 41.943 85.3137 41.8623C85.3944 41.7817 85.4397 41.6722 85.4397 41.5581C85.4397 41.444 85.3944 41.3346 85.3137 41.2539C85.233 41.1733 85.1236 41.1279 85.0095 41.1279Z" fill="#555555"/>
<path d="M85.0095 48.8721H82.4283C82.3142 48.8721 82.2047 48.9174 82.1241 48.9981C82.0434 49.0788 81.998 49.1882 81.998 49.3023C81.998 49.4164 82.0434 49.5258 82.1241 49.6065C82.2047 49.6872 82.3142 49.7325 82.4283 49.7325H85.0095C85.1236 49.7325 85.233 49.6872 85.3137 49.6065C85.3944 49.5258 85.4397 49.4164 85.4397 49.3023C85.4397 49.1882 85.3944 49.0788 85.3137 48.9981C85.233 48.9174 85.1236 48.8721 85.0095 48.8721Z" fill="#555555"/>
</g>
<defs>
<clipPath id="clip0">
<rect width="90" height="56.4436" fill="white"/>
</clipPath>
</defs>
</svg>
