<svg width="90" height="71" viewBox="0 0 90 71" fill="none" xmlns="http://www.w3.org/2000/svg">
<g clip-path="url(#clip0)">
<path d="M37.6767 38.1816H1.31311V68.4847H37.6767V38.1816Z" fill="#FFDE00"/>
<path d="M37.6767 0.808105H1.31311V26.0606H37.6767V0.808105Z" fill="#FFDE00"/>
<path d="M88.1818 0.808105H59.8989V26.0606H88.1818V0.808105Z" fill="#FFDE00"/>
<path d="M88.1818 38.1816H59.8989V68.4847H88.1818V38.1816Z" fill="#FFDE00"/>
<path d="M8.38387 50.3031C8.31647 50.299 8.24896 50.3092 8.18582 50.3332C8.12267 50.3571 8.06532 50.3941 8.01757 50.4419C7.96982 50.4896 7.93276 50.547 7.90884 50.6101C7.88492 50.6733 7.87469 50.7408 7.87882 50.8082V55.3536C7.87882 55.4876 7.93203 55.6161 8.02675 55.7108C8.12146 55.8055 8.24993 55.8587 8.38387 55.8587C8.51782 55.8587 8.64628 55.8055 8.741 55.7108C8.83571 55.6161 8.88892 55.4876 8.88892 55.3536V50.8082C8.89306 50.7408 8.88282 50.6733 8.8589 50.6101C8.83499 50.547 8.79792 50.4896 8.75018 50.4419C8.70243 50.3941 8.64508 50.3571 8.58193 50.3332C8.51878 50.3092 8.45127 50.299 8.38387 50.3031Z" fill="#333333"/>
<path d="M88.6869 37.3738H54.1414V33.6364H54.5454C54.6794 33.6364 54.8078 33.5832 54.9026 33.4885C54.9973 33.3937 55.0505 33.2653 55.0505 33.1313C55.0505 32.9974 54.9973 32.8689 54.9026 32.7742C54.8078 32.6795 54.6794 32.6263 54.5454 32.6263H54.0404V31.6162C54.0262 31.4065 53.9365 31.2091 53.7879 31.0606C53.6394 30.912 53.442 30.8223 53.2323 30.8081H44.1414C43.9318 30.8223 43.7344 30.912 43.5858 31.0606C43.4372 31.2091 43.3475 31.4065 43.3333 31.6162V32.6263H42.8283C42.6943 32.6263 42.5659 32.6795 42.4711 32.7742C42.3764 32.8689 42.3232 32.9974 42.3232 33.1313C42.3232 33.2653 42.3764 33.3937 42.4711 33.4885C42.5659 33.5832 42.6943 33.6364 42.8283 33.6364H43.4343V37.3738H0.808069C0.598422 37.3879 0.401022 37.4776 0.25244 37.6262C0.103859 37.7748 0.0141691 37.9722 -1.17417e-05 38.1818C-0.010984 38.3554 0.0462086 38.5264 0.159397 38.6585C0.272586 38.7905 0.432835 38.8732 0.606049 38.8889C0.606049 38.9899 0.505039 39.0909 0.505039 39.1919V69.495C0.51922 69.7046 0.608909 69.902 0.757491 70.0506C0.906072 70.1992 1.10347 70.2889 1.31312 70.3031C1.52277 70.2889 1.72017 70.1992 1.86875 70.0506C2.01733 69.902 2.10702 69.7046 2.1212 69.495V69.293H20.7071V69.495C20.7071 69.7093 20.7922 69.9148 20.9437 70.0664C21.0953 70.2179 21.3008 70.3031 21.5151 70.3031C21.7295 70.3031 21.935 70.2179 22.0865 70.0664C22.2381 69.9148 22.3232 69.7093 22.3232 69.495V69.293H36.8687V69.495C36.8687 69.7093 36.9538 69.9148 37.1054 70.0664C37.2569 70.2179 37.4624 70.3031 37.6768 70.3031C37.8911 70.3031 38.0966 70.2179 38.2482 70.0664C38.3997 69.9148 38.4848 69.7093 38.4848 69.495V69.293H59.0909V69.495C59.0909 69.7093 59.176 69.9148 59.3276 70.0664C59.4791 70.2179 59.6847 70.3031 59.899 70.3031C60.1133 70.3031 60.3188 70.2179 60.4704 70.0664C60.6219 69.9148 60.7071 69.7093 60.7071 69.495V69.293H87.3737V69.495C87.3737 69.7093 87.4589 69.9148 87.6104 70.0664C87.7619 70.2179 87.9675 70.3031 88.1818 70.3031C88.3961 70.3031 88.6017 70.2179 88.7532 70.0664C88.9047 69.9148 88.9899 69.7093 88.9899 69.495V38.8889C89.1363 38.8369 89.2632 38.7412 89.3535 38.6147C89.4438 38.4883 89.4932 38.3372 89.4949 38.1818C89.4808 37.9722 89.3911 37.7748 89.2425 37.6262C89.0939 37.4776 88.8965 37.3879 88.6869 37.3738V37.3738ZM36.8687 45.4546H22.3232V38.9899H36.9697V45.4546H36.8687ZM22.3232 47.0707H36.8687V54.5455H22.3232V47.0707ZM38.4848 47.0707H59.0909V62.6263H38.4848V47.0707ZM59.0909 39.1919V45.4546H38.4848V38.9899H59.0909V39.1919ZM45.0505 32.4243H52.5252V37.3738H45.0505V32.4243ZM2.1212 67.6768V38.9899H10.7071V67.6768H2.1212ZM12.2222 67.6768V38.9899H20.8081V67.6768H12.2222ZM22.3232 67.6768V56.1616H36.8687V67.6768H22.3232ZM38.4848 67.6768V64.2424H59.0909V67.6768H38.4848ZM60.7071 39.1919V38.9899H73.3333V67.6768H60.7071V39.1919ZM87.1717 67.6768H74.8485V38.9899H87.3737V67.6768H87.1717Z" fill="#333333"/>
<path d="M89.1919 0H58.8889C58.6792 0.0141809 58.4818 0.103871 58.3333 0.252452C58.1847 0.401033 58.095 0.598434 58.0808 0.808081C58.095 1.01773 58.1847 1.21513 58.3333 1.36371C58.4818 1.51229 58.6792 1.60198 58.8889 1.61616H59.0909V26.0606C59.1051 26.2703 59.1948 26.4677 59.3434 26.6162C59.4919 26.7648 59.6893 26.8545 59.899 26.8687H88.1818C88.3915 26.8545 88.5889 26.7648 88.7375 26.6162C88.886 26.4677 88.9757 26.2703 88.9899 26.0606V1.61616H89.1919C89.4016 1.60198 89.599 1.51229 89.7476 1.36371C89.8961 1.21513 89.9858 1.01773 90 0.808081C89.9858 0.598434 89.8961 0.401033 89.7476 0.252452C89.599 0.103871 89.4016 0.0141809 89.1919 0V0ZM60.7071 1.61616H73.3333V25.2525H60.7071V1.61616ZM87.3737 1.81818V25.2525H74.8485V1.61616H87.4748C87.3737 1.71717 87.3737 1.71717 87.3737 1.81818Z" fill="#333333"/>
<path d="M40.707 23.8382H56.8686C57.0829 23.8382 57.2885 23.753 57.44 23.6015C57.5916 23.45 57.6767 23.2444 57.6767 23.0301C57.6767 22.8158 57.5916 22.6102 57.44 22.4587C57.2885 22.3072 57.0829 22.222 56.8686 22.222H56.6666V17.7776L53.6363 6.16141C53.5977 5.97973 53.4946 5.8182 53.346 5.70676C53.1974 5.59532 53.0134 5.54153 52.8282 5.55535H44.7474C44.5622 5.54153 44.3782 5.59532 44.2297 5.70676C44.0811 5.8182 43.9779 5.97973 43.9393 6.16141L40.909 17.7776V22.222H40.707C40.4927 22.222 40.2872 22.3072 40.1356 22.4587C39.9841 22.6102 39.8989 22.8158 39.8989 23.0301C39.8989 23.2444 39.9841 23.45 40.1356 23.6015C40.2872 23.753 40.4927 23.8382 40.707 23.8382ZM45.3535 7.17152H52.2222L54.8484 17.1715H42.7272L45.3535 7.17152ZM42.5252 22.02V18.7877H55.0504V22.222H42.5252V22.02Z" fill="#333333"/>
<path d="M0.606049 1.51515C0.606049 1.61616 0.505039 1.71717 0.505039 1.81818V26.0606C0.51922 26.2703 0.608909 26.4677 0.757491 26.6162C0.906072 26.7648 1.10347 26.8545 1.31312 26.8687H37.6768C37.8864 26.8545 38.0838 26.7648 38.2324 26.6162C38.381 26.4677 38.4707 26.2703 38.4848 26.0606V1.81818C38.4917 1.76334 38.4861 1.70766 38.4686 1.65523C38.4512 1.6028 38.4222 1.55494 38.3838 1.51515C38.5417 1.46719 38.6825 1.37519 38.7899 1.24994C38.8973 1.12469 38.9666 0.971398 38.9899 0.808081C38.9757 0.598434 38.886 0.401033 38.7374 0.252452C38.5889 0.103871 38.3915 0.0141809 38.1818 0L0.808069 0C0.598422 0.0141809 0.401022 0.103871 0.25244 0.252452C0.103859 0.401033 0.0141691 0.598434 -1.17416e-05 0.808081C-0.010984 0.981659 0.0462086 1.15267 0.159397 1.28472C0.272586 1.41677 0.432835 1.49945 0.606049 1.51515V1.51515ZM2.1212 1.61616H10.7071V25.2525H2.1212V1.61616ZM20.7071 25.2525H12.2222V1.61616H20.8081V25.2525H20.7071ZM36.8687 25.2525H22.3232V1.61616H36.9697V25.2525H36.8687Z" fill="#333333"/>
<path d="M42.7273 41.2122C42.5925 41.2041 42.4576 41.2246 42.3313 41.2725C42.2051 41.3204 42.0905 41.3946 41.995 41.49C41.8996 41.5855 41.8254 41.7001 41.7776 41.8263C41.7297 41.9526 41.7091 42.0875 41.7172 42.2223C41.7172 42.4902 41.8236 42.7471 42.013 42.9365C42.2025 43.126 42.4594 43.2324 42.7273 43.2324C42.9952 43.2324 43.2521 43.126 43.4415 42.9365C43.631 42.7471 43.7374 42.4902 43.7374 42.2223C43.7374 41.9544 43.631 41.6975 43.4415 41.508C43.2521 41.3186 42.9952 41.2122 42.7273 41.2122Z" fill="#333333"/>
<path d="M46.7677 41.2122C46.6329 41.2041 46.498 41.2246 46.3717 41.2725C46.2455 41.3204 46.1309 41.3946 46.0354 41.49C45.94 41.5855 45.8659 41.7001 45.818 41.8263C45.7701 41.9526 45.7495 42.0875 45.7576 42.2223C45.7576 42.4902 45.864 42.7471 46.0534 42.9365C46.2429 43.126 46.4998 43.2324 46.7677 43.2324C47.0356 43.2324 47.2925 43.126 47.4819 42.9365C47.6714 42.7471 47.7778 42.4902 47.7778 42.2223C47.7778 41.9544 47.6714 41.6975 47.4819 41.508C47.2925 41.3186 47.0356 41.2122 46.7677 41.2122Z" fill="#333333"/>
<path d="M50.8081 41.2122C50.6733 41.2041 50.5384 41.2246 50.4122 41.2725C50.2859 41.3204 50.1713 41.3946 50.0758 41.49C49.9804 41.5855 49.9063 41.7001 49.8584 41.8263C49.8105 41.9526 49.7899 42.0875 49.798 42.2223C49.798 42.4902 49.9044 42.7471 50.0938 42.9365C50.2833 43.126 50.5402 43.2324 50.8081 43.2324C51.076 43.2324 51.3329 43.126 51.5223 42.9365C51.7118 42.7471 51.8182 42.4902 51.8182 42.2223C51.8182 41.9544 51.7118 41.6975 51.5223 41.508C51.3329 41.3186 51.076 41.2122 50.8081 41.2122Z" fill="#333333"/>
<path d="M54.8485 43.2324C55.1164 43.2324 55.3733 43.126 55.5627 42.9365C55.7522 42.7471 55.8586 42.4902 55.8586 42.2223C55.8586 41.9544 55.7522 41.6975 55.5627 41.508C55.3733 41.3186 55.1164 41.2122 54.8485 41.2122C54.7137 41.2041 54.5788 41.2246 54.4526 41.2725C54.3263 41.3204 54.2117 41.3946 54.1162 41.49C54.0208 41.5855 53.9467 41.7001 53.8988 41.8263C53.8509 41.9526 53.8303 42.0875 53.8384 42.2223C53.8384 42.4902 53.9448 42.7471 54.1342 42.9365C54.3237 43.126 54.5806 43.2324 54.8485 43.2324Z" fill="#333333"/>
<path d="M14.4444 50.3031C14.377 50.299 14.3095 50.3092 14.2464 50.3332C14.1832 50.3571 14.1259 50.3941 14.0781 50.4419C14.0304 50.4896 13.9933 50.547 13.9694 50.6101C13.9455 50.6733 13.9352 50.7408 13.9394 50.8082V55.3536C13.9394 55.4876 13.9926 55.6161 14.0873 55.7108C14.182 55.8055 14.3105 55.8587 14.4444 55.8587C14.5784 55.8587 14.7068 55.8055 14.8015 55.7108C14.8963 55.6161 14.9495 55.4876 14.9495 55.3536V50.8082C14.9536 50.7408 14.9434 50.6733 14.9195 50.6101C14.8955 50.547 14.8585 50.4896 14.8107 50.4419C14.763 50.3941 14.7056 50.3571 14.6425 50.3332C14.5793 50.3092 14.5118 50.299 14.4444 50.3031Z" fill="#333333"/>
<path d="M71.0101 50.3031C70.9427 50.299 70.8752 50.3092 70.812 50.3332C70.7489 50.3571 70.6915 50.3941 70.6438 50.4419C70.596 50.4896 70.559 50.547 70.5351 50.6101C70.5111 50.6733 70.5009 50.7408 70.505 50.8082V55.3536C70.505 55.4876 70.5583 55.6161 70.653 55.7108C70.7477 55.8055 70.8761 55.8587 71.0101 55.8587C71.144 55.8587 71.2725 55.8055 71.3672 55.7108C71.4619 55.6161 71.5151 55.4876 71.5151 55.3536V50.8082C71.5193 50.7408 71.509 50.6733 71.4851 50.6101C71.4612 50.547 71.4241 50.4896 71.3764 50.4419C71.3286 50.3941 71.2713 50.3571 71.2081 50.3332C71.145 50.3092 71.0775 50.299 71.0101 50.3031V50.3031Z" fill="#333333"/>
<path d="M77.0706 50.3031C77.0032 50.299 76.9357 50.3092 76.8726 50.3332C76.8094 50.3571 76.7521 50.3941 76.7043 50.4419C76.6566 50.4896 76.6195 50.547 76.5956 50.6101C76.5717 50.6733 76.5615 50.7408 76.5656 50.8082V55.3536C76.5656 55.4876 76.6188 55.6161 76.7135 55.7108C76.8082 55.8055 76.9367 55.8587 77.0706 55.8587C77.2046 55.8587 77.3331 55.8055 77.4278 55.7108C77.5225 55.6161 77.5757 55.4876 77.5757 55.3536V50.8082C77.5798 50.7408 77.5696 50.6733 77.5457 50.6101C77.5218 50.547 77.4847 50.4896 77.4369 50.4419C77.3892 50.3941 77.3319 50.3571 77.2687 50.3332C77.2056 50.3092 77.138 50.299 77.0706 50.3031V50.3031Z" fill="#333333"/>
<path d="M31.111 48.7881H28.0807C27.9468 48.7881 27.8183 48.8413 27.7236 48.936C27.6289 49.0307 27.5757 49.1592 27.5757 49.2931C27.5757 49.4271 27.6289 49.5555 27.7236 49.6503C27.8183 49.745 27.9468 49.7982 28.0807 49.7982H31.111C31.245 49.7982 31.3734 49.745 31.4682 49.6503C31.5629 49.5555 31.6161 49.4271 31.6161 49.2931C31.6161 49.1592 31.5629 49.0307 31.4682 48.936C31.3734 48.8413 31.245 48.7881 31.111 48.7881Z" fill="#333333"/>
<path d="M8.38387 19.495C8.45127 19.4991 8.51878 19.4889 8.58193 19.465C8.64508 19.4411 8.70243 19.404 8.75018 19.3563C8.79792 19.3085 8.83499 19.2512 8.8589 19.188C8.88282 19.1249 8.89306 19.0574 8.88892 18.99V14.4445C8.88892 14.3106 8.83571 14.1821 8.741 14.0874C8.64628 13.9927 8.51782 13.9395 8.38387 13.9395C8.24993 13.9395 8.12146 13.9927 8.02675 14.0874C7.93203 14.1821 7.87882 14.3106 7.87882 14.4445V18.99C7.87469 19.0574 7.88492 19.1249 7.90884 19.188C7.93276 19.2512 7.96982 19.3085 8.01757 19.3563C8.06532 19.404 8.12267 19.4411 8.18582 19.465C8.24896 19.4889 8.31647 19.4991 8.38387 19.495V19.495Z" fill="#333333"/>
<path d="M14.4444 13.9394C14.377 13.9352 14.3095 13.9455 14.2464 13.9694C14.1832 13.9933 14.1259 14.0304 14.0781 14.0781C14.0304 14.1259 13.9933 14.1832 13.9694 14.2464C13.9455 14.3095 13.9352 14.377 13.9394 14.4444V18.9899C13.9394 19.1238 13.9926 19.2523 14.0873 19.347C14.182 19.4417 14.3105 19.4949 14.4444 19.4949C14.5784 19.4949 14.7068 19.4417 14.8015 19.347C14.8963 19.2523 14.9495 19.1238 14.9495 18.9899V14.4444C14.9536 14.377 14.9434 14.3095 14.9195 14.2464C14.8955 14.1832 14.8585 14.1259 14.8107 14.0781C14.763 14.0304 14.7056 13.9933 14.6425 13.9694C14.5793 13.9455 14.5118 13.9352 14.4444 13.9394V13.9394Z" fill="#333333"/>
<path d="M24.5454 13.9394C24.478 13.9352 24.4105 13.9455 24.3473 13.9694C24.2842 13.9933 24.2268 14.0304 24.1791 14.0781C24.1313 14.1259 24.0943 14.1832 24.0703 14.2464C24.0464 14.3095 24.0362 14.377 24.0403 14.4444V18.9899C24.0403 19.1238 24.0935 19.2523 24.1882 19.347C24.283 19.4417 24.4114 19.4949 24.5454 19.4949C24.6793 19.4949 24.8078 19.4417 24.9025 19.347C24.9972 19.2523 25.0504 19.1238 25.0504 18.9899V14.4444C25.0546 14.377 25.0443 14.3095 25.0204 14.2464C24.9965 14.1832 24.9594 14.1259 24.9117 14.0781C24.8639 14.0304 24.8066 13.9933 24.7434 13.9694C24.6803 13.9455 24.6128 13.9352 24.5454 13.9394V13.9394Z" fill="#333333"/>
<path d="M71.0101 19.495C71.0775 19.4991 71.145 19.4889 71.2081 19.465C71.2713 19.4411 71.3286 19.404 71.3764 19.3563C71.4241 19.3085 71.4612 19.2512 71.4851 19.188C71.509 19.1249 71.5193 19.0574 71.5151 18.99V14.4445C71.5151 14.3106 71.4619 14.1821 71.3672 14.0874C71.2725 13.9927 71.144 13.9395 71.0101 13.9395C70.8761 13.9395 70.7477 13.9927 70.653 14.0874C70.5583 14.1821 70.505 14.3106 70.505 14.4445V18.99C70.5009 19.0574 70.5111 19.1249 70.5351 19.188C70.559 19.2512 70.596 19.3085 70.6438 19.3563C70.6915 19.404 70.7489 19.4411 70.812 19.465C70.8752 19.4889 70.9427 19.4991 71.0101 19.495V19.495Z" fill="#333333"/>
<path d="M77.0706 19.495C77.138 19.4991 77.2056 19.4889 77.2687 19.465C77.3319 19.4411 77.3892 19.404 77.4369 19.3563C77.4847 19.3085 77.5218 19.2512 77.5457 19.188C77.5696 19.1249 77.5798 19.0574 77.5757 18.99V14.4445C77.5757 14.3106 77.5225 14.1821 77.4278 14.0874C77.3331 13.9927 77.2046 13.9395 77.0706 13.9395C76.9367 13.9395 76.8082 13.9927 76.7135 14.0874C76.6188 14.1821 76.5656 14.3106 76.5656 14.4445V18.99C76.5615 19.0574 76.5717 19.1249 76.5956 19.188C76.6195 19.2512 76.6566 19.3085 76.7043 19.3563C76.7521 19.404 76.8094 19.4411 76.8726 19.465C76.9357 19.4889 77.0032 19.4991 77.0706 19.495V19.495Z" fill="#333333"/>
<path d="M31.111 40.707H28.0807C27.9468 40.707 27.8183 40.7602 27.7236 40.855C27.6289 40.9497 27.5757 41.0781 27.5757 41.2121C27.5757 41.346 27.6289 41.4745 27.7236 41.5692C27.8183 41.6639 27.9468 41.7171 28.0807 41.7171H31.111C31.245 41.7171 31.3734 41.6639 31.4682 41.5692C31.5629 41.4745 31.6161 41.346 31.6161 41.2121C31.6161 41.0781 31.5629 40.9497 31.4682 40.855C31.3734 40.7602 31.245 40.707 31.111 40.707Z" fill="#333333"/>
</g>
<defs>
<clipPath id="clip0">
<rect width="90" height="70.303" fill="white"/>
</clipPath>
</defs>
</svg>
