<svg width="90" height="58" viewBox="0 0 90 58" fill="none" xmlns="http://www.w3.org/2000/svg">
<g clip-path="url(#clip0)">
<rect x="1" width="13" height="55" fill="#F7D917"/>
<path d="M81.2818 41.2132C81.5154 41.2132 81.7394 41.1205 81.9045 40.9553C82.0697 40.7902 82.1625 40.5662 82.1625 40.3326C82.1625 40.0991 82.0697 39.8751 81.9045 39.7099C81.7394 39.5448 81.5154 39.452 81.2818 39.452C81.1642 39.4442 81.0462 39.4617 80.9358 39.5032C80.8255 39.5447 80.7252 39.6093 80.6419 39.6926C80.5585 39.776 80.4939 39.8763 80.4524 39.9866C80.4109 40.097 80.3934 40.215 80.4012 40.3326C80.4012 40.5662 80.494 40.7902 80.6591 40.9553C80.8243 41.1205 81.0483 41.2132 81.2818 41.2132Z" fill="#555555"/>
<path d="M75.998 41.2132C76.2316 41.2132 76.4556 41.1205 76.6207 40.9553C76.7859 40.7902 76.8787 40.5662 76.8787 40.3326C76.8787 40.0991 76.7859 39.8751 76.6207 39.7099C76.4556 39.5448 76.2316 39.452 75.998 39.452C75.8804 39.4442 75.7624 39.4617 75.652 39.5032C75.5417 39.5447 75.4414 39.6093 75.3581 39.6926C75.2747 39.776 75.2101 39.8763 75.1686 39.9866C75.1271 40.097 75.1096 40.215 75.1174 40.3326C75.1174 40.5662 75.2102 40.7902 75.3753 40.9553C75.5405 41.1205 75.7645 41.2132 75.998 41.2132Z" fill="#555555"/>
<path d="M70.7143 41.2132C70.9479 41.2132 71.1719 41.1205 71.337 40.9553C71.5022 40.7902 71.595 40.5662 71.595 40.3326C71.595 40.0991 71.5022 39.8751 71.337 39.7099C71.1719 39.5448 70.9479 39.452 70.7143 39.452C70.5967 39.4442 70.4787 39.4617 70.3683 39.5032C70.258 39.5447 70.1577 39.6093 70.0744 39.6926C69.991 39.776 69.9264 39.8763 69.8849 39.9866C69.8434 40.097 69.8259 40.215 69.8337 40.3326C69.8337 40.5662 69.9265 40.7902 70.0916 40.9553C70.2568 41.1205 70.4808 41.2132 70.7143 41.2132Z" fill="#555555"/>
<path d="M73.3562 44.7357C73.5897 44.7357 73.8137 44.6429 73.9789 44.4778C74.144 44.3126 74.2368 44.0886 74.2368 43.8551C74.2368 43.6215 74.144 43.3975 73.9789 43.2324C73.8137 43.0672 73.5897 42.9745 73.3562 42.9745C73.2385 42.9667 73.1206 42.9841 73.0102 43.0256C72.8998 43.0671 72.7996 43.1317 72.7162 43.2151C72.6328 43.2985 72.5682 43.3987 72.5267 43.5091C72.4852 43.6195 72.4678 43.7374 72.4756 43.8551C72.4756 44.0886 72.5683 44.3126 72.7335 44.4778C72.8986 44.6429 73.1226 44.7357 73.3562 44.7357Z" fill="#555555"/>
<path d="M78.6399 44.7357C78.8734 44.7357 79.0974 44.6429 79.2626 44.4778C79.4277 44.3126 79.5205 44.0886 79.5205 43.8551C79.5205 43.6215 79.4277 43.3975 79.2626 43.2324C79.0974 43.0672 78.8734 42.9745 78.6399 42.9745C78.5222 42.9667 78.4043 42.9841 78.2939 43.0256C78.1835 43.0671 78.0833 43.1317 77.9999 43.2151C77.9165 43.2985 77.8519 43.3987 77.8104 43.5091C77.7689 43.6195 77.7515 43.7374 77.7593 43.8551C77.7593 44.0886 77.852 44.3126 78.0172 44.4778C78.1823 44.6429 78.4063 44.7357 78.6399 44.7357Z" fill="#555555"/>
<path d="M89.2074 42.2701H86.8297V35.9296C86.8173 35.7468 86.7391 35.5747 86.6096 35.4452C86.4801 35.3157 86.308 35.2375 86.1252 35.2251H65.8708C65.688 35.2375 65.5159 35.3157 65.3864 35.4452C65.2568 35.5747 65.1787 35.7468 65.1663 35.9296V42.2701H63.6692C63.4865 42.2825 63.3143 42.3607 63.1848 42.4902C63.0553 42.6197 62.9771 42.7918 62.9647 42.9746V55.3034C62.9771 55.4861 63.0553 55.6582 63.1848 55.7878C63.3143 55.9173 63.4865 55.9955 63.6692 56.0079H65.1663V57.0646C65.1663 57.2515 65.2405 57.4307 65.3726 57.5628C65.5048 57.6949 65.6839 57.7691 65.8708 57.7691C66.0576 57.7691 66.2368 57.6949 66.3689 57.5628C66.5011 57.4307 66.5753 57.2515 66.5753 57.0646V56.0079H85.9491V57.0646C85.9491 57.2515 86.0233 57.4307 86.1554 57.5628C86.2875 57.6949 86.4667 57.7691 86.6536 57.7691C86.8404 57.7691 87.0196 57.6949 87.1517 57.5628C87.2838 57.4307 87.3581 57.2515 87.3581 57.0646V56.0079H89.2955C89.4782 55.9955 89.6503 55.9173 89.7799 55.7878C89.9094 55.6582 89.9876 55.4861 89.9999 55.3034V42.9746C89.9549 42.7906 89.855 42.6247 89.7134 42.4989C89.5719 42.3731 89.3954 42.2933 89.2074 42.2701V42.2701ZM88.5029 51.957H84.6281V43.6791H88.5029V51.957ZM69.6575 51.957V48.9629H83.2191V51.957H69.6575ZM66.5753 36.6341H85.4207V42.2701H83.9236C83.7409 42.2825 83.5688 42.3607 83.4392 42.4902C83.3097 42.6197 83.2315 42.7918 83.2191 42.9746V47.5539H69.6575V42.9746C69.6451 42.7918 69.5669 42.6197 69.4374 42.4902C69.3079 42.3607 69.1358 42.2825 68.953 42.2701H66.5753V36.6341ZM68.2485 43.6791V51.957H64.3737V43.6791H68.2485ZM88.5029 54.5989H64.3737V53.366H88.5029V54.5989Z" fill="#555555"/>
<path d="M53.9823 50.46H51.3405C51.2237 50.46 51.1117 50.5064 51.0291 50.5889C50.9465 50.6715 50.9001 50.7835 50.9001 50.9003C50.9001 51.0171 50.9465 51.129 51.0291 51.2116C51.1117 51.2942 51.2237 51.3406 51.3405 51.3406H53.9823C54.0991 51.3406 54.2111 51.2942 54.2937 51.2116C54.3763 51.129 54.4226 51.0171 54.4226 50.9003C54.4226 50.7835 54.3763 50.6715 54.2937 50.5889C54.2111 50.5064 54.0991 50.46 53.9823 50.46Z" fill="#555555"/>
<path d="M51.3405 44.2957H53.9823C54.0991 44.2957 54.2111 44.2493 54.2937 44.1667C54.3763 44.0841 54.4226 43.9721 54.4226 43.8554C54.4226 43.7386 54.3763 43.6266 54.2937 43.544C54.2111 43.4614 54.0991 43.415 53.9823 43.415H51.3405C51.2237 43.415 51.1117 43.4614 51.0291 43.544C50.9465 43.6266 50.9001 43.7386 50.9001 43.8554C50.9001 43.9721 50.9465 44.0841 51.0291 44.1667C51.1117 44.2493 51.2237 44.2957 51.3405 44.2957Z" fill="#555555"/>
<path d="M51.3405 37.2507H53.9823C54.0991 37.2507 54.2111 37.2044 54.2937 37.1218C54.3763 37.0392 54.4226 36.9272 54.4226 36.8104C54.4226 36.6937 54.3763 36.5817 54.2937 36.4991C54.2111 36.4165 54.0991 36.3701 53.9823 36.3701H51.3405C51.2237 36.3701 51.1117 36.4165 51.0291 36.4991C50.9465 36.5817 50.9001 36.6937 50.9001 36.8104C50.9001 36.9272 50.9465 37.0392 51.0291 37.1218C51.1117 37.2044 51.2237 37.2507 51.3405 37.2507Z" fill="#555555"/>
<path d="M30.6458 19.0215H59.7065C59.8892 19.0092 60.0613 18.931 60.1909 18.8014C60.3204 18.6719 60.3986 18.4998 60.4109 18.317V0.704501C60.3986 0.521727 60.3204 0.349629 60.1909 0.220093C60.0613 0.0905565 59.8892 0.0123632 59.7065 0L30.6458 0C30.463 0.0123632 30.2909 0.0905565 30.1614 0.220093C30.0318 0.349629 29.9536 0.521727 29.9413 0.704501V18.317C29.9536 18.4998 30.0318 18.6719 30.1614 18.8014C30.2909 18.931 30.463 19.0092 30.6458 19.0215V19.0215ZM31.3503 10.2153H39.6282V17.6125H31.3503V10.2153ZM55.9198 17.6125L57.4168 12.2407C57.4519 12.1356 57.4437 12.0209 57.3942 11.9218C57.3446 11.8227 57.2577 11.7474 57.1526 11.7123C57.0475 11.6773 56.9328 11.6854 56.8337 11.735C56.7346 11.7845 56.6593 11.8714 56.6243 11.9765L55.0391 17.6125H53.2779L54.7749 12.2407C54.7923 12.1887 54.7992 12.1337 54.7953 12.079C54.7914 12.0243 54.7768 11.9709 54.7523 11.9218C54.7277 11.8727 54.6938 11.829 54.6524 11.793C54.6109 11.7571 54.5628 11.7297 54.5108 11.7123C54.4587 11.695 54.4038 11.6881 54.349 11.6919C54.2943 11.6958 54.2409 11.7105 54.1919 11.735C54.1428 11.7595 54.099 11.7935 54.0631 11.8349C54.0272 11.8764 53.9997 11.9245 53.9824 11.9765L52.3973 17.6125H50.636L52.1331 12.2407C52.1681 12.1356 52.1599 12.0209 52.1104 11.9218C52.0609 11.8227 51.974 11.7474 51.8689 11.7123C51.7638 11.6773 51.6491 11.6854 51.55 11.735C51.4509 11.7845 51.3755 11.8714 51.3405 11.9765L49.7554 17.6125H41.0372V10.2153H59.0019V17.6125H55.9198ZM59.0019 8.80626H51.6047V1.409H59.0019V8.80626ZM50.1957 1.409V8.80626H38.8356L37.2505 3.25832C37.242 3.21023 37.2241 3.16431 37.1977 3.12318C37.1714 3.08206 37.1372 3.04656 37.0971 3.01872C37.057 2.99089 37.0118 2.97127 36.964 2.961C36.9163 2.95074 36.867 2.95002 36.819 2.9589H36.7221C36.6224 2.98585 36.5372 3.05062 36.4846 3.13943C36.432 3.22824 36.4161 3.33409 36.4403 3.43444V3.48728L37.9374 8.8591H36.1761L34.6086 3.34638C34.5913 3.29434 34.5638 3.24623 34.5279 3.20478C34.4919 3.16334 34.4482 3.12939 34.3991 3.10486C34.3501 3.08032 34.2966 3.0657 34.2419 3.06181C34.1872 3.05792 34.1323 3.06485 34.0802 3.08219C34.0282 3.09954 33.9801 3.12697 33.9386 3.16291C33.8972 3.19885 33.8632 3.2426 33.8387 3.29167C33.8142 3.34073 33.7995 3.39414 33.7957 3.44886C33.7918 3.50358 33.7987 3.55853 33.816 3.61057L35.3131 8.98239H31.3503V1.409H50.1957Z" fill="#555555"/>
<path d="M41.2133 40.5088H29.7652C29.5824 40.5212 29.4103 40.5993 29.2808 40.7289C29.1512 40.8584 29.073 41.0305 29.0607 41.2133V57.0646C29.0607 57.2514 29.1349 57.4306 29.267 57.5627C29.3991 57.6948 29.5783 57.7691 29.7652 57.7691C29.952 57.7691 30.1312 57.6948 30.2633 57.5627C30.3954 57.4306 30.4697 57.2514 30.4697 57.0646V45.4403H40.5088V57.0646C40.5088 57.2514 40.583 57.4306 40.7152 57.5627C40.8473 57.6948 41.0265 57.7691 41.2133 57.7691C41.4002 57.7691 41.5793 57.6948 41.7115 57.5627C41.8436 57.4306 41.9178 57.2514 41.9178 57.0646V41.2133C41.9054 41.0305 41.8273 40.8584 41.6977 40.7289C41.5682 40.5993 41.3961 40.5212 41.2133 40.5088ZM30.4697 44.0313V41.9178H40.5088V44.0313H30.4697Z" fill="#555555"/>
<path d="M16.5558 29.7652C16.6147 29.7691 16.6736 29.7604 16.7288 29.7396C16.784 29.7189 16.8341 29.6866 16.8758 29.6449C16.9175 29.6032 16.9498 29.5531 16.9706 29.4979C16.9913 29.4427 17 29.3837 16.9961 29.3249V24.9218C16.9961 24.805 16.9498 24.693 16.8672 24.6104C16.7846 24.5278 16.6726 24.4814 16.5558 24.4814C16.4391 24.4814 16.3271 24.5278 16.2445 24.6104C16.1619 24.693 16.1155 24.805 16.1155 24.9218V29.3249C16.1119 29.3793 16.1191 29.4338 16.1367 29.4854C16.1542 29.537 16.1818 29.5846 16.2178 29.6255C16.2538 29.6664 16.2975 29.6998 16.3465 29.7238C16.3954 29.7478 16.4486 29.7618 16.503 29.7652H16.5558Z" fill="#555555"/>
<path d="M11.272 29.7652C11.3308 29.7691 11.3898 29.7604 11.445 29.7396C11.5002 29.7189 11.5503 29.6866 11.592 29.6449C11.6337 29.6032 11.666 29.5531 11.6868 29.4979C11.7075 29.4427 11.7162 29.3837 11.7123 29.3249V24.9218C11.7123 24.805 11.6659 24.693 11.5834 24.6104C11.5008 24.5278 11.3888 24.4814 11.272 24.4814C11.1552 24.4814 11.0432 24.5278 10.9607 24.6104C10.8781 24.693 10.8317 24.805 10.8317 24.9218V29.3249C10.8281 29.3793 10.8353 29.4338 10.8529 29.4854C10.8704 29.537 10.898 29.5846 10.934 29.6255C10.97 29.6664 11.0137 29.6998 11.0627 29.7238C11.1116 29.7478 11.1648 29.7618 11.2192 29.7652H11.272Z" fill="#555555"/>
<path d="M61.4677 33.4638H33.9922V28.7084H37.2505C37.3535 28.7113 37.4557 28.6888 37.5478 28.6427C37.64 28.5966 37.7194 28.5284 37.7789 28.4442C37.8582 28.3648 37.9096 28.2618 37.9255 28.1507C37.9414 28.0395 37.9208 27.9263 37.8669 27.8278L36.546 22.544C36.5123 22.3856 36.4224 22.2448 36.2929 22.1477C36.1633 22.0505 36.003 22.0036 35.8415 22.0157H30.5577C30.3963 22.0036 30.2359 22.0505 30.1063 22.1477C29.9768 22.2448 29.8869 22.3856 29.8532 22.544L28.5323 27.8278C28.5035 27.931 28.4965 28.0391 28.5117 28.1452C28.5268 28.2513 28.5638 28.3532 28.6204 28.4442C28.6862 28.5214 28.767 28.5846 28.8577 28.63C28.9485 28.6753 29.0474 28.702 29.1487 28.7084H32.5832V33.4638H26.0665V1.409H26.2427C26.4254 1.39664 26.5975 1.31845 26.7271 1.18891C26.8566 1.05937 26.9348 0.887275 26.9472 0.704501C26.9348 0.521727 26.8566 0.349629 26.7271 0.220093C26.5975 0.0905565 26.4254 0.0123632 26.2427 0L0.704501 0C0.521727 0.0123632 0.349629 0.0905565 0.220093 0.220093C0.0905565 0.349629 0.0123632 0.521727 0 0.704501C0.0123632 0.887275 0.0905565 1.05937 0.220093 1.18891C0.349629 1.31845 0.521727 1.39664 0.704501 1.409H0.880626V57.0646C0.892989 57.2474 0.971183 57.4195 1.10072 57.549C1.23026 57.6785 1.40235 57.7567 1.58513 57.7691C1.7679 57.7567 1.94 57.6785 2.06954 57.549C2.19907 57.4195 2.27727 57.2474 2.28963 57.0646V56.0078H24.6575V57.0646C24.6575 57.2514 24.7318 57.4306 24.8639 57.5627C24.996 57.6949 25.1752 57.7691 25.362 57.7691C25.5489 57.7691 25.7281 57.6949 25.8602 57.5627C25.9923 57.4306 26.0665 57.2514 26.0665 57.0646V34.8728H44.0313V57.0646C44.0313 57.2514 44.1055 57.4306 44.2377 57.5627C44.3698 57.6949 44.549 57.7691 44.7358 57.7691C44.9227 57.7691 45.1019 57.6949 45.234 57.5627C45.3661 57.4306 45.4403 57.2514 45.4403 57.0646V57.0646V56.0078H59.8826V57.0646C59.8826 57.2514 59.9568 57.4306 60.0889 57.5627C60.221 57.6949 60.4002 57.7691 60.5871 57.7691C60.7739 57.7691 60.9531 57.6949 61.0852 57.5627C61.2174 57.4306 61.2916 57.2514 61.2916 57.0646V34.8728H61.4677C61.6546 34.8728 61.8338 34.7986 61.9659 34.6665C62.098 34.5343 62.1722 34.3551 62.1722 34.1683C62.1722 33.9815 62.098 33.8023 61.9659 33.6701C61.8338 33.538 61.6546 33.4638 61.4677 33.4638ZM31.1742 23.4247H35.4012L36.3699 27.2994H30.2055L31.1742 23.4247ZM24.6575 40.5088H14.6184V1.409H24.6575V40.5088ZM13.2094 1.409V40.5088H2.28963V1.409H13.2094ZM2.28963 54.5988V41.9178H13.2094V54.5988H2.28963ZM14.6184 54.5988V41.9178H24.6575V54.5988H14.6184ZM59.8826 47.5538H45.4403V41.8297H59.8826V47.5538ZM45.4403 54.5988V48.9628H59.8826V54.5988H45.4403ZM59.8826 35.0489V40.5088H45.4403V34.8728H59.8826V35.0489Z" fill="#555555"/>
</g>
<defs>
<clipPath id="clip0">
<rect width="90" height="57.7691" fill="white"/>
</clipPath>
</defs>
</svg>
