<svg width="60" height="60" viewBox="0 0 60 60" fill="none" xmlns="http://www.w3.org/2000/svg">
<rect x="28" y="3" width="28" height="55" fill="#F7D917"/>
<path d="M57.1875 0.9375H1.875C1.62636 0.9375 1.3879 1.03627 1.21209 1.21209C1.03627 1.3879 0.9375 1.62636 0.9375 1.875V58.125C0.9375 58.3736 1.03627 58.6121 1.21209 58.7879C1.3879 58.9637 1.62636 59.0625 1.875 59.0625H57.1875C57.4361 59.0625 57.6746 58.9637 57.8504 58.7879C58.0262 58.6121 58.125 58.3736 58.125 58.125V1.875C58.125 1.62636 58.0262 1.3879 57.8504 1.21209C57.6746 1.03627 57.4361 0.9375 57.1875 0.9375ZM26.25 57.1875H2.8125V33.75H26.25V57.1875ZM26.25 31.875H2.8125V8.4375H26.25V31.875ZM26.25 6.5625H2.8125V2.8125H26.25V6.5625ZM56.25 57.1875H28.125V2.8125H56.25V57.1875Z" fill="#4B4B4B"/>
<path d="M30 56.25H40.3125C40.5611 56.25 40.7996 56.1512 40.9754 55.9754C41.1512 55.7996 41.25 55.5611 41.25 55.3125V4.6875C41.25 4.43886 41.1512 4.2004 40.9754 4.02459C40.7996 3.84877 40.5611 3.75 40.3125 3.75H30C29.7514 3.75 29.5129 3.84877 29.3371 4.02459C29.1613 4.2004 29.0625 4.43886 29.0625 4.6875V55.3125C29.0625 55.5611 29.1613 55.7996 29.3371 55.9754C29.5129 56.1512 29.7514 56.25 30 56.25ZM30.9375 5.625H39.375V54.375H30.9375V5.625Z" fill="#4B4B4B"/>
<path d="M44.0625 56.25H54.375C54.6236 56.25 54.8621 56.1512 55.0379 55.9754C55.2137 55.7996 55.3125 55.5611 55.3125 55.3125V4.6875C55.3125 4.43886 55.2137 4.2004 55.0379 4.02459C54.8621 3.84877 54.6236 3.75 54.375 3.75H44.0625C43.8139 3.75 43.5754 3.84877 43.3996 4.02459C43.2238 4.2004 43.125 4.43886 43.125 4.6875V55.3125C43.125 55.5611 43.2238 55.7996 43.3996 55.9754C43.5754 56.1512 43.8139 56.25 44.0625 56.25ZM45 5.625H53.4375V54.375H45V5.625Z" fill="#4B4B4B"/>
<path d="M37.5 24.375C37.2514 24.375 37.0129 24.4738 36.8371 24.6496C36.6613 24.8254 36.5625 25.0639 36.5625 25.3125V34.6875C36.5625 34.9361 36.6613 35.1746 36.8371 35.3504C37.0129 35.5262 37.2514 35.625 37.5 35.625C37.7486 35.625 37.9871 35.5262 38.1629 35.3504C38.3387 35.1746 38.4375 34.9361 38.4375 34.6875V25.3125C38.4375 25.0639 38.3387 24.8254 38.1629 24.6496C37.9871 24.4738 37.7486 24.375 37.5 24.375Z" fill="#4B4B4B"/>
<path d="M46.875 24.375C46.6264 24.375 46.3879 24.4738 46.2121 24.6496C46.0363 24.8254 45.9375 25.0639 45.9375 25.3125V34.6875C45.9375 34.9361 46.0363 35.1746 46.2121 35.3504C46.3879 35.5262 46.6264 35.625 46.875 35.625C47.1236 35.625 47.3621 35.5262 47.5379 35.3504C47.7137 35.1746 47.8125 34.9361 47.8125 34.6875V25.3125C47.8125 25.0639 47.7137 24.8254 47.5379 24.6496C47.3621 24.4738 47.1236 24.375 46.875 24.375Z" fill="#4B4B4B"/>
<path d="M46.875 36.5625C46.6264 36.5625 46.3879 36.6613 46.2121 36.8371C46.0363 37.0129 45.9375 37.2514 45.9375 37.5V38.4375C45.9375 38.6861 46.0363 38.9246 46.2121 39.1004C46.3879 39.2762 46.6264 39.375 46.875 39.375C47.1236 39.375 47.3621 39.2762 47.5379 39.1004C47.7137 38.9246 47.8125 38.6861 47.8125 38.4375V37.5C47.8125 37.2514 47.7137 37.0129 47.5379 36.8371C47.3621 36.6613 47.1236 36.5625 46.875 36.5625Z" fill="#4B4B4B"/>
<path d="M14.7255 11.5246C14.6384 11.4375 14.5351 11.3685 14.4213 11.3214C14.3076 11.2743 14.1856 11.25 14.0625 11.25C13.9394 11.25 13.8175 11.2743 13.7038 11.3214C13.59 11.3685 13.4867 11.4375 13.3996 11.5246L5.89959 19.0246C5.72377 19.2004 5.625 19.4389 5.625 19.6875C5.625 19.9362 5.72377 20.1746 5.89959 20.3505C6.07541 20.5263 6.31388 20.6251 6.56252 20.6251C6.81117 20.6251 7.04964 20.5263 7.22546 20.3505L14.7255 12.8505C14.8125 12.7634 14.8816 12.6601 14.9287 12.5463C14.9758 12.4326 15.0001 12.3107 15.0001 12.1875C15.0001 12.0644 14.9758 11.9425 14.9287 11.8288C14.8816 11.715 14.8125 11.6117 14.7255 11.5246V11.5246Z" fill="#4B4B4B"/>
<path d="M17.6183 13.8683L7.77459 23.7121C7.68754 23.7991 7.61848 23.9025 7.57136 24.0162C7.52425 24.13 7.5 24.2519 7.5 24.375C7.5 24.4981 7.52425 24.62 7.57136 24.7338C7.61848 24.8475 7.68754 24.9509 7.77459 25.0379C7.95041 25.2138 8.18888 25.3125 8.43752 25.3125C8.56064 25.3125 8.68255 25.2883 8.7963 25.2412C8.91004 25.1941 9.0134 25.125 9.10045 25.0379L18.9442 15.1942C19.0313 15.1071 19.1003 15.0038 19.1474 14.89C19.1945 14.7763 19.2188 14.6544 19.2188 14.5313C19.2188 14.4082 19.1945 14.2862 19.1474 14.1725C19.1003 14.0588 19.0313 13.9554 18.9442 13.8683C18.8571 13.7813 18.7538 13.7122 18.64 13.6651C18.5263 13.618 18.4044 13.5937 18.2813 13.5938C18.1581 13.5938 18.0362 13.618 17.9225 13.6651C17.8087 13.7122 17.7054 13.7813 17.6183 13.8683V13.8683Z" fill="#4B4B4B"/>
<path d="M15.2746 21.8371L12.4621 24.6496C12.375 24.7367 12.306 24.84 12.2589 24.9537C12.2117 25.0675 12.1875 25.1894 12.1875 25.3125C12.1875 25.4356 12.2117 25.5576 12.2589 25.6713C12.306 25.785 12.375 25.8884 12.4621 25.9755C12.6379 26.1513 12.8764 26.25 13.125 26.25C13.2481 26.25 13.3701 26.2258 13.4838 26.1787C13.5975 26.1316 13.7009 26.0625 13.788 25.9755L16.6005 23.163C16.7763 22.9871 16.8751 22.7487 16.8751 22.5C16.8751 22.2514 16.7763 22.0129 16.6005 21.8371C16.4246 21.6613 16.1862 21.5625 15.9375 21.5625C15.6889 21.5625 15.4504 21.6613 15.2746 21.8371V21.8371Z" fill="#4B4B4B"/>
<path d="M24.375 34.6875H4.6875C4.43886 34.6875 4.2004 34.7863 4.02459 34.9621C3.84877 35.1379 3.75 35.3764 3.75 35.625V44.0625C3.75 44.3111 3.84877 44.5496 4.02459 44.7254C4.2004 44.9012 4.43886 45 4.6875 45H24.375C24.6236 45 24.8621 44.9012 25.0379 44.7254C25.2137 44.5496 25.3125 44.3111 25.3125 44.0625V35.625C25.3125 35.3764 25.2137 35.1379 25.0379 34.9621C24.8621 34.7863 24.6236 34.6875 24.375 34.6875ZM23.4375 43.125H5.625V36.5625H23.4375V43.125Z" fill="#4B4B4B"/>
<path d="M10.3125 39.375H17.8125C18.0611 39.375 18.2996 39.2762 18.4754 39.1004C18.6512 38.9246 18.75 38.6861 18.75 38.4375C18.75 38.1889 18.6512 37.9504 18.4754 37.7746C18.2996 37.5988 18.0611 37.5 17.8125 37.5H10.3125C10.0639 37.5 9.8254 37.5988 9.64959 37.7746C9.47377 37.9504 9.375 38.1889 9.375 38.4375C9.375 38.6861 9.47377 38.9246 9.64959 39.1004C9.8254 39.2762 10.0639 39.375 10.3125 39.375V39.375Z" fill="#4B4B4B"/>
<path d="M24.375 45.9375H4.6875C4.43886 45.9375 4.2004 46.0363 4.02459 46.2121C3.84877 46.3879 3.75 46.6264 3.75 46.875V55.3125C3.75 55.5611 3.84877 55.7996 4.02459 55.9754C4.2004 56.1512 4.43886 56.25 4.6875 56.25H24.375C24.6236 56.25 24.8621 56.1512 25.0379 55.9754C25.2137 55.7996 25.3125 55.5611 25.3125 55.3125V46.875C25.3125 46.6264 25.2137 46.3879 25.0379 46.2121C24.8621 46.0363 24.6236 45.9375 24.375 45.9375ZM23.4375 54.375H5.625V47.8125H23.4375V54.375Z" fill="#4B4B4B"/>
<path d="M10.3125 50.625H17.8125C18.0611 50.625 18.2996 50.5262 18.4754 50.3504C18.6512 50.1746 18.75 49.9361 18.75 49.6875C18.75 49.4389 18.6512 49.2004 18.4754 49.0246C18.2996 48.8488 18.0611 48.75 17.8125 48.75H10.3125C10.0639 48.75 9.8254 48.8488 9.64959 49.0246C9.47377 49.2004 9.375 49.4389 9.375 49.6875C9.375 49.9361 9.47377 50.1746 9.64959 50.3504C9.8254 50.5262 10.0639 50.625 10.3125 50.625V50.625Z" fill="#4B4B4B"/>
</svg>
