<svg width="32" height="32" viewBox="0 0 32 32" fill="none" xmlns="http://www.w3.org/2000/svg">
<path d="M22.769 8.96156H9.23047C8.44449 8.96156 7.80741 8.32437 7.80741 7.5385C7.80741 6.75261 8.44458 6.11544 9.23047 6.11544H22.7689C23.5549 6.11544 24.1919 6.7526 24.192 7.53844L22.769 8.96156ZM22.769 8.96156C23.5548 8.96156 24.192 8.32442 24.192 7.5385L22.769 8.96156ZM14.1248 11.0311L13.9783 10.8846H13.7712H7.99972C6.74887 10.8846 5.73047 9.86618 5.73047 8.61537V2.76925C5.73047 1.5184 6.74892 0.5 7.99972 0.5H23.9997C25.2505 0.5 26.269 1.5184 26.269 2.76925V8.61537C26.269 9.86622 25.2505 10.8846 23.9997 10.8846H18.2282H18.0211L17.8747 11.0311L16.2989 12.6068L16.2987 12.6069C16.2162 12.6895 16.1089 12.7308 15.9997 12.7308C15.8906 12.7308 15.7832 12.6895 15.7007 12.6069L15.7006 12.6068L14.1248 11.0311ZM16.6151 2.42306H9.23047C8.44458 2.42306 7.80741 3.06023 7.80741 3.84612C7.80741 4.632 8.44449 5.26919 9.23047 5.26919H16.6151C17.401 5.26919 18.0382 4.63202 18.0382 3.84612C18.0382 3.06026 17.4011 2.42306 16.6151 2.42306Z" stroke="#333333"/>
<path d="M11.8848 19.0773C11.8848 16.8085 13.7313 14.9619 16.0001 14.9619C18.2689 14.9619 20.1155 16.8085 20.1155 19.0773C20.1155 21.3461 18.2689 23.1926 16.0001 23.1926C13.7313 23.1926 11.8848 21.3461 11.8848 19.0773Z" stroke="#333333"/>
<path d="M13.2302 24.8076H18.7686C22.225 24.8076 25.0378 27.6204 25.0378 31.0769C25.0378 31.3105 24.8484 31.4999 24.6147 31.4999H7.384C7.15037 31.4999 6.96094 31.3105 6.96094 31.0769C6.96094 27.6204 9.77377 24.8076 13.2302 24.8076Z" stroke="#333333"/>
</svg>
