<svg width="50" height="50" viewBox="0 0 50 50" fill="none" xmlns="http://www.w3.org/2000/svg">
<path d="M25.0008 48.7599C38.1225 48.7599 48.7598 38.1226 48.7598 25.0008C48.7598 11.8791 38.1225 1.24176 25.0008 1.24176C11.879 1.24176 1.2417 11.8791 1.2417 25.0008C1.2417 38.1226 11.879 48.7599 25.0008 48.7599Z" stroke="#333333" stroke-width="1.5" stroke-miterlimit="10" stroke-linejoin="round"/>
<path d="M24.9989 44.9253C36.0038 44.9253 44.9251 36.0041 44.9251 24.9992C44.9251 13.9942 36.0038 5.073 24.9989 5.073C13.994 5.073 5.07275 13.9942 5.07275 24.9992C5.07275 36.0041 13.994 44.9253 24.9989 44.9253Z" fill="#FFDE00"/>
<path d="M12.7368 18.8683L24.9988 24.9943L38.794 14.2704" stroke="#333333" stroke-width="1.5" stroke-miterlimit="10" stroke-linejoin="round"/>
<path d="M25.001 11.9525V8.88617" stroke="#333333" stroke-width="1.5" stroke-miterlimit="10" stroke-linejoin="round"/>
<path d="M25.001 41.1156V38.0493" stroke="#333333" stroke-width="1.5" stroke-miterlimit="10" stroke-linejoin="round"/>
<path d="M39.3193 25.0009H42.3857" stroke="#333333" stroke-width="1.5" stroke-miterlimit="10" stroke-linejoin="round"/>
<path d="M7.61475 25.0009H10.6811" stroke="#333333" stroke-width="1.5" stroke-miterlimit="10" stroke-linejoin="round"/>
<path d="M25.0004 26.5339C25.8472 26.5339 26.5336 25.8475 26.5336 25.0007C26.5336 24.154 25.8472 23.4676 25.0004 23.4676C24.1537 23.4676 23.4673 24.154 23.4673 25.0007C23.4673 25.8475 24.1537 26.5339 25.0004 26.5339Z" stroke="#333333" stroke-width="1.5" stroke-miterlimit="10" stroke-linejoin="round"/>
</svg>
