<svg width="20" height="20" viewBox="0 0 20 20" fill="none" xmlns="http://www.w3.org/2000/svg">
<path d="M15.7896 15.7894C16.348 15.7894 16.8835 16.0112 17.2783 16.406C17.6731 16.8008 17.8949 17.3363 17.8949 17.8947C17.8949 18.453 17.6731 18.9885 17.2783 19.3833C16.8835 19.7781 16.348 19.9999 15.7896 19.9999C15.2313 19.9999 14.6958 19.7781 14.301 19.3833C13.9062 18.9885 13.6843 18.453 13.6843 17.8947C13.6843 17.3363 13.9062 16.8008 14.301 16.406C14.6958 16.0112 15.2313 15.7894 15.7896 15.7894ZM15.7896 16.842C15.5105 16.842 15.2427 16.9529 15.0453 17.1504C14.8479 17.3478 14.737 17.6155 14.737 17.8947C14.737 18.1739 14.8479 18.4416 15.0453 18.639C15.2427 18.8364 15.5105 18.9473 15.7896 18.9473C16.0688 18.9473 16.3366 18.8364 16.534 18.639C16.7314 18.4416 16.8423 18.1739 16.8423 17.8947C16.8423 17.6155 16.7314 17.3478 16.534 17.1504C16.3366 16.9529 16.0688 16.842 15.7896 16.842ZM6.31585 15.7894C6.87421 15.7894 7.4097 16.0112 7.80451 16.406C8.19933 16.8008 8.42114 17.3363 8.42114 17.8947C8.42114 18.453 8.19933 18.9885 7.80451 19.3833C7.4097 19.7781 6.87421 19.9999 6.31585 19.9999C5.7575 19.9999 5.22201 19.7781 4.82719 19.3833C4.43237 18.9885 4.21057 18.453 4.21057 17.8947C4.21057 17.3363 4.43237 16.8008 4.82719 16.406C5.22201 16.0112 5.7575 15.7894 6.31585 15.7894ZM6.31585 16.842C6.03667 16.842 5.76893 16.9529 5.57152 17.1504C5.37411 17.3478 5.26321 17.6155 5.26321 17.8947C5.26321 18.1739 5.37411 18.4416 5.57152 18.639C5.76893 18.8364 6.03667 18.9473 6.31585 18.9473C6.59503 18.9473 6.86277 18.8364 7.06018 18.639C7.25759 18.4416 7.36849 18.1739 7.36849 17.8947C7.36849 17.6155 7.25759 17.3478 7.06018 17.1504C6.86277 16.9529 6.59503 16.842 6.31585 16.842ZM17.8949 3.15783H3.4453L6.12638 9.47362H14.737C14.9007 9.47387 15.0621 9.43572 15.2084 9.36223C15.3546 9.28873 15.4816 9.18195 15.5791 9.05047L18.737 4.83994H18.7381C18.8548 4.68347 18.9258 4.49762 18.9429 4.30316C18.9601 4.1087 18.9229 3.91329 18.8354 3.73877C18.748 3.56425 18.6137 3.41749 18.4476 3.3149C18.2815 3.21231 18.0901 3.15793 17.8949 3.15783ZM14.737 10.5263H6.1748L5.36847 12.1684L5.26321 12.6315C5.26321 12.9107 5.37411 13.1784 5.57152 13.3758C5.76893 13.5732 6.03667 13.6842 6.31585 13.6842H17.8949V14.7368H6.31585C5.94929 14.737 5.58903 14.6414 5.27072 14.4596C4.95241 14.2778 4.68709 14.0161 4.501 13.7003C4.31491 13.3844 4.21451 13.0255 4.20972 12.659C4.20494 12.2925 4.29594 11.931 4.47373 11.6105L5.23163 10.0589L1.40844 1.05257H0V-6.10352e-05H2.10528L2.99898 2.1052H17.8949C18.2927 2.10524 18.6823 2.21796 19.0186 2.43031C19.355 2.64266 19.6243 2.94595 19.7954 3.30505C19.9664 3.66415 20.0323 4.06436 19.9852 4.45933C19.9382 4.85431 19.7803 5.22788 19.5297 5.53678L16.4623 9.62731C16.2683 9.905 16.0102 10.1317 15.7098 10.2883C15.4094 10.4448 15.0757 10.5264 14.737 10.5263Z" fill="white"/>
</svg>
