<svg width="21" height="21" viewBox="0 0 21 21" fill="none" xmlns="http://www.w3.org/2000/svg">
<path d="M16.1231 16.4562C16.6815 16.4562 17.217 16.678 17.6118 17.0728C18.0066 17.4677 18.2284 18.0031 18.2284 18.5615C18.2284 19.1198 18.0066 19.6553 17.6118 20.0501C17.217 20.4449 16.6815 20.6667 16.1231 20.6667C15.5648 20.6667 15.0293 20.4449 14.6345 20.0501C14.2396 19.6553 14.0178 19.1198 14.0178 18.5615C14.0178 18.0031 14.2396 17.4677 14.6345 17.0728C15.0293 16.678 15.5648 16.4562 16.1231 16.4562ZM16.1231 17.5089C15.8439 17.5089 15.5762 17.6198 15.3788 17.8172C15.1814 18.0146 15.0705 18.2823 15.0705 18.5615C15.0705 18.8407 15.1814 19.1084 15.3788 19.3058C15.5762 19.5032 15.8439 19.6141 16.1231 19.6141C16.4023 19.6141 16.67 19.5032 16.8675 19.3058C17.0649 19.1084 17.1758 18.8407 17.1758 18.5615C17.1758 18.2823 17.0649 18.0146 16.8675 17.8172C16.67 17.6198 16.4023 17.5089 16.1231 17.5089ZM6.64935 16.4562C7.20771 16.4562 7.74319 16.678 8.13801 17.0728C8.53283 17.4677 8.75463 18.0031 8.75463 18.5615C8.75463 19.1198 8.53283 19.6553 8.13801 20.0501C7.74319 20.4449 7.20771 20.6667 6.64935 20.6667C6.09099 20.6667 5.55551 20.4449 5.16069 20.0501C4.76587 19.6553 4.54406 19.1198 4.54406 18.5615C4.54406 18.0031 4.76587 17.4677 5.16069 17.0728C5.55551 16.678 6.09099 16.4562 6.64935 16.4562ZM6.64935 17.5089C6.37017 17.5089 6.10243 17.6198 5.90502 17.8172C5.70761 18.0146 5.59671 18.2823 5.59671 18.5615C5.59671 18.8407 5.70761 19.1084 5.90502 19.3058C6.10243 19.5032 6.37017 19.6141 6.64935 19.6141C6.92853 19.6141 7.19627 19.5032 7.39368 19.3058C7.59109 19.1084 7.70199 18.8407 7.70199 18.5615C7.70199 18.2823 7.59109 18.0146 7.39368 17.8172C7.19627 17.6198 6.92853 17.5089 6.64935 17.5089ZM18.2284 3.82464H3.77879L6.45987 10.1404H15.0705C15.2342 10.1407 15.3956 10.1025 15.5419 10.029C15.6881 9.95554 15.8151 9.84876 15.9126 9.71727L19.0705 5.50675H19.0716C19.1883 5.35028 19.2593 5.16443 19.2764 4.96997C19.2936 4.77551 19.2564 4.5801 19.1689 4.40558C19.0815 4.23106 18.9472 4.0843 18.7811 3.98171C18.615 3.87912 18.4236 3.82474 18.2284 3.82464ZM15.0705 11.1931H6.50829L5.70197 12.8352L5.59671 13.2983C5.59671 13.5775 5.70761 13.8452 5.90502 14.0427C6.10243 14.2401 6.37017 14.351 6.64935 14.351H18.2284V15.4036H6.64935C6.28278 15.4038 5.92252 15.3082 5.60422 15.1264C5.28591 14.9446 5.02058 14.6829 4.83449 14.3671C4.64841 14.0513 4.548 13.6923 4.54322 13.3258C4.53844 12.9593 4.62944 12.5978 4.80722 12.2773L5.56513 10.7257L1.74193 1.71938H0.333496V0.666748H2.43878L3.33247 2.77201H18.2284C18.6262 2.77205 19.0158 2.88477 19.3521 3.09712C19.6885 3.30947 19.9578 3.61276 20.1288 3.97186C20.2999 4.33096 20.3658 4.73117 20.3187 5.12614C20.2717 5.52112 20.1138 5.89469 19.8632 6.20359L16.7958 10.2941C16.6018 10.5718 16.3437 10.7986 16.0433 10.9551C15.7429 11.1116 15.4092 11.1932 15.0705 11.1931Z" fill="#4B4B4B"/>
</svg>
