<svg width="20" height="20" viewBox="0 0 20 20" fill="none" xmlns="http://www.w3.org/2000/svg">
<path d="M10 16.6666C13.6667 16.6666 16.6667 13.6666 16.6667 9.99996C16.6667 6.33329 13.6667 3.33329 10 3.33329C6.33333 3.33329 3.33333 6.33329 3.33333 9.99996C3.33333 13.6666 6.33333 16.6666 10 16.6666ZM10 1.66663C14.5833 1.66663 18.3333 5.41663 18.3333 9.99996C18.3333 14.5833 14.5833 18.3333 10 18.3333C5.41666 18.3333 1.66666 14.5833 1.66666 9.99996C1.66666 5.41663 5.41666 1.66663 10 1.66663ZM14.1667 11.5833L13.5833 12.6666L9.16666 10.25V5.83329H10.4167V9.49996L14.1667 11.5833Z" fill="#F7D917"/>
</svg>
