<svg width="15" height="21" viewBox="0 0 15 21" fill="none" xmlns="http://www.w3.org/2000/svg">
<path fill-rule="evenodd" clip-rule="evenodd" d="M13.8916 9.23485C13.8916 11.7282 13.3222 13.5822 12.1833 14.797C11.043 16.0096 9.28658 16.6148 6.91392 16.6127C4.69797 16.6127 3.01683 16.0075 1.87051 14.797C0.724199 13.5865 0.151091 11.7608 0.151184 9.32005V1.13005C0.151461 1.03789 0.188195 0.949578 0.253365 0.884408C0.318536 0.819238 0.406845 0.782503 0.499009 0.782227H4.51692C4.60908 0.782503 4.69739 0.819238 4.76256 0.884408C4.82773 0.949578 4.86447 1.03789 4.86474 1.13005V9.49788C4.86474 10.4946 5.04915 11.2625 5.4244 11.8028C5.79778 12.3407 6.33262 12.61 7.02893 12.6106C7.72925 12.6106 8.26283 12.3574 8.62969 11.851C8.99649 11.3434 9.17932 10.5949 9.17815 9.60541V8.03837H13.8918L13.8916 9.23485Z" fill="#163273"/>
<path fill-rule="evenodd" clip-rule="evenodd" d="M13.5273 7.12403H9.17798V1.14656C9.17827 1.05003 9.21676 0.957525 9.28502 0.889263C9.35328 0.821 9.44578 0.782522 9.54231 0.782227H10.1929C10.1936 1.76241 10.5834 2.70221 11.2768 3.39505C11.9701 4.08789 12.9102 4.47706 13.8904 4.477H13.8915V7.12417L13.5273 7.12403Z" fill="#163273"/>
<path fill-rule="evenodd" clip-rule="evenodd" d="M11.1199 0.782227H13.5274C13.624 0.782522 13.7165 0.821003 13.7847 0.889267C13.853 0.957531 13.8914 1.05003 13.8917 1.14656V3.55707C13.1566 3.55707 12.4516 3.26504 11.9317 2.74524C11.4119 2.22543 11.1199 1.52043 11.1199 0.785305V0.782227Z" fill="#EB6E00"/>
<path fill-rule="evenodd" clip-rule="evenodd" d="M0.940183 20.5888C1.47186 20.5888 1.72895 20.2927 1.72895 19.8576V18.8094H1.34902V19.8472C1.34902 20.0909 1.21008 20.2586 0.940183 20.2586C0.670289 20.2586 0.528767 20.0907 0.528767 19.8472V18.8094H0.151489V19.8603C0.151489 20.29 0.4083 20.5888 0.940183 20.5888ZM4.02626 20.5573V20.2298H3.18244L4.00794 19.1081V18.8094H2.69505V19.137H3.52055L2.69505 20.2559V20.5573H4.02626ZM5.80478 20.5888C5.95457 20.5923 6.10238 20.554 6.23154 20.478C6.3607 20.4021 6.46609 20.2916 6.53583 20.159L6.2162 20.0044C6.17721 20.0801 6.1183 20.1438 6.04581 20.1886C5.97332 20.2334 5.88999 20.2576 5.80478 20.2586C5.48767 20.2586 5.25709 20.0149 5.25709 19.6849C5.25709 19.355 5.48795 19.1113 5.80478 19.1113C5.88986 19.1128 5.97296 19.1372 6.04535 19.1819C6.11775 19.2267 6.17676 19.29 6.2162 19.3654L6.53583 19.2083C6.46613 19.0758 6.36068 18.9655 6.23145 18.89C6.10221 18.8145 5.95439 18.7768 5.80478 18.7811C5.28059 18.7811 4.87435 19.1479 4.87435 19.6852C4.87435 20.2225 5.28059 20.5888 5.80478 20.5888ZM9.05596 20.5573L8.38248 18.8094H7.91601L7.23995 20.5573H7.66445L7.77449 20.2612H8.52394L8.63139 20.5573H9.05596ZM8.4218 19.9336H7.8767L8.14953 19.1815L8.4218 19.9336ZM11.5675 20.9953L10.9261 19.8917C11.0407 19.864 11.1419 19.7968 11.2118 19.7019C11.2818 19.607 11.3161 19.4905 11.3087 19.3729C11.3087 19.0479 11.086 18.8094 10.7217 18.8094H9.90412V20.5573H10.2762V19.9362H10.549L11.1407 20.9953H11.5675ZM10.6667 19.6085H10.2762V19.1368H10.6667C10.8161 19.1368 10.9287 19.2258 10.9287 19.3726C10.9287 19.5194 10.8158 19.6085 10.6667 19.6085ZM12.964 20.557C13.5117 20.557 13.8917 20.2112 13.8917 19.6845C13.8917 19.1577 13.5117 18.8091 12.964 18.8091H12.2748V20.557H12.964ZM12.964 20.2295H12.6469V19.1368H12.964C13.323 19.1368 13.5117 19.3752 13.5117 19.6845C13.5148 19.7571 13.5028 19.8296 13.4764 19.8974C13.4499 19.9651 13.4096 20.0266 13.3581 20.078C13.3066 20.1293 13.2449 20.1693 13.177 20.1954C13.1092 20.2215 13.0366 20.2332 12.964 20.2298V20.2295Z" fill="#163273"/>
<path fill-rule="evenodd" clip-rule="evenodd" d="M14.7977 18.6552V18.6594C14.7977 18.7021 14.7893 18.7444 14.773 18.7839C14.7566 18.8234 14.7326 18.8593 14.7024 18.8895C14.6722 18.9197 14.6363 18.9437 14.5968 18.96C14.5573 18.9764 14.515 18.9848 14.4723 18.9848C14.386 18.9848 14.3032 18.9505 14.2422 18.8895C14.1812 18.8285 14.147 18.7457 14.147 18.6594C14.147 18.6167 14.1554 18.5744 14.1717 18.5349C14.188 18.4954 14.212 18.4595 14.2422 18.4293C14.2724 18.3991 14.3083 18.3751 14.3478 18.3587C14.3873 18.3424 14.4296 18.334 14.4723 18.334H14.7976L14.7977 18.6552Z" fill="#163273"/>
</svg>
