<svg width="55" height="17" viewBox="0 0 55 17" fill="none" xmlns="http://www.w3.org/2000/svg">
<g clip-path="url(#clip0)">
<path fill-rule="evenodd" clip-rule="evenodd" d="M54.1142 6.91221C54.4997 7.46382 54.5385 8.33319 54.1294 9.00695C53.764 9.6087 51.5776 11.9178 50.8661 12.6599C50.2494 13.3044 49.417 13.9498 48.5976 13.9498H31.4425C29.124 13.9498 28.9841 13.1638 28.9841 11.3865V4.17718C28.9841 2.36206 29.5198 1.8374 31.103 1.8374H48.5976C49.417 1.8374 50.1461 2.25563 50.9836 3.10721C51.6945 3.82985 53.8184 6.48783 54.1142 6.91221Z" fill="#33CCCC"/>
<path fill-rule="evenodd" clip-rule="evenodd" d="M54.1142 6.91221C54.4997 7.46382 54.5385 8.33319 54.1294 9.00695C53.764 9.6087 51.5776 11.9178 50.8661 12.6599C50.2494 13.3044 49.417 13.9498 48.5976 13.9498H31.4425C29.124 13.9498 28.9841 13.1638 28.9841 11.3865V4.17718C28.9841 2.36206 29.5198 1.8374 31.103 1.8374H48.5976C49.417 1.8374 50.1461 2.25563 50.9836 3.10721C51.6945 3.82985 53.8184 6.48783 54.1142 6.91221Z" fill="url(#paint0_linear)"/>
<path fill-rule="evenodd" clip-rule="evenodd" d="M32.8731 4.62464V4.57718C32.8731 4.34539 32.8537 4.11627 32.4739 4.11627H31.0402C30.707 4.11627 30.6859 4.30054 30.6859 4.58685V6.49212C31.3838 5.49416 32.1576 5.03048 32.8731 4.62464ZM42.491 11.5091V11.4068H42.4921V6.82117C42.4921 4.89811 41.6467 3.93668 39.956 3.93688C39.4874 3.93247 39.0268 4.05838 38.6257 4.30054C38.2232 4.54311 37.8365 4.88195 37.4656 5.31704C37.2833 4.84422 37.0084 4.496 36.6408 4.27237C36.2733 4.04874 35.797 3.93691 35.212 3.93688C34.535 3.93688 33.7479 4.17406 33.19 4.63301C33.0652 4.75802 30.6856 6.63095 30.6856 8.55451V11.4903C30.6856 11.5837 30.6406 11.9379 31.0375 11.9379H32.5301C32.9941 11.9379 32.9488 11.6341 32.9488 11.5091V6.76085C33.2007 6.42667 33.7155 5.60134 34.5516 5.60134C34.8725 5.60134 35.1036 5.70994 35.2449 5.92716C35.3862 6.14437 35.4571 6.50857 35.4577 7.01975V10.7284H35.456V11.4904C35.456 11.5838 35.4109 11.938 35.8077 11.938H37.2812C37.7455 11.938 37.7002 11.6342 37.7002 11.5092V11.4069H37.7019V6.76105C37.9719 6.42687 38.5097 5.60154 39.3043 5.60154C39.6313 5.60154 39.867 5.71015 40.0117 5.92736C40.1563 6.14457 40.2286 6.50877 40.2284 7.01995V10.7286H40.2269V11.4906C40.2269 11.584 40.182 11.9382 40.5791 11.9382H42.0721C42.5364 11.938 42.491 11.6341 42.491 11.5091ZM50.711 9.64472C50.1804 11.0725 48.9091 11.8704 47.334 11.8704C45.0523 11.8704 43.5452 10.3157 43.5452 7.9838C43.5452 5.68005 45.1098 4.0102 47.2629 4.0102C49.3929 4.0102 50.8214 5.49356 50.9121 7.88302C50.9237 8.18833 50.8345 8.45806 50.4531 8.45806H45.6116C45.6404 9.73935 46.2581 10.4305 47.3486 10.4305C48.0137 10.4305 48.4078 10.1437 48.7509 9.58174C48.9001 9.3372 49.2059 9.3508 49.2059 9.3508H50.4531C50.6566 9.35065 50.7468 9.54959 50.711 9.64457V9.64472ZM47.2629 5.49265C46.3579 5.49265 45.7265 6.12599 45.6116 7.16306H48.8557C48.7695 6.25595 48.2813 5.49265 47.2629 5.49265Z" fill="white"/>
<path fill-rule="evenodd" clip-rule="evenodd" d="M8.91094 1.90309C8.71915 1.59749 8.47038 1.33164 8.17818 1.12004C7.88597 0.914743 7.56509 0.753772 7.22582 0.642354C6.84901 0.519617 6.4598 0.438758 6.0653 0.401241C5.61397 0.356858 5.16072 0.335415 4.70725 0.336995H0.733048C0.375686 0.336995 0.00109199 0.571709 0.00109199 1.01433V7.45863C0.504533 8.53268 1.48521 9.67294 2.60017 10.2179V8.93982C2.60017 8.26541 3.10804 8.11475 3.31812 8.11475H4.49319C6.11181 8.11475 7.34721 7.77482 8.19939 7.09502C9.05157 6.41618 9.47761 5.40784 9.47761 4.06998C9.48003 3.68342 9.43519 3.298 9.34413 2.92232C9.25358 2.56212 9.1074 2.21825 8.91094 1.90309ZM6.59505 5.21271C6.45784 5.45087 6.25316 5.64305 6.0069 5.7651C5.73999 5.89243 5.45166 5.96882 5.15674 5.99034C4.83554 6.01896 4.50386 6.03332 4.16168 6.03337H3.04501C2.77185 6.03337 2.60017 5.811 2.60017 5.48297V2.84824C2.60017 2.55276 2.79281 2.4288 3.02379 2.4288H4.16168C4.53235 2.4288 4.87995 2.4395 5.2045 2.4609C5.49661 2.47423 5.78348 2.54349 6.04953 2.66493C6.28666 2.77781 6.48293 2.96149 6.61127 3.19064C6.74652 3.4263 6.81414 3.75886 6.81424 4.18835C6.81424 4.62442 6.74118 4.96587 6.59505 5.21271ZM2.60017 10.6344C1.3739 10.1444 0.551798 9.55986 0.00109199 8.98038V12.0914C0.00109199 12.0914 -0.0442587 12.5988 0.449556 12.5988H2.1834C2.65903 12.5988 2.60037 12.0914 2.60037 12.0914V10.6344H2.60017ZM27.1722 3.72713H25.6161C25.2998 3.72713 25.0915 3.86006 24.9661 4.20785C24.8406 4.55563 23.1913 9.14924 23.1913 9.14924C23.1913 9.14924 21.6136 4.65052 21.4894 4.30218C21.3652 3.95384 21.1614 3.72713 20.794 3.72713H19.3642C18.8598 3.72713 18.8598 4.12334 18.9224 4.28046C18.9731 4.40744 20.9311 9.77422 21.6769 11.8187C21.8528 12.3014 21.9222 12.4467 21.9276 12.6255C21.9331 12.8043 21.7513 13.1798 21.6257 13.3952C21.568 13.4935 21.5017 13.5867 21.4277 13.6734C22.8897 13.2357 24.5747 11.6473 25.4461 9.92655C26.3078 7.52847 27.4441 4.36063 27.4933 4.19858C27.5726 3.9361 27.5718 3.72713 27.1722 3.72713ZM20.3011 14.1297C20.166 14.1273 20.0312 14.1176 19.8972 14.1005C19.7332 14.0788 19.4263 14.1095 19.4263 14.3782V15.5797C19.4263 16.0383 19.6455 16.0688 19.7662 16.096C20.1293 16.1717 20.4996 16.2075 20.8705 16.2027C21.3621 16.2027 21.7898 16.1133 22.1537 15.9345C22.5212 15.7526 22.8486 15.4991 23.1167 15.1889C23.4124 14.8436 23.6622 14.4615 23.86 14.0522C24.0772 13.6124 24.2858 13.1279 24.4856 12.5987C24.4856 12.5987 24.5713 12.3595 24.7124 11.9678C24.2831 12.4011 22.2601 14.3194 20.3011 14.1297ZM17.9643 5.1534C17.8799 4.95259 17.7645 4.76623 17.6225 4.60109C17.4809 4.44256 17.3189 4.30361 17.1407 4.18789C16.9484 4.06285 16.7443 3.95685 16.5315 3.8714C16.3141 3.78652 16.0906 3.71846 15.8628 3.66783C15.6039 3.61112 15.3412 3.57348 15.0768 3.55521C14.7912 3.53394 14.4702 3.52322 14.1138 3.52306C11.7565 3.52306 10.4142 4.2681 10.087 5.75819C9.98055 6.22057 10.4379 6.24773 10.4379 6.24773H11.8881C12.2667 6.24773 12.2504 6.12573 12.4341 5.78339C12.5003 5.5971 12.6193 5.43414 12.7767 5.3145C13.055 5.10011 13.4722 4.9929 14.0282 4.99286C14.5631 4.99286 14.9517 5.09645 15.1941 5.30361C15.4364 5.51078 15.579 5.82546 15.6219 6.24773C15.6219 6.73736 15.4692 7.06403 14.8773 7.06403C13.4343 7.01163 11.8837 7.17489 11.0104 7.67561C10.137 8.17632 9.64329 9.15524 9.64329 10.2065C9.64329 10.6353 9.71994 11.0108 9.87332 11.3329C10.0219 11.6487 10.2416 11.9259 10.5152 12.1427C10.8055 12.3691 11.1382 12.535 11.4937 12.6308C11.8978 12.7416 12.3152 12.7959 12.7342 12.792C13.3618 12.792 13.9163 12.7133 14.3977 12.5559C14.8789 12.3988 15.6237 11.8807 15.7185 11.8051V12.0813C15.7185 12.355 15.8018 12.599 16.1284 12.599H17.8147C18.1561 12.599 18.2319 12.355 18.2319 12.0546V6.8594C18.2349 6.53646 18.2135 6.21376 18.1679 5.89404C18.1317 5.63953 18.0633 5.39066 17.9643 5.1534ZM15.6648 10.2471C15.6648 10.2471 15.2293 11.1516 13.6752 11.1516C13.2476 11.1516 12.9001 11.0551 12.6324 10.8621C12.3648 10.6691 12.231 10.3687 12.2312 9.96096C12.2312 9.43137 12.4488 9.05753 12.8839 8.8395C13.3186 8.62161 14.189 8.49715 14.8412 8.51242C15.4934 8.52769 15.6648 8.93982 15.6648 9.22437V10.2473V10.2471Z" fill="#333333"/>
</g>
<defs>
<linearGradient id="paint0_linear" x1="62.8246" y1="5.33467" x2="59.4939" y2="25.4514" gradientUnits="userSpaceOnUse">
<stop offset="0.47231" stop-color="#00CCCC"/>
<stop offset="1" stop-color="#3399FF"/>
</linearGradient>
<clipPath id="clip0">
<rect y="0.336914" width="54.4204" height="15.8726" fill="white"/>
</clipPath>
</defs>
</svg>
