<svg width="127" height="35" viewBox="0 0 127 35" fill="none" xmlns="http://www.w3.org/2000/svg">
<path d="M59.7836 16.9696C59.7016 16.826 59.5866 16.6174 59.4389 16.3436C59.2914 16.0696 59.1191 15.7566 58.9221 15.4044C58.7416 15.0393 58.5366 14.648 58.3069 14.2307C58.0935 13.8003 57.8719 13.3569 57.6424 12.9003H51.3414L49.2247 16.9696H46.5667L54.5164 2.12109C54.6149 2.30369 54.7871 2.6363 55.0334 3.1189C55.2959 3.60133 55.5994 4.18174 55.9439 4.85995C56.305 5.52515 56.6988 6.26856 57.1254 7.09018C57.5685 7.8988 58.0115 8.72042 58.4544 9.55521C58.9139 10.3898 59.3569 11.2115 59.7836 12.0201C60.2266 12.8287 60.6286 13.5721 60.9897 14.2502C61.3506 14.9285 61.6542 15.5088 61.9003 15.9914C62.1628 16.461 62.3432 16.787 62.4417 16.9696H59.7836ZM52.2766 11.1007H56.7316C56.5018 10.6703 56.2804 10.2594 56.067 9.86822C55.8702 9.46383 55.6814 9.09863 55.5009 8.77262C55.3369 8.43343 55.1891 8.14001 55.058 7.89221C54.9267 7.6444 54.8282 7.4488 54.7626 7.30539C54.7462 7.27921 54.7051 7.18799 54.6396 7.0314C54.5903 6.87498 54.5494 6.73157 54.5164 6.60116C54.4837 6.73157 54.4344 6.87498 54.3687 7.0314C54.3031 7.18799 54.2621 7.27921 54.2458 7.30539L52.2766 11.1007Z" fill="#292927"/>
<path d="M64.5583 16.9696V2.12109H67.5306V14.8395H77.2583V16.9696H64.5583Z" fill="#292927"/>
<path d="M82.1771 9.5555H84.6991C85.3784 9.5555 85.9472 9.46001 86.4058 9.26884C86.8643 9.07768 87.2209 8.84549 87.4758 8.57245C87.7474 8.2994 87.9342 8.00585 88.0361 7.69178C88.1551 7.37771 88.2144 7.09794 88.2144 6.85214C88.2144 6.59271 88.1551 6.31277 88.0361 6.01232C87.9342 5.69842 87.7474 5.41159 87.4758 5.15216C87.2039 4.87912 86.8388 4.65382 86.3804 4.47627C85.9387 4.2989 85.3868 4.21013 84.7245 4.21013H82.1771V9.5555ZM79.375 16.9696V2.12109H84.4187C85.3869 2.12109 86.2699 2.22349 87.0682 2.42827C87.8832 2.63306 88.5796 2.9404 89.1571 3.34996C89.7515 3.74591 90.2099 4.23753 90.5326 4.82447C90.8553 5.39796 91.0167 6.06006 91.0167 6.8111C91.0167 7.39822 90.9062 7.98533 90.6855 8.57245C90.4647 9.14594 90.1081 9.66479 89.6155 10.129C89.123 10.5796 88.4776 10.9483 87.6795 11.235C86.8814 11.5216 85.9133 11.665 84.7753 11.665H82.1771V16.9696H79.375Z" fill="#292927"/>
<path d="M94.1917 16.9696V2.12109H96.9665V8.42903H106.208V2.12109H109.008C109.008 2.29847 109.008 2.63305 109.008 3.12467C109.008 3.6025 109.008 4.17599 109.008 4.84498C109.008 5.51415 109.008 6.25812 109.008 7.07743C109.008 7.88294 109 8.70896 108.983 9.5555C108.983 10.3884 108.983 11.2145 108.983 12.0338C108.983 12.8393 108.983 13.5765 108.983 14.2457C108.983 14.9147 108.983 15.4949 108.983 15.9865C108.983 16.4643 108.983 16.792 108.983 16.9696H106.208V10.5591H96.9665V16.9696H94.1917Z" fill="#292927"/>
<path d="M124.342 16.9696C124.26 16.826 124.145 16.6174 123.997 16.3436C123.85 16.0696 123.677 15.7566 123.48 15.4044C123.3 15.0393 123.095 14.648 122.865 14.2307C122.652 13.8003 122.43 13.3569 122.201 12.9003H115.9L113.783 16.9696H111.125L119.075 2.12109C119.173 2.30369 119.346 2.6363 119.592 3.1189C119.854 3.60133 120.158 4.18174 120.502 4.85995C120.863 5.52515 121.257 6.26856 121.684 7.09018C122.127 7.8988 122.57 8.72042 123.013 9.55521C123.472 10.3898 123.915 11.2115 124.342 12.0201C124.785 12.8287 125.187 13.5721 125.548 14.2502C125.909 14.9285 126.212 15.5088 126.458 15.9914C126.721 16.461 126.902 16.787 127 16.9696H124.342ZM116.835 11.1007H121.29C121.06 10.6703 120.839 10.2594 120.625 9.86822C120.428 9.46383 120.24 9.09863 120.059 8.77262C119.895 8.43343 119.748 8.14001 119.616 7.89221C119.485 7.6444 119.387 7.4488 119.321 7.30539C119.304 7.27921 119.264 7.18799 119.198 7.0314C119.149 6.87498 119.108 6.73157 119.075 6.60116C119.042 6.73157 118.993 6.87498 118.927 7.0314C118.861 7.18799 118.821 7.27921 118.804 7.30539L116.835 11.1007Z" fill="#292927"/>
<path d="M27.387 33.2308L24.5678 28.253L8.59199 28.5221L19.6005 9.68668L24.5678 18.2971H20.2717L17.4525 23.1405L27.387 23.4096L33.1598 33.2308H38.9325L19.6005 0L0 33.2308H27.387Z" fill="#CA4B54"/>
<path d="M53.5228 34.9146V29.3544L51.3242 33.4949H50.4231L48.2246 29.3544V34.9146H46.5667V26.5151H48.3448L50.8677 31.2945L53.4146 26.5151H55.1806V34.9146H53.5228ZM65.4342 33.4832V34.9146H59.5113V26.5151H65.3261V27.9466H61.1693V29.9695H64.7614V31.2945H61.1693V33.483L65.4342 33.4832ZM75.4212 32.7838C75.4212 33.1387 75.3491 33.4502 75.2049 33.7184C75.0608 33.9865 74.8606 34.2113 74.6043 34.3926C74.356 34.5741 74.0637 34.7121 73.7272 34.8068C73.3989 34.9014 73.0465 34.9487 72.67 34.9487H68.5492V26.5493H73.1145C73.4108 26.5493 73.6792 26.6124 73.9194 26.7386C74.1597 26.8648 74.3639 27.0304 74.5321 27.2355C74.7003 27.4326 74.8284 27.6614 74.9165 27.9216C75.0126 28.174 75.0606 28.4303 75.0606 28.6906C75.0606 29.1006 74.9566 29.4871 74.7484 29.8499C74.5401 30.2048 74.2358 30.469 73.8353 30.6425C74.3238 30.7845 74.7083 31.0407 74.9886 31.4114C75.2769 31.7742 75.4212 32.2318 75.4212 32.7838ZM73.7512 32.4762C73.7512 32.3264 73.7232 32.1844 73.6671 32.0504C73.619 31.9084 73.551 31.7861 73.4629 31.6837C73.3747 31.5811 73.2707 31.5022 73.1505 31.447C73.0304 31.3839 72.8982 31.3524 72.754 31.3524H70.2071V33.5646H72.67C72.8222 33.5646 72.9623 33.537 73.0905 33.4818C73.2267 33.4265 73.3429 33.3517 73.4389 33.257C73.535 33.1545 73.611 33.0361 73.6672 32.9021C73.7233 32.768 73.7512 32.6261 73.7512 32.4762ZM70.2071 27.9454V30.0629H72.4177C72.698 30.0629 72.9342 29.9683 73.1265 29.779C73.3267 29.5897 73.4268 29.3294 73.4268 28.9982C73.4268 28.6748 73.3347 28.4185 73.1505 28.2293C72.9744 28.0399 72.754 27.9453 72.4897 27.9453L70.2071 27.9454ZM84.7091 33.5345V34.9659H78.7862V26.5664H84.601V27.9979H80.4442V30.0208H84.0363V31.3458H80.4442V33.5343L84.7091 33.5345ZM89.243 35V26.6006H90.9009V33.5685H95.25V34.9999L89.243 35Z" fill="#CA4B54"/>
</svg>
