<svg width="17" height="25" viewBox="0 0 17 25" fill="none" xmlns="http://www.w3.org/2000/svg">
<path d="M15.4282 20.8847V7.06971C15.4282 6.83144 15.3259 6.6041 15.1476 6.446L9.05281 1.04279C8.73755 0.76342 8.26221 0.763368 7.94699 1.04279L1.8522 6.446C1.67389 6.60405 1.57163 6.83138 1.57163 7.06971V23.3331C1.57163 23.7926 1.94555 24.1665 2.40511 24.1665H14.5947C15.0543 24.1665 15.4282 23.7926 15.4282 23.3331C15.4282 23.1029 15.6148 22.9163 15.8449 22.9163C16.0751 22.9163 16.2616 23.1029 16.2616 23.3331C16.2616 24.2522 15.5139 25 14.5947 25H2.40511C1.48594 25 0.738159 24.2522 0.738159 23.3331V7.06971C0.738159 6.59311 0.942673 6.13845 1.2993 5.82236L7.39409 0.419143C8.02456 -0.139755 8.97535 -0.139755 9.60572 0.419143L15.7005 5.82236C16.0571 6.1385 16.2616 6.59317 16.2616 7.06971V20.8847C16.2616 21.1149 16.0751 21.3015 15.8449 21.3015C15.6148 21.3015 15.4282 21.1149 15.4282 20.8847ZM6.61828 19.1362L10.6989 15.0557C10.8616 14.893 10.8616 14.6291 10.6989 14.4664C10.5361 14.3036 10.2723 14.3036 10.1095 14.4664L6.02896 18.5469C5.86617 18.7097 5.86617 18.9735 6.02896 19.1362C6.19169 19.299 6.45554 19.299 6.61828 19.1362ZM9.71537 18.7055C9.71537 18.2508 10.0854 17.8808 10.5402 17.8808C10.995 17.8808 11.365 18.2508 11.365 18.7055C11.365 19.1603 10.995 19.5303 10.5402 19.5303C10.0854 19.5303 9.71537 19.1603 9.71537 18.7055ZM10.5315 18.7055C10.5315 18.7151 10.5488 18.7151 10.5488 18.7055C10.5488 18.6959 10.5315 18.6959 10.5315 18.7055ZM6.45966 13.8002C6.91442 13.8002 7.28443 14.1702 7.28443 14.625C7.28443 15.0797 6.91442 15.4497 6.45966 15.4497C6.00489 15.4497 5.63488 15.0797 5.63488 14.625C5.63488 14.1702 6.00484 13.8002 6.45966 13.8002ZM6.45096 14.625C6.45101 14.6365 6.4683 14.6365 6.4683 14.625C6.4683 14.6135 6.45101 14.6135 6.45096 14.625ZM8.4999 4.57985C8.93076 4.57985 9.28129 4.93038 9.28129 5.36124C9.28129 5.59138 9.46788 5.77797 9.69802 5.77797C9.92817 5.77797 10.1148 5.59138 10.1148 5.36124C10.1148 4.47082 9.39037 3.74638 8.4999 3.74638C7.60949 3.74638 6.88504 4.47082 6.88504 5.36124C6.88504 6.25165 7.60949 6.9761 8.4999 6.9761C8.73005 6.9761 8.91664 6.7895 8.91664 6.55936C8.91664 6.32921 8.73005 6.14262 8.4999 6.14262C8.06905 6.14262 7.71852 5.79209 7.71852 5.36124C7.71852 4.93038 8.06905 4.57985 8.4999 4.57985Z" fill="#F04949"/>
</svg>
