<svg width="18" height="18" viewBox="0 0 18 18" fill="none" xmlns="http://www.w3.org/2000/svg">
<path d="M6.50013 -6.10159e-05C7.74369 -8.77821e-05 8.96115 0.356608 10.0081 1.02771C11.055 1.6988 11.8874 2.65613 12.4066 3.78611C12.9258 4.9161 13.11 6.1713 12.9373 7.40279C12.7645 8.63429 12.2422 9.7904 11.4321 10.7339L17.0761 16.3779L16.3691 17.0849L10.7241 11.4399C9.92801 12.1208 8.97913 12.5991 7.95831 12.8342C6.93749 13.0692 5.87498 13.0541 4.86127 12.7901C3.84755 12.526 2.91267 12.0209 2.13624 11.3177C1.35982 10.6145 0.764847 9.73406 0.402008 8.75137C0.0391687 7.76868 -0.0807903 6.71285 0.0523476 5.67381C0.185486 4.63477 0.567776 3.6433 1.16666 2.78384C1.76554 1.92438 2.56328 1.2224 3.49192 0.737679C4.42056 0.252957 5.4526 -0.000141587 6.50013 -6.10159e-05ZM6.50013 0.999939C5.04144 0.999939 3.6425 1.5794 2.61105 2.61085C1.5796 3.6423 1.00014 5.04125 1.00014 6.49994C1.00014 7.95863 1.5796 9.35758 2.61105 10.389C3.6425 11.4205 5.04144 11.9999 6.50013 11.9999C7.95883 11.9999 9.35777 11.4205 10.3892 10.389C11.4207 9.35758 12.0001 7.95863 12.0001 6.49994C12.0001 5.04125 11.4207 3.6423 10.3892 2.61085C9.35777 1.5794 7.95883 0.999939 6.50013 0.999939Z" fill="#4B4B4B"/>
</svg>
