<svg width="33" height="28" viewBox="0 0 33 28" fill="none" xmlns="http://www.w3.org/2000/svg">
<g clip-path="url(#clip0)">
<path d="M15.6895 14.8983C25.4645 20.0603 31.0635 10.1983 31.0635 10.1983L20.5555 7.98535L16.4745 10.4314L15.6895 14.8983Z" fill="white"/>
<path d="M5.21167 14.9482H1.76367" stroke="#333333" stroke-width="1.5" stroke-linecap="round"/>
<path d="M9.85262 18.5005H4.39062" stroke="#333333" stroke-width="1.5" stroke-linecap="round"/>
<path d="M8.03162 23.0513H4.39062" stroke="#333333" stroke-width="1.5" stroke-linecap="round"/>
<path d="M1.66 23.0513H0.75" stroke="#333333" stroke-width="1.5" stroke-linecap="round"/>
<path d="M15.8652 14.9398C25.8136 19.8905 29.3554 12.4802 31.7524 9.96736" stroke="#333333" stroke-width="1.5" stroke-miterlimit="10" stroke-linecap="round"/>
<path d="M1.76367 2.53027L7.43167 2.60027L9.67367 3.70027L11.7517 5.49226C11.9202 6.27318 12.0288 7.06581 12.0767 7.86327C11.8 8.27701 11.4994 8.67435 11.1767 9.05327L9.67667 9.53227C9.67667 9.53227 7.88467 9.81027 7.62167 9.81027C6.999 9.80421 6.38028 9.71063 5.78367 9.53227L2.86467 7.86327L1.76467 3.05127L1.76367 2.53027Z" fill="white"/>
<path d="M31.9357 9.8733C28.5952 10.2486 23.4051 7.41163 19.2932 8.25959C17.3248 8.65215 15.5629 10.3546 15.3276 14.4644" stroke="#333333" stroke-width="1.5" stroke-miterlimit="10" stroke-linecap="round"/>
<path d="M10.7181 9.46555C2.82773 12.6125 2.66676 3.76404 1.04492 2.62842" stroke="#333333" stroke-width="1.5" stroke-miterlimit="10" stroke-linecap="round"/>
<path d="M1.05955 2.59986C2.89177 2.20469 12.7507 -0.034316 11.7443 9.06367" stroke="#333333" stroke-width="1.5" stroke-miterlimit="10" stroke-linecap="round"/>
<path d="M12.1875 12.9523C12.4901 10.9984 11.9225 8.14882 8.1582 6.83301" stroke="#333333" stroke-width="1.5" stroke-miterlimit="10" stroke-linecap="round"/>
<path d="M12.6029 24.8029C11.8558 13.2999 19.7172 10.9428 24.1197 11.6126" stroke="#333333" stroke-width="1.5" stroke-miterlimit="10" stroke-linecap="round"/>
</g>
<defs>
<clipPath id="clip0">
<rect width="32.809" height="27.74" fill="white"/>
</clipPath>
</defs>
</svg>
