<svg width="32" height="32" viewBox="0 0 32 32" fill="none" xmlns="http://www.w3.org/2000/svg">
<path d="M29.7599 14.4602L28.9312 11.1455C29.1577 11.0974 29.3277 10.8964 29.3277 10.6556V10.1212C29.3277 8.96078 28.3837 8.01678 27.2234 8.01678H23.4489V6.91441C23.4489 6.34341 22.9844 5.87891 22.4134 5.87891H3.17325C2.60225 5.87891 2.13775 6.34341 2.13775 6.91441V16C2.13775 16.2767 2.36206 16.5011 2.63881 16.5011C2.9155 16.5011 3.13987 16.2768 3.13987 16V6.91441C3.13987 6.89597 3.15481 6.88103 3.17325 6.88103H22.4133C22.4318 6.88103 22.4467 6.89597 22.4467 6.91441V16.0002C22.4467 16.2768 22.671 16.5012 22.9478 16.5012C23.2244 16.5012 23.4488 16.2769 23.4488 16.0002V15.4322H29.3594C29.3599 15.4322 29.3603 15.4323 29.3607 15.4323C29.3612 15.4323 29.3616 15.4322 29.3621 15.4322C30.0894 15.4327 30.7069 15.9101 30.9191 16.5679H29.3611C29.0844 16.5679 28.86 16.7922 28.86 17.069V18.1378C28.86 19.0035 29.5642 19.7078 30.4299 19.7078H30.9978V21.9123H29.6877C29.2573 20.6697 28.076 19.7745 26.6888 19.7745C25.3016 19.7745 24.1203 20.6697 23.6899 21.9123H23.4487V18.1378C23.4487 17.8611 23.2244 17.6367 22.9476 17.6367C22.6709 17.6367 22.4466 17.861 22.4466 18.1378V21.9122H12.0511C11.6207 20.6695 10.4394 19.7744 9.05219 19.7744C7.665 19.7744 6.48362 20.6695 6.05331 21.9122H3.17325C3.15481 21.9122 3.13987 21.8973 3.13987 21.8788V20.7765H5.31106C5.58775 20.7765 5.81213 20.5522 5.81213 20.2755C5.81213 19.9987 5.58781 19.7744 5.31106 19.7744H0.501063C0.224375 19.7744 0 19.9987 0 20.2755C0 20.5522 0.224313 20.7765 0.501063 20.7765H2.13781V21.8788C2.13781 22.4498 2.60231 22.9143 3.17331 22.9143H5.87981C5.87969 22.9255 5.87894 22.9365 5.87894 22.9477C5.87894 24.6975 7.3025 26.121 9.05219 26.121C10.8019 26.121 12.2254 24.6975 12.2254 22.9477C12.2254 22.9365 12.2247 22.9255 12.2246 22.9143H23.5164C23.5163 22.9255 23.5156 22.9365 23.5156 22.9477C23.5156 24.6975 24.9391 26.121 26.6888 26.121C28.4385 26.121 29.8621 24.6975 29.8621 22.9477C29.8621 22.9365 29.8613 22.9255 29.8612 22.9143H31.4989C31.7756 22.9143 31.9999 22.69 31.9999 22.4133V17.0688C32 15.7493 31.0264 14.653 29.7599 14.4602ZM23.4489 9.01884H27.2234C27.8312 9.01884 28.3257 9.51334 28.3257 10.1212V10.1545H23.4489V9.01884ZM23.4489 14.4301V11.1566H27.9011L28.7194 14.4301H23.4489ZM9.05219 25.119C7.855 25.119 6.881 24.1451 6.881 22.9478C6.881 21.7506 7.855 20.7767 9.05219 20.7767C10.2494 20.7767 11.2234 21.7506 11.2234 22.9478C11.2234 24.1451 10.2494 25.119 9.05219 25.119ZM26.6889 25.119C25.4918 25.119 24.5177 24.1451 24.5177 22.9478C24.5177 21.7506 25.4918 20.7767 26.6889 20.7767C27.8861 20.7767 28.8601 21.7506 28.8601 22.9478C28.8601 24.1451 27.8861 25.119 26.6889 25.119ZM30.9979 18.7057H30.4301C30.1169 18.7057 29.8622 18.4509 29.8622 18.1378V17.5699H30.9979V18.7057H30.9979Z" fill="#333333"/>
<path d="M9.05113 21.9121C8.48013 21.9121 8.01562 22.3766 8.01562 22.9476C8.01562 23.5186 8.48013 23.9831 9.05113 23.9831C9.62213 23.9831 10.0866 23.5186 10.0866 22.9476C10.0866 22.3766 9.62213 21.9121 9.05113 21.9121Z" fill="#333333"/>
<path d="M26.6898 21.9121C26.1188 21.9121 25.6543 22.3766 25.6543 22.9476C25.6543 23.5186 26.1188 23.9831 26.6898 23.9831C27.2608 23.9831 27.7253 23.5186 27.7253 22.9476C27.7253 22.3766 27.2608 21.9121 26.6898 21.9121Z" fill="#333333"/>
<path d="M20.8095 19.7744H13.3272C13.0505 19.7744 12.8262 19.9987 12.8262 20.2755C12.8262 20.5522 13.0505 20.7765 13.3272 20.7765H20.8095C21.0862 20.7765 21.3105 20.5522 21.3105 20.2755C21.3105 19.9987 21.0862 19.7744 20.8095 19.7744Z" fill="#333333"/>
<path d="M7.98279 17.6367H1.56942C1.29273 17.6367 1.06836 17.861 1.06836 18.1378C1.06836 18.4145 1.29267 18.6388 1.56942 18.6388H7.98279C8.25948 18.6388 8.48385 18.4145 8.48385 18.1378C8.48385 17.861 8.25948 17.6367 7.98279 17.6367Z" fill="#333333"/>
<path d="M17.4235 10.8357C17.2279 10.6401 16.9106 10.6401 16.715 10.8357L12.2592 15.2914L9.94127 12.9735C9.74558 12.7778 9.42833 12.7778 9.2327 12.9735C9.03702 13.1692 9.03702 13.4864 9.2327 13.682L11.905 16.3543C12.0028 16.4522 12.131 16.501 12.2592 16.501C12.3874 16.501 12.5157 16.4522 12.6135 16.3543L17.4235 11.5443C17.6192 11.3485 17.6192 11.0314 17.4235 10.8357Z" fill="#333333"/>
</svg>
